<svg xmlns="http://www.w3.org/2000/svg" version="1.1" xmlns:xlink="http://www.w3.org/1999/xlink" xmlns:svgjs="http://svgjs.dev/svgjs" width="1500" height="1500" viewBox="0 0 1500 1500"><rect width="1500" height="1500" fill="#000000"></rect><g transform="matrix(0.6666666666666666,0,0,0.6666666666666666,250.00029375000003,187.66666666666674)"><svg viewBox="0 0 320 360" data-background-color="#000000" preserveAspectRatio="xMidYMid meet" height="1687" width="1500" xmlns="http://www.w3.org/2000/svg" xmlns:xlink="http://www.w3.org/1999/xlink"><g id="tight-bounds" transform="matrix(1,0,0,1,-0.000046999999995023245,0)"><svg viewBox="0 0 320 360" height="360" width="320"><rect width="320.000141" height="360" fill="url(#db28e4e9-04bd-4feb-8cf6-593cf414cc65)" mask="url(#693e04d6-d579-4236-ba66-8b29de99ed9f)" data-fill-palette-color="tertiary"></rect><g><svg></svg></g><g><svg viewBox="0 0 320 360" height="360" width="320"><g><path transform="translate(-74.99272,-51.79039) scale(4.65793,4.65793)" d="M20.6 59.9l0.8 1-0.4-1.3c-0.1-0.6-0.8 0.1-0.4 0.3M21.5 59.3c0.3 0.5 0.6 1 0.6 1.5 0 0.7 0.6 1 1.1 1.2-0.7-0.8-1.1-3-1.7-2.7M59.9 16.9c1.7 0 3.3-0.2 5.1 0.2 4.4 1.1 8.1 3.3 10.6 6.4l7 11.2c0.3 2.8 0.9 5.9 0.8 9.3 0.7 0 0.6-1 1.4-1.2-0.8 2-1.2 4.5-1.4 7.4-0.5-1.6 0-4 0.1-5.3-0.7 1.1-1.1 0.3-1.1-0.2 0.1-0.8-0.3-0.7-0.6-1-1.1-1-1.8-2.1-2.6-3.8 0.5-1.3 0.6-3.2-1-4.2-0.5-0.3-1.1-0.8-1.4-1.6-0.4-1.1-1.1-2.4-0.9-4.1 0.1-0.5-1.5 1.1-2.4 0.4-3.9-2.7-7.8-5.8-12.5-8.4-2.5 0-4.3-0.9-5.2-2-0.8-1-0.2-2.3 1-2.4 0.7 0 1.5-0.2 2.1 0.2 0.1-0.4 0.5-0.9 1-0.9M50 14.6l0.2 0.1c1 0.2 1.5 1.6 2.6 1.1 0 0.7 0.1 1.4-0.1 1.9-0.3 0.8-1.2 0.8-1.9 0.8-6.7-0.4-10.6 2.4-14.7 4.8-1.1 0.7-2.3 1.2-3.2 2.1-4.3 4-9 7.7-10.1 15.1l-0.9 8.2c-0.1 0.9-1.1 1.8-0.9 2.9l0.7 4.9c-0.7-0.7-1.1 0.2-0.9 0.6 0.1 0.3 0.5 1.3 1.1 0.4 0.8 1.5 1.6 4.4 2.7 5.7 3.4 4 7.8 7.6 11.4 11.2 0.9-0.2 1.6-0.2 1.8-0.8 0.3 0.6-0.3 1.2-0.8 1.3 1.6 1 3.4 1.9 5.8 2.1 3.1 0.2 6 0.7 8.7 1.4 1.4-0.4 2.8-0.6 4.3-0.7 0.5 0 0.8-0.8 1.4-1l0.1-1c0.6 0.9 0.5-0.3 0.1-0.9 0.7 0.6 0.9 1.1 1.2 1.5 0-0.3 0.8-1.4 0.8-0.1l0.2-1.3c0.3-0.2 0.4 1.1 0.7 0.2 0.3-0.9 0.9-0.2 1.5-0.5-0.2 0.4-0.1 1.2 0.6 0.7l0.8-0.7c0.5 1.2 1.3 0.7 1.7 0.5 4.4-2.8 8.8-6.1 13-9.4l-0.1 1.3 0.5-1.6c0.5 0.5 0.9 0.1 1.1-0.2 0.6-1 1.4-2 2.7-2.9-1.6 4.3-3.5 7.7-5.9 10.5l-1 1.2c0 0.7-0.2 1.6-1 1.7-0.4 0.1-1.2-0.2-1.8 0.4-0.3 0.4 0.7 1.2-0.1 0.6-0.7-0.5-1.4 0-2.2 0.2-0.6 0.2 0.4 0.8 0.6 1.2 0.2 0.4 0.4 0.8 0.3 1.3l-1.1-1.2c-1.3 0.7-2.1 2-3.2 3-0.5 0.4-0.3 1.1-0.3 1.7-0.7 0-1.5-0.2-1.9 0.2-0.3 0.4-0.2 1-0.2 1.6-1-0.1-1.1-1.6-2-1.3-0.9 0.2-1.9 0.3-2.7 0.8 0.6 1.2-1 0.5-0.8 0.7-1.5-0.9-2.8-1.6-4.4-1-3.4-1.1-7.6-0.6-10.7-0.2 0-0.5 0.1-1-0.1-1.1-0.2 0.5-0.8 0.3-0.7 0.3-1.9-1.3-3.8-2.1-5.8-3.2-1.8 0.2-3.5-0.7-4-1.2-1.4-1.3-3-0.6-4.3-0.9-2.8-0.7-3.8-3.6-4.1-5.6-0.2-1-1-1.4-1.3-1.3-1.3-4.2-3.3-8-4.9-11.9-0.4-1-0.3-2-0.3-3.1 0.5 0.2 1 0.1 0.9-0.6-0.5-3.3-1.7-5.8-3-8.2 0.7-3.4 0.8-7.4 2.4-10.4 1.4-2.7 4-4.1 5.8-6.4 0.6-0.8 0.6-1.9 1.2-2.6 2-2 4-4.1 6.2-5.9 1-0.8 2.2 0 3.7-0.3 0.5-1.8 2.5-3.4 4.4-2.9 0.8 0.2 2.4-1.9 2.9-2.1 0.8-0.3 0.4 0.8 0.4 1.5 1.9-1.5 4.5-2.3 6.9-3.2" fill="url(#db28e4e9-04bd-4feb-8cf6-593cf414cc65)" fill-rule="nonzero" stroke="none" stroke-width="1" stroke-linecap="butt" stroke-linejoin="miter" stroke-miterlimit="10" stroke-dasharray="" stroke-dashoffset="0" font-family="none" font-weight="none" font-size="none" text-anchor="none" style="mix-blend-mode: normal" data-fill-palette-color="tertiary"></path></g><g transform="matrix(1,0,0,1,71.18863088872291,90)"><svg viewBox="0 0 177.62273822255418 180" height="180" width="177.62273822255418"><g><svg viewBox="0 0 177.62273822255418 180" height="180" width="177.62273822255418"><g><svg viewBox="0 0 192 194.56968373439727" height="180" width="177.62273822255418"><g transform="matrix(1,0,0,1,0,114.04075811456256)"><svg viewBox="0 0 192 80.52892561983471" height="80.52892561983471" width="192"><g id="textblocktransform"><svg viewBox="0 0 192 80.52892561983471" height="80.52892561983471" width="192" id="textblock"><g><svg viewBox="0 0 192 80.52892561983471" height="80.52892561983471" width="192"><g transform="matrix(1,0,0,1,0,0)"><svg width="192" viewBox="0.15 -9.35 24.200000000000003 10.15" height="80.52892561983471" data-palette-color="url(#68e7994d-8da3-44fc-89d4-040cafa93f07)"></svg></g></svg></g></svg></g></svg></g><g transform="matrix(1,0,0,1,36.672,0)"><svg viewBox="0 0 118.656 102.2896551724138" height="102.2896551724138" width="118.656"><g><svg xmlns="http://www.w3.org/2000/svg" viewBox="3 7 58 50" x="0" y="0" height="102.2896551724138" width="118.656" class="icon-icon-0" data-fill-palette-color="accent" id="icon-0"></svg></g></svg></g><g></g></svg></g></svg></g></svg></g></svg></g><defs></defs><mask id="2a8a7ea7-1e91-44bc-9c0f-8ee3a6ab6a0b"><g id="SvgjsG1610"><svg viewBox="0 0 320 360" height="360" width="320"><g><svg></svg></g><g><svg viewBox="0 0 320 360" height="360" width="320"><g><path transform="translate(-74.99272,-51.79039) scale(4.65793,4.65793)" d="M20.6 59.9l0.8 1-0.4-1.3c-0.1-0.6-0.8 0.1-0.4 0.3M21.5 59.3c0.3 0.5 0.6 1 0.6 1.5 0 0.7 0.6 1 1.1 1.2-0.7-0.8-1.1-3-1.7-2.7M59.9 16.9c1.7 0 3.3-0.2 5.1 0.2 4.4 1.1 8.1 3.3 10.6 6.4l7 11.2c0.3 2.8 0.9 5.9 0.8 9.3 0.7 0 0.6-1 1.4-1.2-0.8 2-1.2 4.5-1.4 7.4-0.5-1.6 0-4 0.1-5.3-0.7 1.1-1.1 0.3-1.1-0.2 0.1-0.8-0.3-0.7-0.6-1-1.1-1-1.8-2.1-2.6-3.8 0.5-1.3 0.6-3.2-1-4.2-0.5-0.3-1.1-0.8-1.4-1.6-0.4-1.1-1.1-2.4-0.9-4.1 0.1-0.5-1.5 1.1-2.4 0.4-3.9-2.7-7.8-5.8-12.5-8.4-2.5 0-4.3-0.9-5.2-2-0.8-1-0.2-2.3 1-2.4 0.7 0 1.5-0.2 2.1 0.2 0.1-0.4 0.5-0.9 1-0.9M50 14.6l0.2 0.1c1 0.2 1.5 1.6 2.6 1.1 0 0.7 0.1 1.4-0.1 1.9-0.3 0.8-1.2 0.8-1.9 0.8-6.7-0.4-10.6 2.4-14.7 4.8-1.1 0.7-2.3 1.2-3.2 2.1-4.3 4-9 7.7-10.1 15.1l-0.9 8.2c-0.1 0.9-1.1 1.8-0.9 2.9l0.7 4.9c-0.7-0.7-1.1 0.2-0.9 0.6 0.1 0.3 0.5 1.3 1.1 0.4 0.8 1.5 1.6 4.4 2.7 5.7 3.4 4 7.8 7.6 11.4 11.2 0.9-0.2 1.6-0.2 1.8-0.8 0.3 0.6-0.3 1.2-0.8 1.3 1.6 1 3.4 1.9 5.8 2.1 3.1 0.2 6 0.7 8.7 1.4 1.4-0.4 2.8-0.6 4.3-0.7 0.5 0 0.8-0.8 1.4-1l0.1-1c0.6 0.9 0.5-0.3 0.1-0.9 0.7 0.6 0.9 1.1 1.2 1.5 0-0.3 0.8-1.4 0.8-0.1l0.2-1.3c0.3-0.2 0.4 1.1 0.7 0.2 0.3-0.9 0.9-0.2 1.5-0.5-0.2 0.4-0.1 1.2 0.6 0.7l0.8-0.7c0.5 1.2 1.3 0.7 1.7 0.5 4.4-2.8 8.8-6.1 13-9.4l-0.1 1.3 0.5-1.6c0.5 0.5 0.9 0.1 1.1-0.2 0.6-1 1.4-2 2.7-2.9-1.6 4.3-3.5 7.7-5.9 10.5l-1 1.2c0 0.7-0.2 1.6-1 1.7-0.4 0.1-1.2-0.2-1.8 0.4-0.3 0.4 0.7 1.2-0.1 0.6-0.7-0.5-1.4 0-2.2 0.2-0.6 0.2 0.4 0.8 0.6 1.2 0.2 0.4 0.4 0.8 0.3 1.3l-1.1-1.2c-1.3 0.7-2.1 2-3.2 3-0.5 0.4-0.3 1.1-0.3 1.7-0.7 0-1.5-0.2-1.9 0.2-0.3 0.4-0.2 1-0.2 1.6-1-0.1-1.1-1.6-2-1.3-0.9 0.2-1.9 0.3-2.7 0.8 0.6 1.2-1 0.5-0.8 0.7-1.5-0.9-2.8-1.6-4.4-1-3.4-1.1-7.6-0.6-10.7-0.2 0-0.5 0.1-1-0.1-1.1-0.2 0.5-0.8 0.3-0.7 0.3-1.9-1.3-3.8-2.1-5.8-3.2-1.8 0.2-3.5-0.7-4-1.2-1.4-1.3-3-0.6-4.3-0.9-2.8-0.7-3.8-3.6-4.1-5.6-0.2-1-1-1.4-1.3-1.3-1.3-4.2-3.3-8-4.9-11.9-0.4-1-0.3-2-0.3-3.1 0.5 0.2 1 0.1 0.9-0.6-0.5-3.3-1.7-5.8-3-8.2 0.7-3.4 0.8-7.4 2.4-10.4 1.4-2.7 4-4.1 5.8-6.4 0.6-0.8 0.6-1.9 1.2-2.6 2-2 4-4.1 6.2-5.9 1-0.8 2.2 0 3.7-0.3 0.5-1.8 2.5-3.4 4.4-2.9 0.8 0.2 2.4-1.9 2.9-2.1 0.8-0.3 0.4 0.8 0.4 1.5 1.9-1.5 4.5-2.3 6.9-3.2" fill="black" fill-rule="nonzero" stroke="none" stroke-width="1" stroke-linecap="butt" stroke-linejoin="miter" stroke-miterlimit="10" stroke-dasharray="" stroke-dashoffset="0" font-family="none" font-weight="none" font-size="none" text-anchor="none" style="mix-blend-mode: normal"></path></g><g transform="matrix(1,0,0,1,71.18863088872291,90)"><svg viewBox="0 0 177.62273822255418 180" height="180" width="177.62273822255418"><g><svg viewBox="0 0 177.62273822255418 180" height="180" width="177.62273822255418"><g><svg viewBox="0 0 192 194.56968373439727" height="180" width="177.62273822255418"><g transform="matrix(1,0,0,1,0,114.04075811456256)"><svg viewBox="0 0 192 80.52892561983471" height="80.52892561983471" width="192"><g id="SvgjsG1609"><svg viewBox="0 0 192 80.52892561983471" height="80.52892561983471" width="192" id="SvgjsSvg1608"><g><svg viewBox="0 0 192 80.52892561983471" height="80.52892561983471" width="192"><g transform="matrix(1,0,0,1,0,0)"><svg width="192" viewBox="0.15 -9.35 24.200000000000003 10.15" height="80.52892561983471" data-palette-color="url(#68e7994d-8da3-44fc-89d4-040cafa93f07)"><path d="M3.25 0.8L3.25 0.8Q2.85 0.55 2.85 0.55L2.85 0.55Q2.8 0.55 2.78 0.6 2.75 0.65 2.7 0.65L2.7 0.65Q2.65 0.65 2.55 0.6 2.45 0.55 2.4 0.55L2.4 0.55 1.95 0.55 1.95 0.4Q1.45 0.2 1.2 0.03 0.95-0.15 0.6-0.5L0.6-0.5 0.15-1.75Q0.35-1.9 0.35-2.1L0.35-2.1Q0.35-2.15 0.25-2.35 0.15-2.55 0.15-2.6L0.15-2.6Q0.15-2.7 0.2-3.18 0.25-3.65 0.7-4.45L0.7-4.45 1.35-5.65Q1.55-5.85 1.75-6.13 1.95-6.4 2.3-6.65L2.3-6.65Q2.45-6.7 3.2-7.5L3.2-7.5 3.95-8.1Q4.15-8.15 4.45-8.6L4.45-8.6Q5.1-8.85 5.15-8.9L5.15-8.9Q5.15-8.95 5.15-8.95L5.15-8.95 5.1-8.95Q5.1-8.95 5.15-8.95L5.15-8.95Q5.15-8.95 5.15-8.9L5.15-8.9Q5.2-8.9 5.25-8.8L5.25-8.8 5.7-9.15 6.15-9.15Q6.25-9.15 6.55-9.25 6.85-9.35 6.9-9.35L6.9-9.35Q7.05-9.35 7.25-9.15L7.25-9.15 7.75-9.15 7.75-8.95 8.25-8.7Q8.65-8.15 8.75-8.15L8.75-8.15Q8.75-7.7 8.9-7L8.9-7Q8.65-6.85 8.45-6.5L8.45-6.5 8.3-6.5Q8.2-6.5 8.08-6.6 7.95-6.7 7.9-6.7L7.9-6.7Q7.95-6.65 7.75-6.6L7.75-6.6Q7.7-6.65 7.6-6.73 7.5-6.8 7.5-6.85L7.5-6.85 7.25-6.75Q7.2-6.75 6.93-6.88 6.65-7 6.6-7L6.6-7Q6.55-7 6.53-6.93 6.5-6.85 6.45-6.85L6.45-6.85Q6.35-6.85 6.4-6.9L6.4-6.9 6.35-6.9Q6.35-6.9 6.25-6.8L6.25-6.8 5.55-6.6Q5.45-6.55 5.3-6.43 5.15-6.3 4.9-6.2L4.9-6.2 4.75-6.2 4.75-6.5Q4.85-6.55 5-6.65 5.15-6.75 5.35-6.85L5.35-6.85 5.35-6.95Q5.1-7.2 4.95-7.2L4.95-7.2Q4.45-7.2 3.75-6.5L3.75-6.5Q3.7-6.5 3.55-6.4 3.4-6.3 3.05-5.9L3.05-5.9Q2.95-5.9 2.9-5.85L2.9-5.85Q1.9-4.7 1.95-4.5L1.95-4.5Q1.9-4.45 1.8-4.15L1.8-4.15 1.6-4.05Q1.7-3.9 1.6-3.6L1.6-3.6 1.1-2.55Q1.1-2.2 0.8-1.75L0.8-1.75Q0.85-1.7 0.88-1.63 0.9-1.55 1.05-1.5L1.05-1.5Q1.2-1.25 1.45-0.75 1.7-0.25 1.85-0.25L1.85-0.25Q1.85-0.3 2-0.35L2-0.35Q2-0.2 2.05-0.1L2.05-0.1 2.3 0.05Q2.35 0.05 2.38 0 2.4-0.05 2.45-0.05L2.45-0.05Q2.45-0.05 2.65 0.05L2.65 0.05 3.4 0.05Q3.4 0.15 3.5 0.15L3.5 0.15Q3.55 0.15 3.58 0.1 3.6 0.05 3.65 0.05L3.65 0.05Q3.7 0.05 3.78 0.1 3.85 0.15 3.9 0.15L3.9 0.15Q4 0.15 4.23 0 4.45-0.15 4.5-0.15L4.5-0.15 4.6-0.15Q4.6-0.1 4.65-0.1L4.65-0.1 5.35-0.25Q5.5-0.3 5.73-0.43 5.95-0.55 6-0.55L6-0.55Q6.1-0.55 6.08-0.5 6.05-0.45 6.15-0.45L6.15-0.45Q6-0.5 6.65-0.85L6.65-0.85 7.6-1.2Q7.9-1.4 8.2-1.7L8.2-1.7 8.95-2.05Q9.1-2.1 9.95-2.8L9.95-2.8 10.4-3 10.65-3.3Q10.8-3.3 10.85-3.35L10.85-3.35 12.4-4.85Q12.5-4.85 12.6-4.9L12.6-4.9Q12.6-4.9 12.7-5 12.8-5.1 13.1-5.3L13.1-5.3Q13.1-5.15 13-5.05L13-5.05Q12.8-4.95 12.55-4.7 12.3-4.45 12.05-4.1L12.05-4.1Q11.85-3.9 11.53-3.55 11.2-3.2 10.7-2.8L10.7-2.8 8.45-1.3Q8.1-1.1 7.85-1 7.6-0.9 7.45-0.85L7.45-0.85 7.1-0.5Q6.35-0.3 5.98-0.08 5.6 0.15 5.4 0.15L5.4 0.15 5.35 0.15Q5.35 0.1 5.3 0.1L5.3 0.1Q5.3 0.1 5.1 0.23 4.9 0.35 4.45 0.4L4.45 0.4Q4.4 0.4 4.4 0.55L4.4 0.55Q4.1 0.45 4.1 0.45L4.1 0.45Q4.05 0.45 3.9 0.55 3.75 0.65 3.7 0.65L3.7 0.65 3.6 0.65Q3.6 0.6 3.55 0.6L3.55 0.6Q3.3 0.6 3.25 0.8ZM14.5 0.8L14.5 0.8Q14.1 0.55 14.1 0.55L14.1 0.55Q14.05 0.55 14.02 0.6 14 0.65 13.95 0.65L13.95 0.65Q13.9 0.65 13.8 0.6 13.7 0.55 13.65 0.55L13.65 0.55 13.2 0.55 13.2 0.4Q12.7 0.2 12.45 0.03 12.2-0.15 11.85-0.5L11.85-0.5 11.4-1.75Q11.6-1.9 11.6-2.1L11.6-2.1Q11.6-2.15 11.5-2.35 11.4-2.55 11.4-2.6L11.4-2.6Q11.4-2.7 11.45-3.18 11.5-3.65 11.95-4.45L11.95-4.45 12.6-5.65Q12.8-5.85 13-6.13 13.2-6.4 13.55-6.65L13.55-6.65Q13.7-6.7 14.45-7.5L14.45-7.5 15.2-8.1Q15.4-8.15 15.7-8.6L15.7-8.6Q16.35-8.85 16.4-8.9L16.4-8.9Q16.4-8.95 16.4-8.95L16.4-8.95 16.35-8.95Q16.35-8.95 16.4-8.95L16.4-8.95Q16.4-8.95 16.4-8.9L16.4-8.9Q16.45-8.9 16.5-8.8L16.5-8.8 16.95-9.15 17.4-9.15Q17.5-9.15 17.8-9.25 18.1-9.35 18.15-9.35L18.15-9.35Q18.3-9.35 18.5-9.15L18.5-9.15 19-9.15 19-8.95 19.5-8.7Q19.9-8.15 20-8.15L20-8.15Q20-7.7 20.15-7L20.15-7Q19.9-6.85 19.7-6.5L19.7-6.5 19.55-6.5Q19.45-6.5 19.32-6.6 19.2-6.7 19.15-6.7L19.15-6.7Q19.2-6.65 19-6.6L19-6.6Q18.95-6.65 18.85-6.73 18.75-6.8 18.75-6.85L18.75-6.85 18.5-6.75Q18.45-6.75 18.17-6.88 17.9-7 17.85-7L17.85-7Q17.8-7 17.77-6.93 17.75-6.85 17.7-6.85L17.7-6.85Q17.6-6.85 17.65-6.9L17.65-6.9 17.6-6.9Q17.6-6.9 17.5-6.8L17.5-6.8 16.8-6.6Q16.7-6.55 16.55-6.43 16.4-6.3 16.15-6.2L16.15-6.2 16-6.2 16-6.5Q16.1-6.55 16.25-6.65 16.4-6.75 16.6-6.85L16.6-6.85 16.6-6.95Q16.35-7.2 16.2-7.2L16.2-7.2Q15.7-7.2 15-6.5L15-6.5Q14.95-6.5 14.8-6.4 14.65-6.3 14.3-5.9L14.3-5.9Q14.2-5.9 14.15-5.85L14.15-5.85Q13.15-4.7 13.2-4.5L13.2-4.5Q13.15-4.45 13.05-4.15L13.05-4.15 12.85-4.05Q12.95-3.9 12.85-3.6L12.85-3.6 12.35-2.55Q12.35-2.2 12.05-1.75L12.05-1.75Q12.1-1.7 12.12-1.63 12.15-1.55 12.3-1.5L12.3-1.5Q12.45-1.25 12.7-0.75 12.95-0.25 13.1-0.25L13.1-0.25Q13.1-0.3 13.25-0.35L13.25-0.35Q13.25-0.2 13.3-0.1L13.3-0.1 13.55 0.05Q13.6 0.05 13.62 0 13.65-0.05 13.7-0.05L13.7-0.05Q13.7-0.05 13.9 0.05L13.9 0.05 14.65 0.05Q14.65 0.15 14.75 0.15L14.75 0.15Q14.8 0.15 14.82 0.1 14.85 0.05 14.9 0.05L14.9 0.05Q14.95 0.05 15.02 0.1 15.1 0.15 15.15 0.15L15.15 0.15Q15.25 0.15 15.47 0 15.7-0.15 15.75-0.15L15.75-0.15 15.85-0.15Q15.85-0.1 15.9-0.1L15.9-0.1 16.6-0.25Q16.75-0.3 16.97-0.43 17.2-0.55 17.25-0.55L17.25-0.55Q17.35-0.55 17.32-0.5 17.3-0.45 17.4-0.45L17.4-0.45Q17.25-0.5 17.9-0.85L17.9-0.85 18.85-1.2Q19.15-1.4 19.45-1.7L19.45-1.7 20.2-2.05Q20.35-2.1 21.2-2.8L21.2-2.8 21.65-3 21.9-3.3Q22.05-3.3 22.1-3.35L22.1-3.35 23.65-4.85Q23.75-4.85 23.85-4.9L23.85-4.9Q23.85-4.9 23.95-5 24.05-5.1 24.35-5.3L24.35-5.3Q24.35-5.15 24.25-5.05L24.25-5.05Q24.05-4.95 23.8-4.7 23.55-4.45 23.3-4.1L23.3-4.1Q23.1-3.9 22.77-3.55 22.45-3.2 21.95-2.8L21.95-2.8 19.7-1.3Q19.35-1.1 19.1-1 18.85-0.9 18.7-0.85L18.7-0.85 18.35-0.5Q17.6-0.3 17.22-0.08 16.85 0.15 16.65 0.15L16.65 0.15 16.6 0.15Q16.6 0.1 16.55 0.1L16.55 0.1Q16.55 0.1 16.35 0.23 16.15 0.35 15.7 0.4L15.7 0.4Q15.65 0.4 15.65 0.55L15.65 0.55Q15.35 0.45 15.35 0.45L15.35 0.45Q15.3 0.45 15.15 0.55 15 0.65 14.95 0.65L14.95 0.65 14.85 0.65Q14.85 0.6 14.8 0.6L14.8 0.6Q14.55 0.6 14.5 0.8Z" opacity="1" transform="matrix(1,0,0,1,0,0)" fill="white" class="wordmark-text-0" id="SvgjsPath1607"></path></svg></g></svg></g></svg></g></svg></g><g transform="matrix(1,0,0,1,36.672,0)"><svg viewBox="0 0 118.656 102.2896551724138" height="102.2896551724138" width="118.656"><g><svg xmlns="http://www.w3.org/2000/svg" viewBox="3 7 58 50" x="0" y="0" height="102.2896551724138" width="118.656" class="icon-icon-0" data-fill-palette-color="accent" id="SvgjsSvg1606"><g fill="black"><path d="M12 35H6a1 1 0 0 1-1-1V20H48v5a1 1 0 0 0 2 0V10a3 3 0 0 0-3-3H6a3 3 0 0 0-3 3V34a3 3 0 0 0 3 3h6a1 1 0 0 0 0-2ZM5 18V14H48v4Zm0-8A1 1 0 0 1 6 9H47a1 1 0 0 1 1 1v2H5Z" fill="black"></path><path d="M58 27H17a3 3 0 0 0-3 3V54a3 3 0 0 0 3 3H58a3 3 0 0 0 3-3V30A3 3 0 0 0 58 27Zm1 27a1 1 0 0 1-1 1H17a1 1 0 0 1-1-1V30a1 1 0 0 1 1-1H58a1 1 0 0 1 1 1Z" fill="black"></path><path d="M8 23a1 1 0 0 0 0 2h7a1 1 0 0 0 0-2Z" fill="black"></path><path d="M18 23a1 1 0 0 0 0 2h7a1 1 0 0 0 0-2Z" fill="black"></path><path d="M28 23a1 1 0 0 0 0 2h7a1 1 0 0 0 0-2Z" fill="black"></path><path d="M38 23a1 1 0 0 0 0 2h7a1 1 0 0 0 0-2Z" fill="black"></path><path d="M26 47H19a1 1 0 0 0 0 2h7a1 1 0 0 0 0-2Z" fill="black"></path><path d="M36 47H29a1 1 0 0 0 0 2h7a1 1 0 0 0 0-2Z" fill="black"></path><path d="M46 47H39a1 1 0 0 0 0 2h7a1 1 0 0 0 0-2Z" fill="black"></path><path d="M56 47H49a1 1 0 0 0 0 2h7a1 1 0 0 0 0-2Z" fill="black"></path><path d="M54 31H50a3 3 0 0 0-3 3v5a3 3 0 0 0 3 3h4a3 3 0 0 0 3-3V34A3 3 0 0 0 54 31Zm1 8a1 1 0 0 1-1 1H50a1 1 0 0 1-1-1V34a1 1 0 0 1 1-1h4a1 1 0 0 1 1 1Z" fill="black"></path></g></svg></g></svg></g><g></g></svg></g></svg></g></svg></g></svg></g><defs><mask></mask></defs></svg><rect width="320" height="360" fill="black" stroke="none" visibility="hidden"></rect></g></mask><linearGradient x1="0" x2="1" y1="0.578" y2="0.595" id="68e7994d-8da3-44fc-89d4-040cafa93f07"><stop stop-color="#6ee2f5" offset="0"></stop><stop stop-color="#6454f0" offset="1"></stop></linearGradient><rect width="320.000047" height="360" fill="url(#68e7994d-8da3-44fc-89d4-040cafa93f07)" mask="url(#2a8a7ea7-1e91-44bc-9c0f-8ee3a6ab6a0b)" data-fill-palette-color="primary"></rect><mask id="076eee5a-32b9-4c5d-a746-fe888cd99989"><g id="SvgjsG1629"><svg viewBox="0 0 320 360" height="360" width="320"><g><svg></svg></g><g><svg viewBox="0 0 320 360" height="360" width="320"><g><path transform="translate(-74.99272,-51.79039) scale(4.65793,4.65793)" d="M20.6 59.9l0.8 1-0.4-1.3c-0.1-0.6-0.8 0.1-0.4 0.3M21.5 59.3c0.3 0.5 0.6 1 0.6 1.5 0 0.7 0.6 1 1.1 1.2-0.7-0.8-1.1-3-1.7-2.7M59.9 16.9c1.7 0 3.3-0.2 5.1 0.2 4.4 1.1 8.1 3.3 10.6 6.4l7 11.2c0.3 2.8 0.9 5.9 0.8 9.3 0.7 0 0.6-1 1.4-1.2-0.8 2-1.2 4.5-1.4 7.4-0.5-1.6 0-4 0.1-5.3-0.7 1.1-1.1 0.3-1.1-0.2 0.1-0.8-0.3-0.7-0.6-1-1.1-1-1.8-2.1-2.6-3.8 0.5-1.3 0.6-3.2-1-4.2-0.5-0.3-1.1-0.8-1.4-1.6-0.4-1.1-1.1-2.4-0.9-4.1 0.1-0.5-1.5 1.1-2.4 0.4-3.9-2.7-7.8-5.8-12.5-8.4-2.5 0-4.3-0.9-5.2-2-0.8-1-0.2-2.3 1-2.4 0.7 0 1.5-0.2 2.1 0.2 0.1-0.4 0.5-0.9 1-0.9M50 14.6l0.2 0.1c1 0.2 1.5 1.6 2.6 1.1 0 0.7 0.1 1.4-0.1 1.9-0.3 0.8-1.2 0.8-1.9 0.8-6.7-0.4-10.6 2.4-14.7 4.8-1.1 0.7-2.3 1.2-3.2 2.1-4.3 4-9 7.7-10.1 15.1l-0.9 8.2c-0.1 0.9-1.1 1.8-0.9 2.9l0.7 4.9c-0.7-0.7-1.1 0.2-0.9 0.6 0.1 0.3 0.5 1.3 1.1 0.4 0.8 1.5 1.6 4.4 2.7 5.7 3.4 4 7.8 7.6 11.4 11.2 0.9-0.2 1.6-0.2 1.8-0.8 0.3 0.6-0.3 1.2-0.8 1.3 1.6 1 3.4 1.9 5.8 2.1 3.1 0.2 6 0.7 8.7 1.4 1.4-0.4 2.8-0.6 4.3-0.7 0.5 0 0.8-0.8 1.4-1l0.1-1c0.6 0.9 0.5-0.3 0.1-0.9 0.7 0.6 0.9 1.1 1.2 1.5 0-0.3 0.8-1.4 0.8-0.1l0.2-1.3c0.3-0.2 0.4 1.1 0.7 0.2 0.3-0.9 0.9-0.2 1.5-0.5-0.2 0.4-0.1 1.2 0.6 0.7l0.8-0.7c0.5 1.2 1.3 0.7 1.7 0.5 4.4-2.8 8.8-6.1 13-9.4l-0.1 1.3 0.5-1.6c0.5 0.5 0.9 0.1 1.1-0.2 0.6-1 1.4-2 2.7-2.9-1.6 4.3-3.5 7.7-5.9 10.5l-1 1.2c0 0.7-0.2 1.6-1 1.7-0.4 0.1-1.2-0.2-1.8 0.4-0.3 0.4 0.7 1.2-0.1 0.6-0.7-0.5-1.4 0-2.2 0.2-0.6 0.2 0.4 0.8 0.6 1.2 0.2 0.4 0.4 0.8 0.3 1.3l-1.1-1.2c-1.3 0.7-2.1 2-3.2 3-0.5 0.4-0.3 1.1-0.3 1.7-0.7 0-1.5-0.2-1.9 0.2-0.3 0.4-0.2 1-0.2 1.6-1-0.1-1.1-1.6-2-1.3-0.9 0.2-1.9 0.3-2.7 0.8 0.6 1.2-1 0.5-0.8 0.7-1.5-0.9-2.8-1.6-4.4-1-3.4-1.1-7.6-0.6-10.7-0.2 0-0.5 0.1-1-0.1-1.1-0.2 0.5-0.8 0.3-0.7 0.3-1.9-1.3-3.8-2.1-5.8-3.2-1.8 0.2-3.5-0.7-4-1.2-1.4-1.3-3-0.6-4.3-0.9-2.8-0.7-3.8-3.6-4.1-5.6-0.2-1-1-1.4-1.3-1.3-1.3-4.2-3.3-8-4.9-11.9-0.4-1-0.3-2-0.3-3.1 0.5 0.2 1 0.1 0.9-0.6-0.5-3.3-1.7-5.8-3-8.2 0.7-3.4 0.8-7.4 2.4-10.4 1.4-2.7 4-4.1 5.8-6.4 0.6-0.8 0.6-1.9 1.2-2.6 2-2 4-4.1 6.2-5.9 1-0.8 2.2 0 3.7-0.3 0.5-1.8 2.5-3.4 4.4-2.9 0.8 0.2 2.4-1.9 2.9-2.1 0.8-0.3 0.4 0.8 0.4 1.5 1.9-1.5 4.5-2.3 6.9-3.2" fill="black" fill-rule="nonzero" stroke="none" stroke-width="1" stroke-linecap="butt" stroke-linejoin="miter" stroke-miterlimit="10" stroke-dasharray="" stroke-dashoffset="0" font-family="none" font-weight="none" font-size="none" text-anchor="none" style="mix-blend-mode: normal"></path></g><g transform="matrix(1,0,0,1,71.18863088872291,90)"><svg viewBox="0 0 177.62273822255418 180" height="180" width="177.62273822255418"><g><svg viewBox="0 0 177.62273822255418 180" height="180" width="177.62273822255418"><g><svg viewBox="0 0 192 194.56968373439727" height="180" width="177.62273822255418"><g transform="matrix(1,0,0,1,0,114.04075811456256)"><svg viewBox="0 0 192 80.52892561983471" height="80.52892561983471" width="192"><g id="SvgjsG1628"><svg viewBox="0 0 192 80.52892561983471" height="80.52892561983471" width="192" id="SvgjsSvg1627"><g><svg viewBox="0 0 192 80.52892561983471" height="80.52892561983471" width="192"><g transform="matrix(1,0,0,1,0,0)"><svg width="192" viewBox="0.15 -9.35 24.200000000000003 10.15" height="80.52892561983471" data-palette-color="url(#68e7994d-8da3-44fc-89d4-040cafa93f07)"></svg></g></svg></g></svg></g></svg></g><g transform="matrix(1,0,0,1,36.672,0)"><svg viewBox="0 0 118.656 102.2896551724138" height="102.2896551724138" width="118.656"><g><svg xmlns="http://www.w3.org/2000/svg" viewBox="3 7 58 50" x="0" y="0" height="102.2896551724138" width="118.656" class="icon-icon-0" data-fill-palette-color="accent" id="SvgjsSvg1626"><g fill="white"><path d="M12 35H6a1 1 0 0 1-1-1V20H48v5a1 1 0 0 0 2 0V10a3 3 0 0 0-3-3H6a3 3 0 0 0-3 3V34a3 3 0 0 0 3 3h6a1 1 0 0 0 0-2ZM5 18V14H48v4Zm0-8A1 1 0 0 1 6 9H47a1 1 0 0 1 1 1v2H5Z" fill="white"></path><path d="M58 27H17a3 3 0 0 0-3 3V54a3 3 0 0 0 3 3H58a3 3 0 0 0 3-3V30A3 3 0 0 0 58 27Zm1 27a1 1 0 0 1-1 1H17a1 1 0 0 1-1-1V30a1 1 0 0 1 1-1H58a1 1 0 0 1 1 1Z" fill="white"></path><path d="M8 23a1 1 0 0 0 0 2h7a1 1 0 0 0 0-2Z" fill="white"></path><path d="M18 23a1 1 0 0 0 0 2h7a1 1 0 0 0 0-2Z" fill="white"></path><path d="M28 23a1 1 0 0 0 0 2h7a1 1 0 0 0 0-2Z" fill="white"></path><path d="M38 23a1 1 0 0 0 0 2h7a1 1 0 0 0 0-2Z" fill="white"></path><path d="M26 47H19a1 1 0 0 0 0 2h7a1 1 0 0 0 0-2Z" fill="white"></path><path d="M36 47H29a1 1 0 0 0 0 2h7a1 1 0 0 0 0-2Z" fill="white"></path><path d="M46 47H39a1 1 0 0 0 0 2h7a1 1 0 0 0 0-2Z" fill="white"></path><path d="M56 47H49a1 1 0 0 0 0 2h7a1 1 0 0 0 0-2Z" fill="white"></path><path d="M54 31H50a3 3 0 0 0-3 3v5a3 3 0 0 0 3 3h4a3 3 0 0 0 3-3V34A3 3 0 0 0 54 31Zm1 8a1 1 0 0 1-1 1H50a1 1 0 0 1-1-1V34a1 1 0 0 1 1-1h4a1 1 0 0 1 1 1Z" fill="white"></path></g></svg></g></svg></g><g></g></svg></g></svg></g></svg></g></svg></g><defs><mask></mask></defs><mask><g id="SvgjsG1625"><svg viewBox="0 0 320 360" height="360" width="320"><g><svg></svg></g><g><svg viewBox="0 0 320 360" height="360" width="320"><g><path transform="translate(-74.99272,-51.79039) scale(4.65793,4.65793)" d="M20.6 59.9l0.8 1-0.4-1.3c-0.1-0.6-0.8 0.1-0.4 0.3M21.5 59.3c0.3 0.5 0.6 1 0.6 1.5 0 0.7 0.6 1 1.1 1.2-0.7-0.8-1.1-3-1.7-2.7M59.9 16.9c1.7 0 3.3-0.2 5.1 0.2 4.4 1.1 8.1 3.3 10.6 6.4l7 11.2c0.3 2.8 0.9 5.9 0.8 9.3 0.7 0 0.6-1 1.4-1.2-0.8 2-1.2 4.5-1.4 7.4-0.5-1.6 0-4 0.1-5.3-0.7 1.1-1.1 0.3-1.1-0.2 0.1-0.8-0.3-0.7-0.6-1-1.1-1-1.8-2.1-2.6-3.8 0.5-1.3 0.6-3.2-1-4.2-0.5-0.3-1.1-0.8-1.4-1.6-0.4-1.1-1.1-2.4-0.9-4.1 0.1-0.5-1.5 1.1-2.4 0.4-3.9-2.7-7.8-5.8-12.5-8.4-2.5 0-4.3-0.9-5.2-2-0.8-1-0.2-2.3 1-2.4 0.7 0 1.5-0.2 2.1 0.2 0.1-0.4 0.5-0.9 1-0.9M50 14.6l0.2 0.1c1 0.2 1.5 1.6 2.6 1.1 0 0.7 0.1 1.4-0.1 1.9-0.3 0.8-1.2 0.8-1.9 0.8-6.7-0.4-10.6 2.4-14.7 4.8-1.1 0.7-2.3 1.2-3.2 2.1-4.3 4-9 7.7-10.1 15.1l-0.9 8.2c-0.1 0.9-1.1 1.8-0.9 2.9l0.7 4.9c-0.7-0.7-1.1 0.2-0.9 0.6 0.1 0.3 0.5 1.3 1.1 0.4 0.8 1.5 1.6 4.4 2.7 5.7 3.4 4 7.8 7.6 11.4 11.2 0.9-0.2 1.6-0.2 1.8-0.8 0.3 0.6-0.3 1.2-0.8 1.3 1.6 1 3.4 1.9 5.8 2.1 3.1 0.2 6 0.7 8.7 1.4 1.4-0.4 2.8-0.6 4.3-0.7 0.5 0 0.8-0.8 1.4-1l0.1-1c0.6 0.9 0.5-0.3 0.1-0.9 0.7 0.6 0.9 1.1 1.2 1.5 0-0.3 0.8-1.4 0.8-0.1l0.2-1.3c0.3-0.2 0.4 1.1 0.7 0.2 0.3-0.9 0.9-0.2 1.5-0.5-0.2 0.4-0.1 1.2 0.6 0.7l0.8-0.7c0.5 1.2 1.3 0.7 1.7 0.5 4.4-2.8 8.8-6.1 13-9.4l-0.1 1.3 0.5-1.6c0.5 0.5 0.9 0.1 1.1-0.2 0.6-1 1.4-2 2.7-2.9-1.6 4.3-3.5 7.7-5.9 10.5l-1 1.2c0 0.7-0.2 1.6-1 1.7-0.4 0.1-1.2-0.2-1.8 0.4-0.3 0.4 0.7 1.2-0.1 0.6-0.7-0.5-1.4 0-2.2 0.2-0.6 0.2 0.4 0.8 0.6 1.2 0.2 0.4 0.4 0.8 0.3 1.3l-1.1-1.2c-1.3 0.7-2.1 2-3.2 3-0.5 0.4-0.3 1.1-0.3 1.7-0.7 0-1.5-0.2-1.9 0.2-0.3 0.4-0.2 1-0.2 1.6-1-0.1-1.1-1.6-2-1.3-0.9 0.2-1.9 0.3-2.7 0.8 0.6 1.2-1 0.5-0.8 0.7-1.5-0.9-2.8-1.6-4.4-1-3.4-1.1-7.6-0.6-10.7-0.2 0-0.5 0.1-1-0.1-1.1-0.2 0.5-0.8 0.3-0.7 0.3-1.9-1.3-3.8-2.1-5.8-3.2-1.8 0.2-3.5-0.7-4-1.2-1.4-1.3-3-0.6-4.3-0.9-2.8-0.7-3.8-3.6-4.1-5.6-0.2-1-1-1.4-1.3-1.3-1.3-4.2-3.3-8-4.9-11.9-0.4-1-0.3-2-0.3-3.1 0.5 0.2 1 0.1 0.9-0.6-0.5-3.3-1.7-5.8-3-8.2 0.7-3.4 0.8-7.4 2.4-10.4 1.4-2.7 4-4.1 5.8-6.4 0.6-0.8 0.6-1.9 1.2-2.6 2-2 4-4.1 6.2-5.9 1-0.8 2.2 0 3.7-0.3 0.5-1.8 2.5-3.4 4.4-2.9 0.8 0.2 2.4-1.9 2.9-2.1 0.8-0.3 0.4 0.8 0.4 1.5 1.9-1.5 4.5-2.3 6.9-3.2" fill="black" fill-rule="nonzero" stroke="none" stroke-width="1" stroke-linecap="butt" stroke-linejoin="miter" stroke-miterlimit="10" stroke-dasharray="" stroke-dashoffset="0" font-family="none" font-weight="none" font-size="none" text-anchor="none" style="mix-blend-mode: normal"></path></g><g transform="matrix(1,0,0,1,71.18863088872291,90)"><svg viewBox="0 0 177.62273822255418 180" height="180" width="177.62273822255418"><g><svg viewBox="0 0 177.62273822255418 180" height="180" width="177.62273822255418"><g><svg viewBox="0 0 192 194.56968373439727" height="180" width="177.62273822255418"><g transform="matrix(1,0,0,1,0,114.04075811456256)"><svg viewBox="0 0 192 80.52892561983471" height="80.52892561983471" width="192"><g id="SvgjsG1624"><svg viewBox="0 0 192 80.52892561983471" height="80.52892561983471" width="192" id="SvgjsSvg1623"><g><svg viewBox="0 0 192 80.52892561983471" height="80.52892561983471" width="192"><g transform="matrix(1,0,0,1,0,0)"><svg width="192" viewBox="0.15 -9.35 24.200000000000003 10.15" height="80.52892561983471" data-palette-color="url(#68e7994d-8da3-44fc-89d4-040cafa93f07)"><path d="M3.25 0.8L3.25 0.8Q2.85 0.55 2.85 0.55L2.85 0.55Q2.8 0.55 2.78 0.6 2.75 0.65 2.7 0.65L2.7 0.65Q2.65 0.65 2.55 0.6 2.45 0.55 2.4 0.55L2.4 0.55 1.95 0.55 1.95 0.4Q1.45 0.2 1.2 0.03 0.95-0.15 0.6-0.5L0.6-0.5 0.15-1.75Q0.35-1.9 0.35-2.1L0.35-2.1Q0.35-2.15 0.25-2.35 0.15-2.55 0.15-2.6L0.15-2.6Q0.15-2.7 0.2-3.18 0.25-3.65 0.7-4.45L0.7-4.45 1.35-5.65Q1.55-5.85 1.75-6.13 1.95-6.4 2.3-6.65L2.3-6.65Q2.45-6.7 3.2-7.5L3.2-7.5 3.95-8.1Q4.15-8.15 4.45-8.6L4.45-8.6Q5.1-8.85 5.15-8.9L5.15-8.9Q5.15-8.95 5.15-8.95L5.15-8.95 5.1-8.95Q5.1-8.95 5.15-8.95L5.15-8.95Q5.15-8.95 5.15-8.9L5.15-8.9Q5.2-8.9 5.25-8.8L5.25-8.8 5.7-9.15 6.15-9.15Q6.25-9.15 6.55-9.25 6.85-9.35 6.9-9.35L6.9-9.35Q7.05-9.35 7.25-9.15L7.25-9.15 7.75-9.15 7.75-8.95 8.25-8.7Q8.65-8.15 8.75-8.15L8.75-8.15Q8.75-7.7 8.9-7L8.9-7Q8.65-6.85 8.45-6.5L8.45-6.5 8.3-6.5Q8.2-6.5 8.08-6.6 7.95-6.7 7.9-6.7L7.9-6.7Q7.95-6.65 7.75-6.6L7.75-6.6Q7.7-6.65 7.6-6.73 7.5-6.8 7.5-6.85L7.5-6.85 7.25-6.75Q7.2-6.75 6.93-6.88 6.65-7 6.6-7L6.6-7Q6.55-7 6.53-6.93 6.5-6.85 6.45-6.85L6.45-6.85Q6.35-6.85 6.4-6.9L6.4-6.9 6.35-6.9Q6.35-6.9 6.25-6.8L6.25-6.8 5.55-6.6Q5.45-6.55 5.3-6.43 5.15-6.3 4.9-6.2L4.9-6.2 4.75-6.2 4.75-6.5Q4.85-6.55 5-6.65 5.15-6.75 5.35-6.85L5.35-6.85 5.35-6.95Q5.1-7.2 4.95-7.2L4.95-7.2Q4.45-7.2 3.75-6.5L3.75-6.5Q3.7-6.5 3.55-6.4 3.4-6.3 3.05-5.9L3.05-5.9Q2.95-5.9 2.9-5.85L2.9-5.85Q1.9-4.7 1.95-4.5L1.95-4.5Q1.9-4.45 1.8-4.15L1.8-4.15 1.6-4.05Q1.7-3.9 1.6-3.6L1.6-3.6 1.1-2.55Q1.1-2.2 0.8-1.75L0.8-1.75Q0.85-1.7 0.88-1.63 0.9-1.55 1.05-1.5L1.05-1.5Q1.2-1.25 1.45-0.75 1.7-0.25 1.85-0.25L1.85-0.25Q1.85-0.3 2-0.35L2-0.35Q2-0.2 2.05-0.1L2.05-0.1 2.3 0.05Q2.35 0.05 2.38 0 2.4-0.05 2.45-0.05L2.45-0.05Q2.45-0.05 2.65 0.05L2.65 0.05 3.4 0.05Q3.4 0.15 3.5 0.15L3.5 0.15Q3.55 0.15 3.58 0.1 3.6 0.05 3.65 0.05L3.65 0.05Q3.7 0.05 3.78 0.1 3.85 0.15 3.9 0.15L3.9 0.15Q4 0.15 4.23 0 4.45-0.15 4.5-0.15L4.5-0.15 4.6-0.15Q4.6-0.1 4.65-0.1L4.65-0.1 5.35-0.25Q5.5-0.3 5.73-0.43 5.95-0.55 6-0.55L6-0.55Q6.1-0.55 6.08-0.5 6.05-0.45 6.15-0.45L6.15-0.45Q6-0.5 6.65-0.85L6.65-0.85 7.6-1.2Q7.9-1.4 8.2-1.7L8.2-1.7 8.95-2.05Q9.1-2.1 9.95-2.8L9.95-2.8 10.4-3 10.65-3.3Q10.8-3.3 10.85-3.35L10.85-3.35 12.4-4.85Q12.5-4.85 12.6-4.9L12.6-4.9Q12.6-4.9 12.7-5 12.8-5.1 13.1-5.3L13.1-5.3Q13.1-5.15 13-5.05L13-5.05Q12.8-4.95 12.55-4.7 12.3-4.45 12.05-4.1L12.05-4.1Q11.85-3.9 11.53-3.55 11.2-3.2 10.7-2.8L10.7-2.8 8.45-1.3Q8.1-1.1 7.85-1 7.6-0.9 7.45-0.85L7.45-0.85 7.1-0.5Q6.35-0.3 5.98-0.08 5.6 0.15 5.4 0.15L5.4 0.15 5.35 0.15Q5.35 0.1 5.3 0.1L5.3 0.1Q5.3 0.1 5.1 0.23 4.9 0.35 4.45 0.4L4.45 0.4Q4.4 0.4 4.4 0.55L4.4 0.55Q4.1 0.45 4.1 0.45L4.1 0.45Q4.05 0.45 3.9 0.55 3.75 0.65 3.7 0.65L3.7 0.65 3.6 0.65Q3.6 0.6 3.55 0.6L3.55 0.6Q3.3 0.6 3.25 0.8ZM14.5 0.8L14.5 0.8Q14.1 0.55 14.1 0.55L14.1 0.55Q14.05 0.55 14.02 0.6 14 0.65 13.95 0.65L13.95 0.65Q13.9 0.65 13.8 0.6 13.7 0.55 13.65 0.55L13.65 0.55 13.2 0.55 13.2 0.4Q12.7 0.2 12.45 0.03 12.2-0.15 11.85-0.5L11.85-0.5 11.4-1.75Q11.6-1.9 11.6-2.1L11.6-2.1Q11.6-2.15 11.5-2.35 11.4-2.55 11.4-2.6L11.4-2.6Q11.4-2.7 11.45-3.18 11.5-3.65 11.95-4.45L11.95-4.45 12.6-5.65Q12.8-5.85 13-6.13 13.2-6.4 13.55-6.65L13.55-6.65Q13.7-6.7 14.45-7.5L14.45-7.5 15.2-8.1Q15.4-8.15 15.7-8.6L15.7-8.6Q16.35-8.85 16.4-8.9L16.4-8.9Q16.4-8.95 16.4-8.95L16.4-8.95 16.35-8.95Q16.35-8.95 16.4-8.95L16.4-8.95Q16.4-8.95 16.4-8.9L16.4-8.9Q16.45-8.9 16.5-8.8L16.5-8.8 16.95-9.15 17.4-9.15Q17.5-9.15 17.8-9.25 18.1-9.35 18.15-9.35L18.15-9.35Q18.3-9.35 18.5-9.15L18.5-9.15 19-9.15 19-8.95 19.5-8.7Q19.9-8.15 20-8.15L20-8.15Q20-7.7 20.15-7L20.15-7Q19.9-6.85 19.7-6.5L19.7-6.5 19.55-6.5Q19.45-6.5 19.32-6.6 19.2-6.7 19.15-6.7L19.15-6.7Q19.2-6.65 19-6.6L19-6.6Q18.95-6.65 18.85-6.73 18.75-6.8 18.75-6.85L18.75-6.85 18.5-6.75Q18.45-6.75 18.17-6.88 17.9-7 17.85-7L17.85-7Q17.8-7 17.77-6.93 17.75-6.85 17.7-6.85L17.7-6.85Q17.6-6.85 17.65-6.9L17.65-6.9 17.6-6.9Q17.6-6.9 17.5-6.8L17.5-6.8 16.8-6.6Q16.7-6.55 16.55-6.43 16.4-6.3 16.15-6.2L16.15-6.2 16-6.2 16-6.5Q16.1-6.55 16.25-6.65 16.4-6.75 16.6-6.85L16.6-6.85 16.6-6.95Q16.35-7.2 16.2-7.2L16.2-7.2Q15.7-7.2 15-6.5L15-6.5Q14.95-6.5 14.8-6.4 14.65-6.3 14.3-5.9L14.3-5.9Q14.2-5.9 14.15-5.85L14.15-5.85Q13.15-4.7 13.2-4.5L13.2-4.5Q13.15-4.45 13.05-4.15L13.05-4.15 12.85-4.05Q12.95-3.9 12.85-3.6L12.85-3.6 12.35-2.55Q12.35-2.2 12.05-1.75L12.05-1.75Q12.1-1.7 12.12-1.63 12.15-1.55 12.3-1.5L12.3-1.5Q12.45-1.25 12.7-0.75 12.95-0.25 13.1-0.25L13.1-0.25Q13.1-0.3 13.25-0.35L13.25-0.35Q13.25-0.2 13.3-0.1L13.3-0.1 13.55 0.05Q13.6 0.05 13.62 0 13.65-0.05 13.7-0.05L13.7-0.05Q13.7-0.05 13.9 0.05L13.9 0.05 14.65 0.05Q14.65 0.15 14.75 0.15L14.75 0.15Q14.8 0.15 14.82 0.1 14.85 0.05 14.9 0.05L14.9 0.05Q14.95 0.05 15.02 0.1 15.1 0.15 15.15 0.15L15.15 0.15Q15.25 0.15 15.47 0 15.7-0.15 15.75-0.15L15.75-0.15 15.85-0.15Q15.85-0.1 15.9-0.1L15.9-0.1 16.6-0.25Q16.75-0.3 16.97-0.43 17.2-0.55 17.25-0.55L17.25-0.55Q17.35-0.55 17.32-0.5 17.3-0.45 17.4-0.45L17.4-0.45Q17.25-0.5 17.9-0.85L17.9-0.85 18.85-1.2Q19.15-1.4 19.45-1.7L19.45-1.7 20.2-2.05Q20.35-2.1 21.2-2.8L21.2-2.8 21.65-3 21.9-3.3Q22.05-3.3 22.1-3.35L22.1-3.35 23.65-4.85Q23.75-4.85 23.85-4.9L23.85-4.9Q23.85-4.9 23.95-5 24.05-5.1 24.35-5.3L24.35-5.3Q24.35-5.15 24.25-5.05L24.25-5.05Q24.05-4.95 23.8-4.7 23.55-4.45 23.3-4.1L23.3-4.1Q23.1-3.9 22.77-3.55 22.45-3.2 21.95-2.8L21.95-2.8 19.7-1.3Q19.35-1.1 19.1-1 18.85-0.9 18.7-0.85L18.7-0.85 18.35-0.5Q17.6-0.3 17.22-0.08 16.85 0.15 16.65 0.15L16.65 0.15 16.6 0.15Q16.6 0.1 16.55 0.1L16.55 0.1Q16.55 0.1 16.35 0.23 16.15 0.35 15.7 0.4L15.7 0.4Q15.65 0.4 15.65 0.55L15.65 0.55Q15.35 0.45 15.35 0.45L15.35 0.45Q15.3 0.45 15.15 0.55 15 0.65 14.95 0.65L14.95 0.65 14.85 0.65Q14.85 0.6 14.8 0.6L14.8 0.6Q14.55 0.6 14.5 0.8Z" opacity="1" transform="matrix(1,0,0,1,0,0)" fill="black" class="wordmark-text-0" id="SvgjsPath1622"></path></svg></g></svg></g></svg></g></svg></g><g transform="matrix(1,0,0,1,36.672,0)"><svg viewBox="0 0 118.656 102.2896551724138" height="102.2896551724138" width="118.656"><g><svg xmlns="http://www.w3.org/2000/svg" viewBox="3 7 58 50" x="0" y="0" height="102.2896551724138" width="118.656" class="icon-icon-0" data-fill-palette-color="accent" id="SvgjsSvg1621"><g fill="black"><path d="M12 35H6a1 1 0 0 1-1-1V20H48v5a1 1 0 0 0 2 0V10a3 3 0 0 0-3-3H6a3 3 0 0 0-3 3V34a3 3 0 0 0 3 3h6a1 1 0 0 0 0-2ZM5 18V14H48v4Zm0-8A1 1 0 0 1 6 9H47a1 1 0 0 1 1 1v2H5Z" fill="black"></path><path d="M58 27H17a3 3 0 0 0-3 3V54a3 3 0 0 0 3 3H58a3 3 0 0 0 3-3V30A3 3 0 0 0 58 27Zm1 27a1 1 0 0 1-1 1H17a1 1 0 0 1-1-1V30a1 1 0 0 1 1-1H58a1 1 0 0 1 1 1Z" fill="black"></path><path d="M8 23a1 1 0 0 0 0 2h7a1 1 0 0 0 0-2Z" fill="black"></path><path d="M18 23a1 1 0 0 0 0 2h7a1 1 0 0 0 0-2Z" fill="black"></path><path d="M28 23a1 1 0 0 0 0 2h7a1 1 0 0 0 0-2Z" fill="black"></path><path d="M38 23a1 1 0 0 0 0 2h7a1 1 0 0 0 0-2Z" fill="black"></path><path d="M26 47H19a1 1 0 0 0 0 2h7a1 1 0 0 0 0-2Z" fill="black"></path><path d="M36 47H29a1 1 0 0 0 0 2h7a1 1 0 0 0 0-2Z" fill="black"></path><path d="M46 47H39a1 1 0 0 0 0 2h7a1 1 0 0 0 0-2Z" fill="black"></path><path d="M56 47H49a1 1 0 0 0 0 2h7a1 1 0 0 0 0-2Z" fill="black"></path><path d="M54 31H50a3 3 0 0 0-3 3v5a3 3 0 0 0 3 3h4a3 3 0 0 0 3-3V34A3 3 0 0 0 54 31Zm1 8a1 1 0 0 1-1 1H50a1 1 0 0 1-1-1V34a1 1 0 0 1 1-1h4a1 1 0 0 1 1 1Z" fill="black"></path></g></svg></g></svg></g><g></g></svg></g></svg></g></svg></g></svg></g><defs><mask></mask></defs></svg><rect width="320" height="360" fill="black" stroke="none" visibility="hidden"></rect></g></mask></svg><rect width="320" height="360" fill="black" stroke="none" visibility="hidden"></rect></g></mask><linearGradient x1="0" x2="1" y1="0.578" y2="0.595" id="88737a21-f4b8-4603-857b-fa300997e723"><stop stop-color="#6ee2f5" offset="0"></stop><stop stop-color="#6454f0" offset="1"></stop></linearGradient><rect width="320.000094" height="360" fill="url(#88737a21-f4b8-4603-857b-fa300997e723)" mask="url(#076eee5a-32b9-4c5d-a746-fe888cd99989)" data-fill-palette-color="accent"></rect><mask id="693e04d6-d579-4236-ba66-8b29de99ed9f"><g id="SvgjsG1647"><svg viewBox="0 0 320 360" height="360" width="320"><g><svg></svg></g><g><svg viewBox="0 0 320 360" height="360" width="320"><g><path transform="translate(-74.99272,-51.79039) scale(4.65793,4.65793)" d="M20.6 59.9l0.8 1-0.4-1.3c-0.1-0.6-0.8 0.1-0.4 0.3M21.5 59.3c0.3 0.5 0.6 1 0.6 1.5 0 0.7 0.6 1 1.1 1.2-0.7-0.8-1.1-3-1.7-2.7M59.9 16.9c1.7 0 3.3-0.2 5.1 0.2 4.4 1.1 8.1 3.3 10.6 6.4l7 11.2c0.3 2.8 0.9 5.9 0.8 9.3 0.7 0 0.6-1 1.4-1.2-0.8 2-1.2 4.5-1.4 7.4-0.5-1.6 0-4 0.1-5.3-0.7 1.1-1.1 0.3-1.1-0.2 0.1-0.8-0.3-0.7-0.6-1-1.1-1-1.8-2.1-2.6-3.8 0.5-1.3 0.6-3.2-1-4.2-0.5-0.3-1.1-0.8-1.4-1.6-0.4-1.1-1.1-2.4-0.9-4.1 0.1-0.5-1.5 1.1-2.4 0.4-3.9-2.7-7.8-5.8-12.5-8.4-2.5 0-4.3-0.9-5.2-2-0.8-1-0.2-2.3 1-2.4 0.7 0 1.5-0.2 2.1 0.2 0.1-0.4 0.5-0.9 1-0.9M50 14.6l0.2 0.1c1 0.2 1.5 1.6 2.6 1.1 0 0.7 0.1 1.4-0.1 1.9-0.3 0.8-1.2 0.8-1.9 0.8-6.7-0.4-10.6 2.4-14.7 4.8-1.1 0.7-2.3 1.2-3.2 2.1-4.3 4-9 7.7-10.1 15.1l-0.9 8.2c-0.1 0.9-1.1 1.8-0.9 2.9l0.7 4.9c-0.7-0.7-1.1 0.2-0.9 0.6 0.1 0.3 0.5 1.3 1.1 0.4 0.8 1.5 1.6 4.4 2.7 5.7 3.4 4 7.8 7.6 11.4 11.2 0.9-0.2 1.6-0.2 1.8-0.8 0.3 0.6-0.3 1.2-0.8 1.3 1.6 1 3.4 1.9 5.8 2.1 3.1 0.2 6 0.7 8.7 1.4 1.4-0.4 2.8-0.6 4.3-0.7 0.5 0 0.8-0.8 1.4-1l0.1-1c0.6 0.9 0.5-0.3 0.1-0.9 0.7 0.6 0.9 1.1 1.2 1.5 0-0.3 0.8-1.4 0.8-0.1l0.2-1.3c0.3-0.2 0.4 1.1 0.7 0.2 0.3-0.9 0.9-0.2 1.5-0.5-0.2 0.4-0.1 1.2 0.6 0.7l0.8-0.7c0.5 1.2 1.3 0.7 1.7 0.5 4.4-2.8 8.8-6.1 13-9.4l-0.1 1.3 0.5-1.6c0.5 0.5 0.9 0.1 1.1-0.2 0.6-1 1.4-2 2.7-2.9-1.6 4.3-3.5 7.7-5.9 10.5l-1 1.2c0 0.7-0.2 1.6-1 1.7-0.4 0.1-1.2-0.2-1.8 0.4-0.3 0.4 0.7 1.2-0.1 0.6-0.7-0.5-1.4 0-2.2 0.2-0.6 0.2 0.4 0.8 0.6 1.2 0.2 0.4 0.4 0.8 0.3 1.3l-1.1-1.2c-1.3 0.7-2.1 2-3.2 3-0.5 0.4-0.3 1.1-0.3 1.7-0.7 0-1.5-0.2-1.9 0.2-0.3 0.4-0.2 1-0.2 1.6-1-0.1-1.1-1.6-2-1.3-0.9 0.2-1.9 0.3-2.7 0.8 0.6 1.2-1 0.5-0.8 0.7-1.5-0.9-2.8-1.6-4.4-1-3.4-1.1-7.6-0.6-10.7-0.2 0-0.5 0.1-1-0.1-1.1-0.2 0.5-0.8 0.3-0.7 0.3-1.9-1.3-3.8-2.1-5.8-3.2-1.8 0.2-3.5-0.7-4-1.2-1.4-1.3-3-0.6-4.3-0.9-2.8-0.7-3.8-3.6-4.1-5.6-0.2-1-1-1.4-1.3-1.3-1.3-4.2-3.3-8-4.9-11.9-0.4-1-0.3-2-0.3-3.1 0.5 0.2 1 0.1 0.9-0.6-0.5-3.3-1.7-5.8-3-8.2 0.7-3.4 0.8-7.4 2.4-10.4 1.4-2.7 4-4.1 5.8-6.4 0.6-0.8 0.6-1.9 1.2-2.6 2-2 4-4.1 6.2-5.9 1-0.8 2.2 0 3.7-0.3 0.5-1.8 2.5-3.4 4.4-2.9 0.8 0.2 2.4-1.9 2.9-2.1 0.8-0.3 0.4 0.8 0.4 1.5 1.9-1.5 4.5-2.3 6.9-3.2" fill="white" fill-rule="nonzero" stroke="none" stroke-width="1" stroke-linecap="butt" stroke-linejoin="miter" stroke-miterlimit="10" stroke-dasharray="" stroke-dashoffset="0" font-family="none" font-weight="none" font-size="none" text-anchor="none" style="mix-blend-mode: normal"></path></g><g transform="matrix(1,0,0,1,71.18863088872291,90)"><svg viewBox="0 0 177.62273822255418 180" height="180" width="177.62273822255418"><g><svg viewBox="0 0 177.62273822255418 180" height="180" width="177.62273822255418"><g><svg viewBox="0 0 192 194.56968373439727" height="180" width="177.62273822255418"><g transform="matrix(1,0,0,1,0,114.04075811456256)"><svg viewBox="0 0 192 80.52892561983471" height="80.52892561983471" width="192"><g id="SvgjsG1646"><svg viewBox="0 0 192 80.52892561983471" height="80.52892561983471" width="192" id="SvgjsSvg1645"><g><svg viewBox="0 0 192 80.52892561983471" height="80.52892561983471" width="192"><g transform="matrix(1,0,0,1,0,0)"><svg width="192" viewBox="0.15 -9.35 24.200000000000003 10.15" height="80.52892561983471" data-palette-color="url(#68e7994d-8da3-44fc-89d4-040cafa93f07)"></svg></g></svg></g></svg></g></svg></g><g transform="matrix(1,0,0,1,36.672,0)"><svg viewBox="0 0 118.656 102.2896551724138" height="102.2896551724138" width="118.656"><g><svg xmlns="http://www.w3.org/2000/svg" viewBox="3 7 58 50" x="0" y="0" height="102.2896551724138" width="118.656" class="icon-icon-0" data-fill-palette-color="accent" id="SvgjsSvg1644"></svg></g></svg></g><g></g></svg></g></svg></g></svg></g></svg></g><defs><mask></mask></defs><mask><g id="SvgjsG1643"><svg viewBox="0 0 320 360" height="360" width="320"><g><svg></svg></g><g><svg viewBox="0 0 320 360" height="360" width="320"><g><path transform="translate(-74.99272,-51.79039) scale(4.65793,4.65793)" d="M20.6 59.9l0.8 1-0.4-1.3c-0.1-0.6-0.8 0.1-0.4 0.3M21.5 59.3c0.3 0.5 0.6 1 0.6 1.5 0 0.7 0.6 1 1.1 1.2-0.7-0.8-1.1-3-1.7-2.7M59.9 16.9c1.7 0 3.3-0.2 5.1 0.2 4.4 1.1 8.1 3.3 10.6 6.4l7 11.2c0.3 2.8 0.9 5.9 0.8 9.3 0.7 0 0.6-1 1.4-1.2-0.8 2-1.2 4.5-1.4 7.4-0.5-1.6 0-4 0.1-5.3-0.7 1.1-1.1 0.3-1.1-0.2 0.1-0.8-0.3-0.7-0.6-1-1.1-1-1.8-2.1-2.6-3.8 0.5-1.3 0.6-3.2-1-4.2-0.5-0.3-1.1-0.8-1.4-1.6-0.4-1.1-1.1-2.4-0.9-4.1 0.1-0.5-1.5 1.1-2.4 0.4-3.9-2.7-7.8-5.8-12.5-8.4-2.5 0-4.3-0.9-5.2-2-0.8-1-0.2-2.3 1-2.4 0.7 0 1.5-0.2 2.1 0.2 0.1-0.4 0.5-0.9 1-0.9M50 14.6l0.2 0.1c1 0.2 1.5 1.6 2.6 1.1 0 0.7 0.1 1.4-0.1 1.9-0.3 0.8-1.2 0.8-1.9 0.8-6.7-0.4-10.6 2.4-14.7 4.8-1.1 0.7-2.3 1.2-3.2 2.1-4.3 4-9 7.7-10.1 15.1l-0.9 8.2c-0.1 0.9-1.1 1.8-0.9 2.9l0.7 4.9c-0.7-0.7-1.1 0.2-0.9 0.6 0.1 0.3 0.5 1.3 1.1 0.4 0.8 1.5 1.6 4.4 2.7 5.7 3.4 4 7.8 7.6 11.4 11.2 0.9-0.2 1.6-0.2 1.8-0.8 0.3 0.6-0.3 1.2-0.8 1.3 1.6 1 3.4 1.9 5.8 2.1 3.1 0.2 6 0.7 8.7 1.4 1.4-0.4 2.8-0.6 4.3-0.7 0.5 0 0.8-0.8 1.4-1l0.1-1c0.6 0.9 0.5-0.3 0.1-0.9 0.7 0.6 0.9 1.1 1.2 1.5 0-0.3 0.8-1.4 0.8-0.1l0.2-1.3c0.3-0.2 0.4 1.1 0.7 0.2 0.3-0.9 0.9-0.2 1.5-0.5-0.2 0.4-0.1 1.2 0.6 0.7l0.8-0.7c0.5 1.2 1.3 0.7 1.7 0.5 4.4-2.8 8.8-6.1 13-9.4l-0.1 1.3 0.5-1.6c0.5 0.5 0.9 0.1 1.1-0.2 0.6-1 1.4-2 2.7-2.9-1.6 4.3-3.5 7.7-5.9 10.5l-1 1.2c0 0.7-0.2 1.6-1 1.7-0.4 0.1-1.2-0.2-1.8 0.4-0.3 0.4 0.7 1.2-0.1 0.6-0.7-0.5-1.4 0-2.2 0.2-0.6 0.2 0.4 0.8 0.6 1.2 0.2 0.4 0.4 0.8 0.3 1.3l-1.1-1.2c-1.3 0.7-2.1 2-3.2 3-0.5 0.4-0.3 1.1-0.3 1.7-0.7 0-1.5-0.2-1.9 0.2-0.3 0.4-0.2 1-0.2 1.6-1-0.1-1.1-1.6-2-1.3-0.9 0.2-1.9 0.3-2.7 0.8 0.6 1.2-1 0.5-0.8 0.7-1.5-0.9-2.8-1.6-4.4-1-3.4-1.1-7.6-0.6-10.7-0.2 0-0.5 0.1-1-0.1-1.1-0.2 0.5-0.8 0.3-0.7 0.3-1.9-1.3-3.8-2.1-5.8-3.2-1.8 0.2-3.5-0.7-4-1.2-1.4-1.3-3-0.6-4.3-0.9-2.8-0.7-3.8-3.6-4.1-5.6-0.2-1-1-1.4-1.3-1.3-1.3-4.2-3.3-8-4.9-11.9-0.4-1-0.3-2-0.3-3.1 0.5 0.2 1 0.1 0.9-0.6-0.5-3.3-1.7-5.8-3-8.2 0.7-3.4 0.8-7.4 2.4-10.4 1.4-2.7 4-4.1 5.8-6.4 0.6-0.8 0.6-1.9 1.2-2.6 2-2 4-4.1 6.2-5.9 1-0.8 2.2 0 3.7-0.3 0.5-1.8 2.5-3.4 4.4-2.9 0.8 0.2 2.4-1.9 2.9-2.1 0.8-0.3 0.4 0.8 0.4 1.5 1.9-1.5 4.5-2.3 6.9-3.2" fill="black" fill-rule="nonzero" stroke="none" stroke-width="1" stroke-linecap="butt" stroke-linejoin="miter" stroke-miterlimit="10" stroke-dasharray="" stroke-dashoffset="0" font-family="none" font-weight="none" font-size="none" text-anchor="none" style="mix-blend-mode: normal"></path></g><g transform="matrix(1,0,0,1,71.18863088872291,90)"><svg viewBox="0 0 177.62273822255418 180" height="180" width="177.62273822255418"><g><svg viewBox="0 0 177.62273822255418 180" height="180" width="177.62273822255418"><g><svg viewBox="0 0 192 194.56968373439727" height="180" width="177.62273822255418"><g transform="matrix(1,0,0,1,0,114.04075811456256)"><svg viewBox="0 0 192 80.52892561983471" height="80.52892561983471" width="192"><g id="SvgjsG1642"><svg viewBox="0 0 192 80.52892561983471" height="80.52892561983471" width="192" id="SvgjsSvg1641"><g><svg viewBox="0 0 192 80.52892561983471" height="80.52892561983471" width="192"><g transform="matrix(1,0,0,1,0,0)"><svg width="192" viewBox="0.15 -9.35 24.200000000000003 10.15" height="80.52892561983471" data-palette-color="url(#68e7994d-8da3-44fc-89d4-040cafa93f07)"><path d="M3.25 0.8L3.25 0.8Q2.85 0.55 2.85 0.55L2.85 0.55Q2.8 0.55 2.78 0.6 2.75 0.65 2.7 0.65L2.7 0.65Q2.65 0.65 2.55 0.6 2.45 0.55 2.4 0.55L2.4 0.55 1.95 0.55 1.95 0.4Q1.45 0.2 1.2 0.03 0.95-0.15 0.6-0.5L0.6-0.5 0.15-1.75Q0.35-1.9 0.35-2.1L0.35-2.1Q0.35-2.15 0.25-2.35 0.15-2.55 0.15-2.6L0.15-2.6Q0.15-2.7 0.2-3.18 0.25-3.65 0.7-4.45L0.7-4.45 1.35-5.65Q1.55-5.85 1.75-6.13 1.95-6.4 2.3-6.65L2.3-6.65Q2.45-6.7 3.2-7.5L3.2-7.5 3.95-8.1Q4.15-8.15 4.45-8.6L4.45-8.6Q5.1-8.85 5.15-8.9L5.15-8.9Q5.15-8.95 5.15-8.95L5.15-8.95 5.1-8.95Q5.1-8.95 5.15-8.95L5.15-8.95Q5.15-8.95 5.15-8.9L5.15-8.9Q5.2-8.9 5.25-8.8L5.25-8.8 5.7-9.15 6.15-9.15Q6.25-9.15 6.55-9.25 6.85-9.35 6.9-9.35L6.9-9.35Q7.05-9.35 7.25-9.15L7.25-9.15 7.75-9.15 7.75-8.95 8.25-8.7Q8.65-8.15 8.75-8.15L8.75-8.15Q8.75-7.7 8.9-7L8.9-7Q8.65-6.85 8.45-6.5L8.45-6.5 8.3-6.5Q8.2-6.5 8.08-6.6 7.95-6.7 7.9-6.7L7.9-6.7Q7.95-6.65 7.75-6.6L7.75-6.6Q7.7-6.65 7.6-6.73 7.5-6.8 7.5-6.85L7.5-6.85 7.25-6.75Q7.2-6.75 6.93-6.88 6.65-7 6.6-7L6.6-7Q6.55-7 6.53-6.93 6.5-6.85 6.45-6.85L6.45-6.85Q6.35-6.85 6.4-6.9L6.4-6.9 6.35-6.9Q6.35-6.9 6.25-6.8L6.25-6.8 5.55-6.6Q5.45-6.55 5.3-6.43 5.15-6.3 4.9-6.2L4.9-6.2 4.75-6.2 4.75-6.5Q4.85-6.55 5-6.65 5.15-6.75 5.35-6.85L5.35-6.85 5.35-6.95Q5.1-7.2 4.95-7.2L4.95-7.2Q4.45-7.2 3.75-6.5L3.75-6.5Q3.7-6.5 3.55-6.4 3.4-6.3 3.05-5.9L3.05-5.9Q2.95-5.9 2.9-5.85L2.9-5.85Q1.9-4.7 1.95-4.5L1.95-4.5Q1.9-4.45 1.8-4.15L1.8-4.15 1.6-4.05Q1.7-3.9 1.6-3.6L1.6-3.6 1.1-2.55Q1.1-2.2 0.8-1.75L0.8-1.75Q0.85-1.7 0.88-1.63 0.9-1.55 1.05-1.5L1.05-1.5Q1.2-1.25 1.45-0.75 1.7-0.25 1.85-0.25L1.85-0.25Q1.85-0.3 2-0.35L2-0.35Q2-0.2 2.05-0.1L2.05-0.1 2.3 0.05Q2.35 0.05 2.38 0 2.4-0.05 2.45-0.05L2.45-0.05Q2.45-0.05 2.65 0.05L2.65 0.05 3.4 0.05Q3.4 0.15 3.5 0.15L3.5 0.15Q3.55 0.15 3.58 0.1 3.6 0.05 3.65 0.05L3.65 0.05Q3.7 0.05 3.78 0.1 3.85 0.15 3.9 0.15L3.9 0.15Q4 0.15 4.23 0 4.45-0.15 4.5-0.15L4.5-0.15 4.6-0.15Q4.6-0.1 4.65-0.1L4.65-0.1 5.35-0.25Q5.5-0.3 5.73-0.43 5.95-0.55 6-0.55L6-0.55Q6.1-0.55 6.08-0.5 6.05-0.45 6.15-0.45L6.15-0.45Q6-0.5 6.65-0.85L6.65-0.85 7.6-1.2Q7.9-1.4 8.2-1.7L8.2-1.7 8.95-2.05Q9.1-2.1 9.95-2.8L9.95-2.8 10.4-3 10.65-3.3Q10.8-3.3 10.85-3.35L10.85-3.35 12.4-4.85Q12.5-4.85 12.6-4.9L12.6-4.9Q12.6-4.9 12.7-5 12.8-5.1 13.1-5.3L13.1-5.3Q13.1-5.15 13-5.05L13-5.05Q12.8-4.95 12.55-4.7 12.3-4.45 12.05-4.1L12.05-4.1Q11.85-3.9 11.53-3.55 11.2-3.2 10.7-2.8L10.7-2.8 8.45-1.3Q8.1-1.1 7.85-1 7.6-0.9 7.45-0.85L7.45-0.85 7.1-0.5Q6.35-0.3 5.98-0.08 5.6 0.15 5.4 0.15L5.4 0.15 5.35 0.15Q5.35 0.1 5.3 0.1L5.3 0.1Q5.3 0.1 5.1 0.23 4.9 0.35 4.45 0.4L4.45 0.4Q4.4 0.4 4.4 0.55L4.4 0.55Q4.1 0.45 4.1 0.45L4.1 0.45Q4.05 0.45 3.9 0.55 3.75 0.65 3.7 0.65L3.7 0.65 3.6 0.65Q3.6 0.6 3.55 0.6L3.55 0.6Q3.3 0.6 3.25 0.8ZM14.5 0.8L14.5 0.8Q14.1 0.55 14.1 0.55L14.1 0.55Q14.05 0.55 14.02 0.6 14 0.65 13.95 0.65L13.95 0.65Q13.9 0.65 13.8 0.6 13.7 0.55 13.65 0.55L13.65 0.55 13.2 0.55 13.2 0.4Q12.7 0.2 12.45 0.03 12.2-0.15 11.85-0.5L11.85-0.5 11.4-1.75Q11.6-1.9 11.6-2.1L11.6-2.1Q11.6-2.15 11.5-2.35 11.4-2.55 11.4-2.6L11.4-2.6Q11.4-2.7 11.45-3.18 11.5-3.65 11.95-4.45L11.95-4.45 12.6-5.65Q12.8-5.85 13-6.13 13.2-6.4 13.55-6.65L13.55-6.65Q13.7-6.7 14.45-7.5L14.45-7.5 15.2-8.1Q15.4-8.15 15.7-8.6L15.7-8.6Q16.35-8.85 16.4-8.9L16.4-8.9Q16.4-8.95 16.4-8.95L16.4-8.95 16.35-8.95Q16.35-8.95 16.4-8.95L16.4-8.95Q16.4-8.95 16.4-8.9L16.4-8.9Q16.45-8.9 16.5-8.8L16.5-8.8 16.95-9.15 17.4-9.15Q17.5-9.15 17.8-9.25 18.1-9.35 18.15-9.35L18.15-9.35Q18.3-9.35 18.5-9.15L18.5-9.15 19-9.15 19-8.95 19.5-8.7Q19.9-8.15 20-8.15L20-8.15Q20-7.7 20.15-7L20.15-7Q19.9-6.85 19.7-6.5L19.7-6.5 19.55-6.5Q19.45-6.5 19.32-6.6 19.2-6.7 19.15-6.7L19.15-6.7Q19.2-6.65 19-6.6L19-6.6Q18.95-6.65 18.85-6.73 18.75-6.8 18.75-6.85L18.75-6.85 18.5-6.75Q18.45-6.75 18.17-6.88 17.9-7 17.85-7L17.85-7Q17.8-7 17.77-6.93 17.75-6.85 17.7-6.85L17.7-6.85Q17.6-6.85 17.65-6.9L17.65-6.9 17.6-6.9Q17.6-6.9 17.5-6.8L17.5-6.8 16.8-6.6Q16.7-6.55 16.55-6.43 16.4-6.3 16.15-6.2L16.15-6.2 16-6.2 16-6.5Q16.1-6.55 16.25-6.65 16.4-6.75 16.6-6.85L16.6-6.85 16.6-6.95Q16.35-7.2 16.2-7.2L16.2-7.2Q15.7-7.2 15-6.5L15-6.5Q14.95-6.5 14.8-6.4 14.65-6.3 14.3-5.9L14.3-5.9Q14.2-5.9 14.15-5.85L14.15-5.85Q13.15-4.7 13.2-4.5L13.2-4.5Q13.15-4.45 13.05-4.15L13.05-4.15 12.85-4.05Q12.95-3.9 12.85-3.6L12.85-3.6 12.35-2.55Q12.35-2.2 12.05-1.75L12.05-1.75Q12.1-1.7 12.12-1.63 12.15-1.55 12.3-1.5L12.3-1.5Q12.45-1.25 12.7-0.75 12.95-0.25 13.1-0.25L13.1-0.25Q13.1-0.3 13.25-0.35L13.25-0.35Q13.25-0.2 13.3-0.1L13.3-0.1 13.55 0.05Q13.6 0.05 13.62 0 13.65-0.05 13.7-0.05L13.7-0.05Q13.7-0.05 13.9 0.05L13.9 0.05 14.65 0.05Q14.65 0.15 14.75 0.15L14.75 0.15Q14.8 0.15 14.82 0.1 14.85 0.05 14.9 0.05L14.9 0.05Q14.95 0.05 15.02 0.1 15.1 0.15 15.15 0.15L15.15 0.15Q15.25 0.15 15.47 0 15.7-0.15 15.75-0.15L15.75-0.15 15.85-0.15Q15.85-0.1 15.9-0.1L15.9-0.1 16.6-0.25Q16.75-0.3 16.97-0.43 17.2-0.55 17.25-0.55L17.25-0.55Q17.35-0.55 17.32-0.5 17.3-0.45 17.4-0.45L17.4-0.45Q17.25-0.5 17.9-0.85L17.9-0.85 18.85-1.2Q19.15-1.4 19.45-1.7L19.45-1.7 20.2-2.05Q20.35-2.1 21.2-2.8L21.2-2.8 21.65-3 21.9-3.3Q22.05-3.3 22.1-3.35L22.1-3.35 23.65-4.85Q23.75-4.85 23.85-4.9L23.85-4.9Q23.85-4.9 23.95-5 24.05-5.1 24.35-5.3L24.35-5.3Q24.35-5.15 24.25-5.05L24.25-5.05Q24.05-4.95 23.8-4.7 23.55-4.45 23.3-4.1L23.3-4.1Q23.1-3.9 22.77-3.55 22.45-3.2 21.95-2.8L21.95-2.8 19.7-1.3Q19.35-1.1 19.1-1 18.85-0.9 18.7-0.85L18.7-0.85 18.35-0.5Q17.6-0.3 17.22-0.08 16.85 0.15 16.65 0.15L16.65 0.15 16.6 0.15Q16.6 0.1 16.55 0.1L16.55 0.1Q16.55 0.1 16.35 0.23 16.15 0.35 15.7 0.4L15.7 0.4Q15.65 0.4 15.65 0.55L15.65 0.55Q15.35 0.45 15.35 0.45L15.35 0.45Q15.3 0.45 15.15 0.55 15 0.65 14.95 0.65L14.95 0.65 14.85 0.65Q14.85 0.6 14.8 0.6L14.8 0.6Q14.55 0.6 14.5 0.8Z" opacity="1" transform="matrix(1,0,0,1,0,0)" fill="black" class="wordmark-text-0" id="SvgjsPath1640"></path></svg></g></svg></g></svg></g></svg></g><g transform="matrix(1,0,0,1,36.672,0)"><svg viewBox="0 0 118.656 102.2896551724138" height="102.2896551724138" width="118.656"><g><svg xmlns="http://www.w3.org/2000/svg" viewBox="3 7 58 50" x="0" y="0" height="102.2896551724138" width="118.656" class="icon-icon-0" data-fill-palette-color="accent" id="SvgjsSvg1639"><g fill="black"><path d="M12 35H6a1 1 0 0 1-1-1V20H48v5a1 1 0 0 0 2 0V10a3 3 0 0 0-3-3H6a3 3 0 0 0-3 3V34a3 3 0 0 0 3 3h6a1 1 0 0 0 0-2ZM5 18V14H48v4Zm0-8A1 1 0 0 1 6 9H47a1 1 0 0 1 1 1v2H5Z" fill="black"></path><path d="M58 27H17a3 3 0 0 0-3 3V54a3 3 0 0 0 3 3H58a3 3 0 0 0 3-3V30A3 3 0 0 0 58 27Zm1 27a1 1 0 0 1-1 1H17a1 1 0 0 1-1-1V30a1 1 0 0 1 1-1H58a1 1 0 0 1 1 1Z" fill="black"></path><path d="M8 23a1 1 0 0 0 0 2h7a1 1 0 0 0 0-2Z" fill="black"></path><path d="M18 23a1 1 0 0 0 0 2h7a1 1 0 0 0 0-2Z" fill="black"></path><path d="M28 23a1 1 0 0 0 0 2h7a1 1 0 0 0 0-2Z" fill="black"></path><path d="M38 23a1 1 0 0 0 0 2h7a1 1 0 0 0 0-2Z" fill="black"></path><path d="M26 47H19a1 1 0 0 0 0 2h7a1 1 0 0 0 0-2Z" fill="black"></path><path d="M36 47H29a1 1 0 0 0 0 2h7a1 1 0 0 0 0-2Z" fill="black"></path><path d="M46 47H39a1 1 0 0 0 0 2h7a1 1 0 0 0 0-2Z" fill="black"></path><path d="M56 47H49a1 1 0 0 0 0 2h7a1 1 0 0 0 0-2Z" fill="black"></path><path d="M54 31H50a3 3 0 0 0-3 3v5a3 3 0 0 0 3 3h4a3 3 0 0 0 3-3V34A3 3 0 0 0 54 31Zm1 8a1 1 0 0 1-1 1H50a1 1 0 0 1-1-1V34a1 1 0 0 1 1-1h4a1 1 0 0 1 1 1Z" fill="black"></path></g></svg></g></svg></g><g></g></svg></g></svg></g></svg></g></svg></g><defs><mask></mask></defs></svg><rect width="320" height="360" fill="black" stroke="none" visibility="hidden"></rect></g></mask><mask><g id="SvgjsG1638"><svg viewBox="0 0 320 360" height="360" width="320"><g><svg></svg></g><g><svg viewBox="0 0 320 360" height="360" width="320"><g><path transform="translate(-74.99272,-51.79039) scale(4.65793,4.65793)" d="M20.6 59.9l0.8 1-0.4-1.3c-0.1-0.6-0.8 0.1-0.4 0.3M21.5 59.3c0.3 0.5 0.6 1 0.6 1.5 0 0.7 0.6 1 1.1 1.2-0.7-0.8-1.1-3-1.7-2.7M59.9 16.9c1.7 0 3.3-0.2 5.1 0.2 4.4 1.1 8.1 3.3 10.6 6.4l7 11.2c0.3 2.8 0.9 5.9 0.8 9.3 0.7 0 0.6-1 1.4-1.2-0.8 2-1.2 4.5-1.4 7.4-0.5-1.6 0-4 0.1-5.3-0.7 1.1-1.1 0.3-1.1-0.2 0.1-0.8-0.3-0.7-0.6-1-1.1-1-1.8-2.1-2.6-3.8 0.5-1.3 0.6-3.2-1-4.2-0.5-0.3-1.1-0.8-1.4-1.6-0.4-1.1-1.1-2.4-0.9-4.1 0.1-0.5-1.5 1.1-2.4 0.4-3.9-2.7-7.8-5.8-12.5-8.4-2.5 0-4.3-0.9-5.2-2-0.8-1-0.2-2.3 1-2.4 0.7 0 1.5-0.2 2.1 0.2 0.1-0.4 0.5-0.9 1-0.9M50 14.6l0.2 0.1c1 0.2 1.5 1.6 2.6 1.1 0 0.7 0.1 1.4-0.1 1.9-0.3 0.8-1.2 0.8-1.9 0.8-6.7-0.4-10.6 2.4-14.7 4.8-1.1 0.7-2.3 1.2-3.2 2.1-4.3 4-9 7.7-10.1 15.1l-0.9 8.2c-0.1 0.9-1.1 1.8-0.9 2.9l0.7 4.9c-0.7-0.7-1.1 0.2-0.9 0.6 0.1 0.3 0.5 1.3 1.1 0.4 0.8 1.5 1.6 4.4 2.7 5.7 3.4 4 7.8 7.6 11.4 11.2 0.9-0.2 1.6-0.2 1.8-0.8 0.3 0.6-0.3 1.2-0.8 1.3 1.6 1 3.4 1.9 5.8 2.1 3.1 0.2 6 0.7 8.7 1.4 1.4-0.4 2.8-0.6 4.3-0.7 0.5 0 0.8-0.8 1.4-1l0.1-1c0.6 0.9 0.5-0.3 0.1-0.9 0.7 0.6 0.9 1.1 1.2 1.5 0-0.3 0.8-1.4 0.8-0.1l0.2-1.3c0.3-0.2 0.4 1.1 0.7 0.2 0.3-0.9 0.9-0.2 1.5-0.5-0.2 0.4-0.1 1.2 0.6 0.7l0.8-0.7c0.5 1.2 1.3 0.7 1.7 0.5 4.4-2.8 8.8-6.1 13-9.4l-0.1 1.3 0.5-1.6c0.5 0.5 0.9 0.1 1.1-0.2 0.6-1 1.4-2 2.7-2.9-1.6 4.3-3.5 7.7-5.9 10.5l-1 1.2c0 0.7-0.2 1.6-1 1.7-0.4 0.1-1.2-0.2-1.8 0.4-0.3 0.4 0.7 1.2-0.1 0.6-0.7-0.5-1.4 0-2.2 0.2-0.6 0.2 0.4 0.8 0.6 1.2 0.2 0.4 0.4 0.8 0.3 1.3l-1.1-1.2c-1.3 0.7-2.1 2-3.2 3-0.5 0.4-0.3 1.1-0.3 1.7-0.7 0-1.5-0.2-1.9 0.2-0.3 0.4-0.2 1-0.2 1.6-1-0.1-1.1-1.6-2-1.3-0.9 0.2-1.9 0.3-2.7 0.8 0.6 1.2-1 0.5-0.8 0.7-1.5-0.9-2.8-1.6-4.4-1-3.4-1.1-7.6-0.6-10.7-0.2 0-0.5 0.1-1-0.1-1.1-0.2 0.5-0.8 0.3-0.7 0.3-1.9-1.3-3.8-2.1-5.8-3.2-1.8 0.2-3.5-0.7-4-1.2-1.4-1.3-3-0.6-4.3-0.9-2.8-0.7-3.8-3.6-4.1-5.6-0.2-1-1-1.4-1.3-1.3-1.3-4.2-3.3-8-4.9-11.9-0.4-1-0.3-2-0.3-3.1 0.5 0.2 1 0.1 0.9-0.6-0.5-3.3-1.7-5.8-3-8.2 0.7-3.4 0.8-7.4 2.4-10.4 1.4-2.7 4-4.1 5.8-6.4 0.6-0.8 0.6-1.9 1.2-2.6 2-2 4-4.1 6.2-5.9 1-0.8 2.2 0 3.7-0.3 0.5-1.8 2.5-3.4 4.4-2.9 0.8 0.2 2.4-1.9 2.9-2.1 0.8-0.3 0.4 0.8 0.4 1.5 1.9-1.5 4.5-2.3 6.9-3.2" fill="black" fill-rule="nonzero" stroke="none" stroke-width="1" stroke-linecap="butt" stroke-linejoin="miter" stroke-miterlimit="10" stroke-dasharray="" stroke-dashoffset="0" font-family="none" font-weight="none" font-size="none" text-anchor="none" style="mix-blend-mode: normal"></path></g><g transform="matrix(1,0,0,1,71.18863088872291,90)"><svg viewBox="0 0 177.62273822255418 180" height="180" width="177.62273822255418"><g><svg viewBox="0 0 177.62273822255418 180" height="180" width="177.62273822255418"><g><svg viewBox="0 0 192 194.56968373439727" height="180" width="177.62273822255418"><g transform="matrix(1,0,0,1,0,114.04075811456256)"><svg viewBox="0 0 192 80.52892561983471" height="80.52892561983471" width="192"><g id="SvgjsG1637"><svg viewBox="0 0 192 80.52892561983471" height="80.52892561983471" width="192" id="SvgjsSvg1636"><g><svg viewBox="0 0 192 80.52892561983471" height="80.52892561983471" width="192"><g transform="matrix(1,0,0,1,0,0)"><svg width="192" viewBox="0.15 -9.35 24.200000000000003 10.15" height="80.52892561983471" data-palette-color="url(#68e7994d-8da3-44fc-89d4-040cafa93f07)"></svg></g></svg></g></svg></g></svg></g><g transform="matrix(1,0,0,1,36.672,0)"><svg viewBox="0 0 118.656 102.2896551724138" height="102.2896551724138" width="118.656"><g><svg xmlns="http://www.w3.org/2000/svg" viewBox="3 7 58 50" x="0" y="0" height="102.2896551724138" width="118.656" class="icon-icon-0" data-fill-palette-color="accent" id="SvgjsSvg1635"><g fill="black"><path d="M12 35H6a1 1 0 0 1-1-1V20H48v5a1 1 0 0 0 2 0V10a3 3 0 0 0-3-3H6a3 3 0 0 0-3 3V34a3 3 0 0 0 3 3h6a1 1 0 0 0 0-2ZM5 18V14H48v4Zm0-8A1 1 0 0 1 6 9H47a1 1 0 0 1 1 1v2H5Z" fill="black"></path><path d="M58 27H17a3 3 0 0 0-3 3V54a3 3 0 0 0 3 3H58a3 3 0 0 0 3-3V30A3 3 0 0 0 58 27Zm1 27a1 1 0 0 1-1 1H17a1 1 0 0 1-1-1V30a1 1 0 0 1 1-1H58a1 1 0 0 1 1 1Z" fill="black"></path><path d="M8 23a1 1 0 0 0 0 2h7a1 1 0 0 0 0-2Z" fill="black"></path><path d="M18 23a1 1 0 0 0 0 2h7a1 1 0 0 0 0-2Z" fill="black"></path><path d="M28 23a1 1 0 0 0 0 2h7a1 1 0 0 0 0-2Z" fill="black"></path><path d="M38 23a1 1 0 0 0 0 2h7a1 1 0 0 0 0-2Z" fill="black"></path><path d="M26 47H19a1 1 0 0 0 0 2h7a1 1 0 0 0 0-2Z" fill="black"></path><path d="M36 47H29a1 1 0 0 0 0 2h7a1 1 0 0 0 0-2Z" fill="black"></path><path d="M46 47H39a1 1 0 0 0 0 2h7a1 1 0 0 0 0-2Z" fill="black"></path><path d="M56 47H49a1 1 0 0 0 0 2h7a1 1 0 0 0 0-2Z" fill="black"></path><path d="M54 31H50a3 3 0 0 0-3 3v5a3 3 0 0 0 3 3h4a3 3 0 0 0 3-3V34A3 3 0 0 0 54 31Zm1 8a1 1 0 0 1-1 1H50a1 1 0 0 1-1-1V34a1 1 0 0 1 1-1h4a1 1 0 0 1 1 1Z" fill="black"></path></g></svg></g></svg></g><g></g></svg></g></svg></g></svg></g></svg></g><defs><mask></mask></defs><mask><g id="SvgjsG1634"><svg viewBox="0 0 320 360" height="360" width="320"><g><svg></svg></g><g><svg viewBox="0 0 320 360" height="360" width="320"><g><path transform="translate(-74.99272,-51.79039) scale(4.65793,4.65793)" d="M20.6 59.9l0.8 1-0.4-1.3c-0.1-0.6-0.8 0.1-0.4 0.3M21.5 59.3c0.3 0.5 0.6 1 0.6 1.5 0 0.7 0.6 1 1.1 1.2-0.7-0.8-1.1-3-1.7-2.7M59.9 16.9c1.7 0 3.3-0.2 5.1 0.2 4.4 1.1 8.1 3.3 10.6 6.4l7 11.2c0.3 2.8 0.9 5.9 0.8 9.3 0.7 0 0.6-1 1.4-1.2-0.8 2-1.2 4.5-1.4 7.4-0.5-1.6 0-4 0.1-5.3-0.7 1.1-1.1 0.3-1.1-0.2 0.1-0.8-0.3-0.7-0.6-1-1.1-1-1.8-2.1-2.6-3.8 0.5-1.3 0.6-3.2-1-4.2-0.5-0.3-1.1-0.8-1.4-1.6-0.4-1.1-1.1-2.4-0.9-4.1 0.1-0.5-1.5 1.1-2.4 0.4-3.9-2.7-7.8-5.8-12.5-8.4-2.5 0-4.3-0.9-5.2-2-0.8-1-0.2-2.3 1-2.4 0.7 0 1.5-0.2 2.1 0.2 0.1-0.4 0.5-0.9 1-0.9M50 14.6l0.2 0.1c1 0.2 1.5 1.6 2.6 1.1 0 0.7 0.1 1.4-0.1 1.9-0.3 0.8-1.2 0.8-1.9 0.8-6.7-0.4-10.6 2.4-14.7 4.8-1.1 0.7-2.3 1.2-3.2 2.1-4.3 4-9 7.7-10.1 15.1l-0.9 8.2c-0.1 0.9-1.1 1.8-0.9 2.9l0.7 4.9c-0.7-0.7-1.1 0.2-0.9 0.6 0.1 0.3 0.5 1.3 1.1 0.4 0.8 1.5 1.6 4.4 2.7 5.7 3.4 4 7.8 7.6 11.4 11.2 0.9-0.2 1.6-0.2 1.8-0.8 0.3 0.6-0.3 1.2-0.8 1.3 1.6 1 3.4 1.9 5.8 2.1 3.1 0.2 6 0.7 8.7 1.4 1.4-0.4 2.8-0.6 4.3-0.7 0.5 0 0.8-0.8 1.4-1l0.1-1c0.6 0.9 0.5-0.3 0.1-0.9 0.7 0.6 0.9 1.1 1.2 1.5 0-0.3 0.8-1.4 0.8-0.1l0.2-1.3c0.3-0.2 0.4 1.1 0.7 0.2 0.3-0.9 0.9-0.2 1.5-0.5-0.2 0.4-0.1 1.2 0.6 0.7l0.8-0.7c0.5 1.2 1.3 0.7 1.7 0.5 4.4-2.8 8.8-6.1 13-9.4l-0.1 1.3 0.5-1.6c0.5 0.5 0.9 0.1 1.1-0.2 0.6-1 1.4-2 2.7-2.9-1.6 4.3-3.5 7.7-5.9 10.5l-1 1.2c0 0.7-0.2 1.6-1 1.7-0.4 0.1-1.2-0.2-1.8 0.4-0.3 0.4 0.7 1.2-0.1 0.6-0.7-0.5-1.4 0-2.2 0.2-0.6 0.2 0.4 0.8 0.6 1.2 0.2 0.4 0.4 0.8 0.3 1.3l-1.1-1.2c-1.3 0.7-2.1 2-3.2 3-0.5 0.4-0.3 1.1-0.3 1.7-0.7 0-1.5-0.2-1.9 0.2-0.3 0.4-0.2 1-0.2 1.6-1-0.1-1.1-1.6-2-1.3-0.9 0.2-1.9 0.3-2.7 0.8 0.6 1.2-1 0.5-0.8 0.7-1.5-0.9-2.8-1.6-4.4-1-3.4-1.1-7.6-0.6-10.7-0.2 0-0.5 0.1-1-0.1-1.1-0.2 0.5-0.8 0.3-0.7 0.3-1.9-1.3-3.8-2.1-5.8-3.2-1.8 0.2-3.5-0.7-4-1.2-1.4-1.3-3-0.6-4.3-0.9-2.8-0.7-3.8-3.6-4.1-5.6-0.2-1-1-1.4-1.3-1.3-1.3-4.2-3.3-8-4.9-11.9-0.4-1-0.3-2-0.3-3.1 0.5 0.2 1 0.1 0.9-0.6-0.5-3.3-1.7-5.8-3-8.2 0.7-3.4 0.8-7.4 2.4-10.4 1.4-2.7 4-4.1 5.8-6.4 0.6-0.8 0.6-1.9 1.2-2.6 2-2 4-4.1 6.2-5.9 1-0.8 2.2 0 3.7-0.3 0.5-1.8 2.5-3.4 4.4-2.9 0.8 0.2 2.4-1.9 2.9-2.1 0.8-0.3 0.4 0.8 0.4 1.5 1.9-1.5 4.5-2.3 6.9-3.2" fill="black" fill-rule="nonzero" stroke="none" stroke-width="1" stroke-linecap="butt" stroke-linejoin="miter" stroke-miterlimit="10" stroke-dasharray="" stroke-dashoffset="0" font-family="none" font-weight="none" font-size="none" text-anchor="none" style="mix-blend-mode: normal"></path></g><g transform="matrix(1,0,0,1,71.18863088872291,90)"><svg viewBox="0 0 177.62273822255418 180" height="180" width="177.62273822255418"><g><svg viewBox="0 0 177.62273822255418 180" height="180" width="177.62273822255418"><g><svg viewBox="0 0 192 194.56968373439727" height="180" width="177.62273822255418"><g transform="matrix(1,0,0,1,0,114.04075811456256)"><svg viewBox="0 0 192 80.52892561983471" height="80.52892561983471" width="192"><g id="SvgjsG1633"><svg viewBox="0 0 192 80.52892561983471" height="80.52892561983471" width="192" id="SvgjsSvg1632"><g><svg viewBox="0 0 192 80.52892561983471" height="80.52892561983471" width="192"><g transform="matrix(1,0,0,1,0,0)"><svg width="192" viewBox="0.15 -9.35 24.200000000000003 10.15" height="80.52892561983471" data-palette-color="url(#68e7994d-8da3-44fc-89d4-040cafa93f07)"><path d="M3.25 0.8L3.25 0.8Q2.85 0.55 2.85 0.55L2.85 0.55Q2.8 0.55 2.78 0.6 2.75 0.65 2.7 0.65L2.7 0.65Q2.65 0.65 2.55 0.6 2.45 0.55 2.4 0.55L2.4 0.55 1.95 0.55 1.95 0.4Q1.45 0.2 1.2 0.03 0.95-0.15 0.6-0.5L0.6-0.5 0.15-1.75Q0.35-1.9 0.35-2.1L0.35-2.1Q0.35-2.15 0.25-2.35 0.15-2.55 0.15-2.6L0.15-2.6Q0.15-2.7 0.2-3.18 0.25-3.65 0.7-4.45L0.7-4.45 1.35-5.65Q1.55-5.85 1.75-6.13 1.95-6.4 2.3-6.65L2.3-6.65Q2.45-6.7 3.2-7.5L3.2-7.5 3.95-8.1Q4.15-8.15 4.45-8.6L4.45-8.6Q5.1-8.85 5.15-8.9L5.15-8.9Q5.15-8.95 5.15-8.95L5.15-8.95 5.1-8.95Q5.1-8.95 5.15-8.95L5.15-8.95Q5.15-8.95 5.15-8.9L5.15-8.9Q5.2-8.9 5.25-8.8L5.25-8.8 5.7-9.15 6.15-9.15Q6.25-9.15 6.55-9.25 6.85-9.35 6.9-9.35L6.9-9.35Q7.05-9.35 7.25-9.15L7.25-9.15 7.75-9.15 7.75-8.95 8.25-8.7Q8.65-8.15 8.75-8.15L8.75-8.15Q8.75-7.7 8.9-7L8.9-7Q8.65-6.85 8.45-6.5L8.45-6.5 8.3-6.5Q8.2-6.5 8.08-6.6 7.95-6.7 7.9-6.7L7.9-6.7Q7.95-6.65 7.75-6.6L7.75-6.6Q7.7-6.65 7.6-6.73 7.5-6.8 7.5-6.85L7.5-6.85 7.25-6.75Q7.2-6.75 6.93-6.88 6.65-7 6.6-7L6.6-7Q6.55-7 6.53-6.93 6.5-6.85 6.45-6.85L6.45-6.85Q6.35-6.85 6.4-6.9L6.4-6.9 6.35-6.9Q6.35-6.9 6.25-6.8L6.25-6.8 5.55-6.6Q5.45-6.55 5.3-6.43 5.15-6.3 4.9-6.2L4.9-6.2 4.75-6.2 4.75-6.5Q4.85-6.55 5-6.65 5.15-6.75 5.35-6.85L5.35-6.85 5.35-6.95Q5.1-7.2 4.95-7.2L4.95-7.2Q4.45-7.2 3.75-6.5L3.75-6.5Q3.7-6.5 3.55-6.4 3.4-6.3 3.05-5.9L3.05-5.9Q2.95-5.9 2.9-5.85L2.9-5.85Q1.9-4.7 1.95-4.5L1.95-4.5Q1.9-4.45 1.8-4.15L1.8-4.15 1.6-4.05Q1.7-3.9 1.6-3.6L1.6-3.6 1.1-2.55Q1.1-2.2 0.8-1.75L0.8-1.75Q0.85-1.7 0.88-1.63 0.9-1.55 1.05-1.5L1.05-1.5Q1.2-1.25 1.45-0.75 1.7-0.25 1.85-0.25L1.85-0.25Q1.85-0.3 2-0.35L2-0.35Q2-0.2 2.05-0.1L2.05-0.1 2.3 0.05Q2.35 0.05 2.38 0 2.4-0.05 2.45-0.05L2.45-0.05Q2.45-0.05 2.65 0.05L2.65 0.05 3.4 0.05Q3.4 0.15 3.5 0.15L3.5 0.15Q3.55 0.15 3.58 0.1 3.6 0.05 3.65 0.05L3.65 0.05Q3.7 0.05 3.78 0.1 3.85 0.15 3.9 0.15L3.9 0.15Q4 0.15 4.23 0 4.45-0.15 4.5-0.15L4.5-0.15 4.6-0.15Q4.6-0.1 4.65-0.1L4.65-0.1 5.35-0.25Q5.5-0.3 5.73-0.43 5.95-0.55 6-0.55L6-0.55Q6.1-0.55 6.08-0.5 6.05-0.45 6.15-0.45L6.15-0.45Q6-0.5 6.65-0.85L6.65-0.85 7.6-1.2Q7.9-1.4 8.2-1.7L8.2-1.7 8.95-2.05Q9.1-2.1 9.95-2.8L9.95-2.8 10.4-3 10.65-3.3Q10.8-3.3 10.85-3.35L10.85-3.35 12.4-4.85Q12.5-4.85 12.6-4.9L12.6-4.9Q12.6-4.9 12.7-5 12.8-5.1 13.1-5.3L13.1-5.3Q13.1-5.15 13-5.05L13-5.05Q12.8-4.95 12.55-4.7 12.3-4.45 12.05-4.1L12.05-4.1Q11.85-3.9 11.53-3.55 11.2-3.2 10.7-2.8L10.7-2.8 8.45-1.3Q8.1-1.1 7.85-1 7.6-0.9 7.45-0.85L7.45-0.85 7.1-0.5Q6.35-0.3 5.98-0.08 5.6 0.15 5.4 0.15L5.4 0.15 5.35 0.15Q5.35 0.1 5.3 0.1L5.3 0.1Q5.3 0.1 5.1 0.23 4.9 0.35 4.45 0.4L4.45 0.4Q4.4 0.4 4.4 0.55L4.4 0.55Q4.1 0.45 4.1 0.45L4.1 0.45Q4.05 0.45 3.9 0.55 3.75 0.65 3.7 0.65L3.7 0.65 3.6 0.65Q3.6 0.6 3.55 0.6L3.55 0.6Q3.3 0.6 3.25 0.8ZM14.5 0.8L14.5 0.8Q14.1 0.55 14.1 0.55L14.1 0.55Q14.05 0.55 14.02 0.6 14 0.65 13.95 0.65L13.95 0.65Q13.9 0.65 13.8 0.6 13.7 0.55 13.65 0.55L13.65 0.55 13.2 0.55 13.2 0.4Q12.7 0.2 12.45 0.03 12.2-0.15 11.85-0.5L11.85-0.5 11.4-1.75Q11.6-1.9 11.6-2.1L11.6-2.1Q11.6-2.15 11.5-2.35 11.4-2.55 11.4-2.6L11.4-2.6Q11.4-2.7 11.45-3.18 11.5-3.65 11.95-4.45L11.95-4.45 12.6-5.65Q12.8-5.85 13-6.13 13.2-6.4 13.55-6.65L13.55-6.65Q13.7-6.7 14.45-7.5L14.45-7.5 15.2-8.1Q15.4-8.15 15.7-8.6L15.7-8.6Q16.35-8.85 16.4-8.9L16.4-8.9Q16.4-8.95 16.4-8.95L16.4-8.95 16.35-8.95Q16.35-8.95 16.4-8.95L16.4-8.95Q16.4-8.95 16.4-8.9L16.4-8.9Q16.45-8.9 16.5-8.8L16.5-8.8 16.95-9.15 17.4-9.15Q17.5-9.15 17.8-9.25 18.1-9.35 18.15-9.35L18.15-9.35Q18.3-9.35 18.5-9.15L18.5-9.15 19-9.15 19-8.95 19.5-8.7Q19.9-8.15 20-8.15L20-8.15Q20-7.7 20.15-7L20.15-7Q19.9-6.85 19.7-6.5L19.7-6.5 19.55-6.5Q19.45-6.5 19.32-6.6 19.2-6.7 19.15-6.7L19.15-6.7Q19.2-6.65 19-6.6L19-6.6Q18.95-6.65 18.85-6.73 18.75-6.8 18.75-6.85L18.75-6.85 18.5-6.75Q18.45-6.75 18.17-6.88 17.9-7 17.85-7L17.85-7Q17.8-7 17.77-6.93 17.75-6.85 17.7-6.85L17.7-6.85Q17.6-6.85 17.65-6.9L17.65-6.9 17.6-6.9Q17.6-6.9 17.5-6.8L17.5-6.8 16.8-6.6Q16.7-6.55 16.55-6.43 16.4-6.3 16.15-6.2L16.15-6.2 16-6.2 16-6.5Q16.1-6.55 16.25-6.65 16.4-6.75 16.6-6.85L16.6-6.85 16.6-6.95Q16.35-7.2 16.2-7.2L16.2-7.2Q15.7-7.2 15-6.5L15-6.5Q14.95-6.5 14.8-6.4 14.65-6.3 14.3-5.9L14.3-5.9Q14.2-5.9 14.15-5.85L14.15-5.85Q13.15-4.7 13.2-4.5L13.2-4.5Q13.15-4.45 13.05-4.15L13.05-4.15 12.85-4.05Q12.95-3.9 12.85-3.6L12.85-3.6 12.35-2.55Q12.35-2.2 12.05-1.75L12.05-1.75Q12.1-1.7 12.12-1.63 12.15-1.55 12.3-1.5L12.3-1.5Q12.45-1.25 12.7-0.75 12.95-0.25 13.1-0.25L13.1-0.25Q13.1-0.3 13.25-0.35L13.25-0.35Q13.25-0.2 13.3-0.1L13.3-0.1 13.55 0.05Q13.6 0.05 13.62 0 13.65-0.05 13.7-0.05L13.7-0.05Q13.7-0.05 13.9 0.05L13.9 0.05 14.65 0.05Q14.65 0.15 14.75 0.15L14.75 0.15Q14.8 0.15 14.82 0.1 14.85 0.05 14.9 0.05L14.9 0.05Q14.95 0.05 15.02 0.1 15.1 0.15 15.15 0.15L15.15 0.15Q15.25 0.15 15.47 0 15.7-0.15 15.75-0.15L15.75-0.15 15.85-0.15Q15.85-0.1 15.9-0.1L15.9-0.1 16.6-0.25Q16.75-0.3 16.97-0.43 17.2-0.55 17.25-0.55L17.25-0.55Q17.35-0.55 17.32-0.5 17.3-0.45 17.4-0.45L17.4-0.45Q17.25-0.5 17.9-0.85L17.9-0.85 18.85-1.2Q19.15-1.4 19.45-1.7L19.45-1.7 20.2-2.05Q20.35-2.1 21.2-2.8L21.2-2.8 21.65-3 21.9-3.3Q22.05-3.3 22.1-3.35L22.1-3.35 23.65-4.85Q23.75-4.85 23.85-4.9L23.85-4.9Q23.85-4.9 23.95-5 24.05-5.1 24.35-5.3L24.35-5.3Q24.35-5.15 24.25-5.05L24.25-5.05Q24.05-4.95 23.8-4.7 23.55-4.45 23.3-4.1L23.3-4.1Q23.1-3.9 22.77-3.55 22.45-3.2 21.95-2.8L21.95-2.8 19.7-1.3Q19.35-1.1 19.1-1 18.85-0.9 18.7-0.85L18.7-0.85 18.35-0.5Q17.6-0.3 17.22-0.08 16.85 0.15 16.65 0.15L16.65 0.15 16.6 0.15Q16.6 0.1 16.55 0.1L16.55 0.1Q16.55 0.1 16.35 0.23 16.15 0.35 15.7 0.4L15.7 0.4Q15.65 0.4 15.65 0.55L15.65 0.55Q15.35 0.45 15.35 0.45L15.35 0.45Q15.3 0.45 15.15 0.55 15 0.65 14.95 0.65L14.95 0.65 14.85 0.65Q14.85 0.6 14.8 0.6L14.8 0.6Q14.55 0.6 14.5 0.8Z" opacity="1" transform="matrix(1,0,0,1,0,0)" fill="black" class="wordmark-text-0" id="SvgjsPath1631"></path></svg></g></svg></g></svg></g></svg></g><g transform="matrix(1,0,0,1,36.672,0)"><svg viewBox="0 0 118.656 102.2896551724138" height="102.2896551724138" width="118.656"><g><svg xmlns="http://www.w3.org/2000/svg" viewBox="3 7 58 50" x="0" y="0" height="102.2896551724138" width="118.656" class="icon-icon-0" data-fill-palette-color="accent" id="SvgjsSvg1630"><g fill="black"><path d="M12 35H6a1 1 0 0 1-1-1V20H48v5a1 1 0 0 0 2 0V10a3 3 0 0 0-3-3H6a3 3 0 0 0-3 3V34a3 3 0 0 0 3 3h6a1 1 0 0 0 0-2ZM5 18V14H48v4Zm0-8A1 1 0 0 1 6 9H47a1 1 0 0 1 1 1v2H5Z" fill="black"></path><path d="M58 27H17a3 3 0 0 0-3 3V54a3 3 0 0 0 3 3H58a3 3 0 0 0 3-3V30A3 3 0 0 0 58 27Zm1 27a1 1 0 0 1-1 1H17a1 1 0 0 1-1-1V30a1 1 0 0 1 1-1H58a1 1 0 0 1 1 1Z" fill="black"></path><path d="M8 23a1 1 0 0 0 0 2h7a1 1 0 0 0 0-2Z" fill="black"></path><path d="M18 23a1 1 0 0 0 0 2h7a1 1 0 0 0 0-2Z" fill="black"></path><path d="M28 23a1 1 0 0 0 0 2h7a1 1 0 0 0 0-2Z" fill="black"></path><path d="M38 23a1 1 0 0 0 0 2h7a1 1 0 0 0 0-2Z" fill="black"></path><path d="M26 47H19a1 1 0 0 0 0 2h7a1 1 0 0 0 0-2Z" fill="black"></path><path d="M36 47H29a1 1 0 0 0 0 2h7a1 1 0 0 0 0-2Z" fill="black"></path><path d="M46 47H39a1 1 0 0 0 0 2h7a1 1 0 0 0 0-2Z" fill="black"></path><path d="M56 47H49a1 1 0 0 0 0 2h7a1 1 0 0 0 0-2Z" fill="black"></path><path d="M54 31H50a3 3 0 0 0-3 3v5a3 3 0 0 0 3 3h4a3 3 0 0 0 3-3V34A3 3 0 0 0 54 31Zm1 8a1 1 0 0 1-1 1H50a1 1 0 0 1-1-1V34a1 1 0 0 1 1-1h4a1 1 0 0 1 1 1Z" fill="black"></path></g></svg></g></svg></g><g></g></svg></g></svg></g></svg></g></svg></g><defs><mask></mask></defs></svg><rect width="320" height="360" fill="black" stroke="none" visibility="hidden"></rect></g></mask></svg><rect width="320" height="360" fill="black" stroke="none" visibility="hidden"></rect></g></mask></svg><rect width="320" height="360" fill="black" stroke="none" visibility="hidden"></rect></g></mask><linearGradient x1="0" x2="1" y1="0.578" y2="0.595" id="db28e4e9-04bd-4feb-8cf6-593cf414cc65"><stop stop-color="#6ee2f5" offset="0"></stop><stop stop-color="#6454f0" offset="1"></stop></linearGradient></svg><rect width="320" height="360" fill="none" stroke="none" visibility="hidden"></rect></g></svg></g></svg>