<?xml version="1.0" encoding="UTF-8"?>
<svg version="1.1" viewBox="0 0 2000 2250" xmlns="http://www.w3.org/2000/svg">
<g transform="translate(.0005875)">
<svg width="2e3" height="2250" data-background-color="#000000" viewBox="0 0 320 360" xmlns="http://www.w3.org/2000/svg" xmlns:xlink="http://www.w3.org/1999/xlink">
<g transform="translate(-4.7e-5)">
<svg width="320" height="360" viewBox="0 0 320 360">
<rect width="320" height="360" fill="url(#a)" mask="url(#b)" data-fill-palette-color="tertiary"/>
<svg/>
<svg width="320" height="360" viewBox="0 0 320 360">
<path transform="translate(-74.993 -51.79) scale(4.6579)" d="m20.6 59.9 0.8 1-0.4-1.3c-0.1-0.6-0.8 0.1-0.4 0.3m0.9-0.6c0.3 0.5 0.6 1 0.6 1.5 0 0.7 0.6 1 1.1 1.2-0.7-0.8-1.1-3-1.7-2.7m38.4-42.4c1.7 0 3.3-0.2 5.1 0.2 4.4 1.1 8.1 3.3 10.6 6.4l7 11.2c0.3 2.8 0.9 5.9 0.8 9.3 0.7 0 0.6-1 1.4-1.2-0.8 2-1.2 4.5-1.4 7.4-0.5-1.6 0-4 0.1-5.3-0.7 1.1-1.1 0.3-1.1-0.2 0.1-0.8-0.3-0.7-0.6-1-1.1-1-1.8-2.1-2.6-3.8 0.5-1.3 0.6-3.2-1-4.2-0.5-0.3-1.1-0.8-1.4-1.6-0.4-1.1-1.1-2.4-0.9-4.1 0.1-0.5-1.5 1.1-2.4 0.4-3.9-2.7-7.8-5.8-12.5-8.4-2.5 0-4.3-0.9-5.2-2-0.8-1-0.2-2.3 1-2.4 0.7 0 1.5-0.2 2.1 0.2 0.1-0.4 0.5-0.9 1-0.9m-9.9-2.3 0.2 0.1c1 0.2 1.5 1.6 2.6 1.1 0 0.7 0.1 1.4-0.1 1.9-0.3 0.8-1.2 0.8-1.9 0.8-6.7-0.4-10.6 2.4-14.7 4.8-1.1 0.7-2.3 1.2-3.2 2.1-4.3 4-9 7.7-10.1 15.1l-0.9 8.2c-0.1 0.9-1.1 1.8-0.9 2.9l0.7 4.9c-0.7-0.7-1.1 0.2-0.9 0.6 0.1 0.3 0.5 1.3 1.1 0.4 0.8 1.5 1.6 4.4 2.7 5.7 3.4 4 7.8 7.6 11.4 11.2 0.9-0.2 1.6-0.2 1.8-0.8 0.3 0.6-0.3 1.2-0.8 1.3 1.6 1 3.4 1.9 5.8 2.1 3.1 0.2 6 0.7 8.7 1.4 1.4-0.4 2.8-0.6 4.3-0.7 0.5 0 0.8-0.8 1.4-1l0.1-1c0.6 0.9 0.5-0.3 0.1-0.9 0.7 0.6 0.9 1.1 1.2 1.5 0-0.3 0.8-1.4 0.8-0.1l0.2-1.3c0.3-0.2 0.4 1.1 0.7 0.2s0.9-0.2 1.5-0.5c-0.2 0.4-0.1 1.2 0.6 0.7l0.8-0.7c0.5 1.2 1.3 0.7 1.7 0.5 4.4-2.8 8.8-6.1 13-9.4l-0.1 1.3 0.5-1.6c0.5 0.5 0.9 0.1 1.1-0.2 0.6-1 1.4-2 2.7-2.9-1.6 4.3-3.5 7.7-5.9 10.5l-1 1.2c0 0.7-0.2 1.6-1 1.7-0.4 0.1-1.2-0.2-1.8 0.4-0.3 0.4 0.7 1.2-0.1 0.6-0.7-0.5-1.4 0-2.2 0.2-0.6 0.2 0.4 0.8 0.6 1.2s0.4 0.8 0.3 1.3l-1.1-1.2c-1.3 0.7-2.1 2-3.2 3-0.5 0.4-0.3 1.1-0.3 1.7-0.7 0-1.5-0.2-1.9 0.2-0.3 0.4-0.2 1-0.2 1.6-1-0.1-1.1-1.6-2-1.3-0.9 0.2-1.9 0.3-2.7 0.8 0.6 1.2-1 0.5-0.8 0.7-1.5-0.9-2.8-1.6-4.4-1-3.4-1.1-7.6-0.6-10.7-0.2 0-0.5 0.1-1-0.1-1.1-0.2 0.5-0.8 0.3-0.7 0.3-1.9-1.3-3.8-2.1-5.8-3.2-1.8 0.2-3.5-0.7-4-1.2-1.4-1.3-3-0.6-4.3-0.9-2.8-0.7-3.8-3.6-4.1-5.6-0.2-1-1-1.4-1.3-1.3-1.3-4.2-3.3-8-4.9-11.9-0.4-1-0.3-2-0.3-3.1 0.5 0.2 1 0.1 0.9-0.6-0.5-3.3-1.7-5.8-3-8.2 0.7-3.4 0.8-7.4 2.4-10.4 1.4-2.7 4-4.1 5.8-6.4 0.6-0.8 0.6-1.9 1.2-2.6 2-2 4-4.1 6.2-5.9 1-0.8 2.2 0 3.7-0.3 0.5-1.8 2.5-3.4 4.4-2.9 0.8 0.2 2.4-1.9 2.9-2.1 0.8-0.3 0.4 0.8 0.4 1.5 1.9-1.5 4.5-2.3 6.9-3.2" fill="url(#a)" font-family="none" font-size="none" font-weight="none" stroke-dasharray="" stroke-miterlimit="10" text-anchor="none" style="mix-blend-mode:normal" data-fill-palette-color="tertiary"/>
<g transform="translate(71.189 90)">
<svg width="177.62" height="180" viewBox="0 0 177.62273822255418 180">
<svg width="177.62" height="180" viewBox="0 0 177.62273822255418 180">
<svg width="177.62" height="180" viewBox="0 0 192 194.56968373439727">
<g transform="translate(0 114.04)">
<svg width="192" height="80.529" viewBox="0 0 192 80.52892561983471">
<svg width="192" height="80.529" viewBox="0 0 192 80.52892561983471">
<svg width="192" height="80.529" viewBox="0 0 192 80.52892561983471">
<g>
<svg width="192" height="80.529" data-palette-color="url(#68e7994d-8da3-44fc-89d4-040cafa93f07)" viewBox="0.15 -9.35 24.200000000000003 10.15"/>
</g>
</svg>
</svg>
</svg>
</g>
<g transform="translate(36.672)">
<svg width="118.66" height="102.29" viewBox="0 0 118.656 102.2896551724138">
<svg class="icon-icon-0" width="118.66" height="102.29" data-fill-palette-color="accent" viewBox="3 7 58 50" xmlns="http://www.w3.org/2000/svg"/>
</svg>
</g>
</svg>
</svg>
</svg>
</g>
</svg>
<mask id="c">
<svg width="320" height="360" viewBox="0 0 320 360">
<svg/>
<svg width="320" height="360" viewBox="0 0 320 360">
<path transform="translate(-74.993 -51.79) scale(4.6579)" d="m20.6 59.9 0.8 1-0.4-1.3c-0.1-0.6-0.8 0.1-0.4 0.3m0.9-0.6c0.3 0.5 0.6 1 0.6 1.5 0 0.7 0.6 1 1.1 1.2-0.7-0.8-1.1-3-1.7-2.7m38.4-42.4c1.7 0 3.3-0.2 5.1 0.2 4.4 1.1 8.1 3.3 10.6 6.4l7 11.2c0.3 2.8 0.9 5.9 0.8 9.3 0.7 0 0.6-1 1.4-1.2-0.8 2-1.2 4.5-1.4 7.4-0.5-1.6 0-4 0.1-5.3-0.7 1.1-1.1 0.3-1.1-0.2 0.1-0.8-0.3-0.7-0.6-1-1.1-1-1.8-2.1-2.6-3.8 0.5-1.3 0.6-3.2-1-4.2-0.5-0.3-1.1-0.8-1.4-1.6-0.4-1.1-1.1-2.4-0.9-4.1 0.1-0.5-1.5 1.1-2.4 0.4-3.9-2.7-7.8-5.8-12.5-8.4-2.5 0-4.3-0.9-5.2-2-0.8-1-0.2-2.3 1-2.4 0.7 0 1.5-0.2 2.1 0.2 0.1-0.4 0.5-0.9 1-0.9m-9.9-2.3 0.2 0.1c1 0.2 1.5 1.6 2.6 1.1 0 0.7 0.1 1.4-0.1 1.9-0.3 0.8-1.2 0.8-1.9 0.8-6.7-0.4-10.6 2.4-14.7 4.8-1.1 0.7-2.3 1.2-3.2 2.1-4.3 4-9 7.7-10.1 15.1l-0.9 8.2c-0.1 0.9-1.1 1.8-0.9 2.9l0.7 4.9c-0.7-0.7-1.1 0.2-0.9 0.6 0.1 0.3 0.5 1.3 1.1 0.4 0.8 1.5 1.6 4.4 2.7 5.7 3.4 4 7.8 7.6 11.4 11.2 0.9-0.2 1.6-0.2 1.8-0.8 0.3 0.6-0.3 1.2-0.8 1.3 1.6 1 3.4 1.9 5.8 2.1 3.1 0.2 6 0.7 8.7 1.4 1.4-0.4 2.8-0.6 4.3-0.7 0.5 0 0.8-0.8 1.4-1l0.1-1c0.6 0.9 0.5-0.3 0.1-0.9 0.7 0.6 0.9 1.1 1.2 1.5 0-0.3 0.8-1.4 0.8-0.1l0.2-1.3c0.3-0.2 0.4 1.1 0.7 0.2s0.9-0.2 1.5-0.5c-0.2 0.4-0.1 1.2 0.6 0.7l0.8-0.7c0.5 1.2 1.3 0.7 1.7 0.5 4.4-2.8 8.8-6.1 13-9.4l-0.1 1.3 0.5-1.6c0.5 0.5 0.9 0.1 1.1-0.2 0.6-1 1.4-2 2.7-2.9-1.6 4.3-3.5 7.7-5.9 10.5l-1 1.2c0 0.7-0.2 1.6-1 1.7-0.4 0.1-1.2-0.2-1.8 0.4-0.3 0.4 0.7 1.2-0.1 0.6-0.7-0.5-1.4 0-2.2 0.2-0.6 0.2 0.4 0.8 0.6 1.2s0.4 0.8 0.3 1.3l-1.1-1.2c-1.3 0.7-2.1 2-3.2 3-0.5 0.4-0.3 1.1-0.3 1.7-0.7 0-1.5-0.2-1.9 0.2-0.3 0.4-0.2 1-0.2 1.6-1-0.1-1.1-1.6-2-1.3-0.9 0.2-1.9 0.3-2.7 0.8 0.6 1.2-1 0.5-0.8 0.7-1.5-0.9-2.8-1.6-4.4-1-3.4-1.1-7.6-0.6-10.7-0.2 0-0.5 0.1-1-0.1-1.1-0.2 0.5-0.8 0.3-0.7 0.3-1.9-1.3-3.8-2.1-5.8-3.2-1.8 0.2-3.5-0.7-4-1.2-1.4-1.3-3-0.6-4.3-0.9-2.8-0.7-3.8-3.6-4.1-5.6-0.2-1-1-1.4-1.3-1.3-1.3-4.2-3.3-8-4.9-11.9-0.4-1-0.3-2-0.3-3.1 0.5 0.2 1 0.1 0.9-0.6-0.5-3.3-1.7-5.8-3-8.2 0.7-3.4 0.8-7.4 2.4-10.4 1.4-2.7 4-4.1 5.8-6.4 0.6-0.8 0.6-1.9 1.2-2.6 2-2 4-4.1 6.2-5.9 1-0.8 2.2 0 3.7-0.3 0.5-1.8 2.5-3.4 4.4-2.9 0.8 0.2 2.4-1.9 2.9-2.1 0.8-0.3 0.4 0.8 0.4 1.5 1.9-1.5 4.5-2.3 6.9-3.2" font-family="none" font-size="none" font-weight="none" stroke-dasharray="" stroke-miterlimit="10" text-anchor="none" style="mix-blend-mode:normal"/>
<g transform="translate(71.189 90)">
<svg width="177.62" height="180" viewBox="0 0 177.62273822255418 180">
<svg width="177.62" height="180" viewBox="0 0 177.62273822255418 180">
<svg width="177.62" height="180" viewBox="0 0 192 194.56968373439727">
<g transform="translate(0 114.04)">
<svg width="192" height="80.529" viewBox="0 0 192 80.52892561983471">
<svg width="192" height="80.529" viewBox="0 0 192 80.52892561983471">
<svg width="192" height="80.529" viewBox="0 0 192 80.52892561983471">
<g>
<svg width="192" height="80.529" data-palette-color="url(#68e7994d-8da3-44fc-89d4-040cafa93f07)" viewBox="0.15 -9.35 24.200000000000003 10.15">
<path class="wordmark-text-0" d="m3.25 0.8q-0.4-0.25-0.4-0.25-0.05 0-0.07 0.05-0.03 0.05-0.08 0.05t-0.15-0.05-0.15-0.05h-0.45v-0.15q-0.5-0.2-0.75-0.37-0.25-0.18-0.6-0.53l-0.45-1.25q0.2-0.15 0.2-0.35 0-0.05-0.1-0.25t-0.1-0.25q0-0.1 0.05-0.58 0.05-0.47 0.5-1.27l0.65-1.2q0.2-0.2 0.4-0.48 0.2-0.27 0.55-0.52 0.15-0.05 0.9-0.85l0.75-0.6q0.2-0.05 0.5-0.5 0.65-0.25 0.7-0.3 0-0.05 0-0.05h-0.05t0.05 0q0 0 0 0.05 0.05 0 0.1 0.1l0.45-0.35h0.45q0.1 0 0.4-0.1t0.35-0.1q0.15 0 0.35 0.2h0.5v0.2l0.5 0.25q0.4 0.55 0.5 0.55 0 0.45 0.15 1.15-0.25 0.15-0.45 0.5h-0.15q-0.1 0-0.22-0.1-0.13-0.1-0.18-0.1 0.05 0.05-0.15 0.1-0.05-0.05-0.15-0.13-0.1-0.07-0.1-0.12l-0.25 0.1q-0.05 0-0.32-0.13-0.28-0.12-0.33-0.12t-0.07 0.07q-0.03 0.08-0.08 0.08-0.1 0-0.05-0.05h-0.05t-0.1 0.1l-0.7 0.2q-0.1 0.05-0.25 0.17-0.15 0.13-0.4 0.23h-0.15v-0.3q0.1-0.05 0.25-0.15t0.35-0.2v-0.1q-0.25-0.25-0.4-0.25-0.5 0-1.2 0.7-0.05 0-0.2 0.1t-0.5 0.5q-0.1 0-0.15 0.05-1 1.15-0.95 1.35-0.05 0.05-0.15 0.35l-0.2 0.1q0.1 0.15 0 0.45l-0.5 1.05q0 0.35-0.3 0.8 0.05 0.05 0.08 0.12 0.02 0.08 0.17 0.13 0.15 0.25 0.4 0.75t0.4 0.5q0-0.05 0.15-0.1 0 0.15 0.05 0.25l0.25 0.15q0.05 0 0.08-0.05 0.02-0.05 0.07-0.05 0 0 0.2 0.1h0.75q0 0.1 0.1 0.1 0.05 0 0.08-0.05 0.02-0.05 0.07-0.05t0.13 0.05q0.07 0.05 0.12 0.05 0.1 0 0.33-0.15 0.22-0.15 0.27-0.15h0.1q0 0.05 0.05 0.05l0.7-0.15q0.15-0.05 0.38-0.18 0.22-0.12 0.27-0.12 0.1 0 0.08 0.05-0.03 0.05 0.07 0.05-0.15-0.05 0.5-0.4l0.95-0.35q0.3-0.2 0.6-0.5l0.75-0.35q0.15-0.05 1-0.75l0.45-0.2 0.25-0.3q0.15 0 0.2-0.05l1.55-1.5q0.1 0 0.2-0.05 0 0 0.1-0.1t0.4-0.3q0 0.15-0.1 0.25-0.2 0.1-0.45 0.35t-0.5 0.6q-0.2 0.2-0.52 0.55-0.33 0.35-0.83 0.75l-2.25 1.5q-0.35 0.2-0.6 0.3t-0.4 0.15l-0.35 0.35q-0.75 0.2-1.12 0.42-0.38 0.23-0.58 0.23h-0.05q0-0.05-0.05-0.05 0 0-0.2 0.13-0.2 0.12-0.65 0.17-0.05 0-0.05 0.15-0.3-0.1-0.3-0.1-0.05 0-0.2 0.1t-0.2 0.1h-0.1q0-0.05-0.05-0.05-0.25 0-0.3 0.2zm11.25 0q-0.4-0.25-0.4-0.25-0.05 0-0.08 0.05-0.02 0.05-0.07 0.05t-0.15-0.05-0.15-0.05h-0.45v-0.15q-0.5-0.2-0.75-0.37-0.25-0.18-0.6-0.53l-0.45-1.25q0.2-0.15 0.2-0.35 0-0.05-0.1-0.25t-0.1-0.25q0-0.1 0.05-0.58 0.05-0.47 0.5-1.27l0.65-1.2q0.2-0.2 0.4-0.48 0.2-0.27 0.55-0.52 0.15-0.05 0.9-0.85l0.75-0.6q0.2-0.05 0.5-0.5 0.65-0.25 0.7-0.3 0-0.05 0-0.05h-0.05t0.05 0q0 0 0 0.05 0.05 0 0.1 0.1l0.45-0.35h0.45q0.1 0 0.4-0.1t0.35-0.1q0.15 0 0.35 0.2h0.5v0.2l0.5 0.25q0.4 0.55 0.5 0.55 0 0.45 0.15 1.15-0.25 0.15-0.45 0.5h-0.15q-0.1 0-0.23-0.1-0.12-0.1-0.17-0.1 0.05 0.05-0.15 0.1-0.05-0.05-0.15-0.13-0.1-0.07-0.1-0.12l-0.25 0.1q-0.05 0-0.33-0.13-0.27-0.12-0.32-0.12t-0.08 0.07q-0.02 0.08-0.07 0.08-0.1 0-0.05-0.05h-0.05t-0.1 0.1l-0.7 0.2q-0.1 0.05-0.25 0.17-0.15 0.13-0.4 0.23h-0.15v-0.3q0.1-0.05 0.25-0.15t0.35-0.2v-0.1q-0.25-0.25-0.4-0.25-0.5 0-1.2 0.7-0.05 0-0.2 0.1t-0.5 0.5q-0.1 0-0.15 0.05-1 1.15-0.95 1.35-0.05 0.05-0.15 0.35l-0.2 0.1q0.1 0.15 0 0.45l-0.5 1.05q0 0.35-0.3 0.8 0.05 0.05 0.07 0.12 0.03 0.08 0.18 0.13 0.15 0.25 0.4 0.75t0.4 0.5q0-0.05 0.15-0.1 0 0.15 0.05 0.25l0.25 0.15q0.05 0 0.07-0.05 0.03-0.05 0.08-0.05 0 0 0.2 0.1h0.75q0 0.1 0.1 0.1 0.05 0 0.07-0.05 0.03-0.05 0.08-0.05t0.12 0.05q0.08 0.05 0.13 0.05 0.1 0 0.32-0.15 0.23-0.15 0.28-0.15h0.1q0 0.05 0.05 0.05l0.7-0.15q0.15-0.05 0.37-0.18 0.23-0.12 0.28-0.12 0.1 0 0.07 0.05-0.02 0.05 0.08 0.05-0.15-0.05 0.5-0.4l0.95-0.35q0.3-0.2 0.6-0.5l0.75-0.35q0.15-0.05 1-0.75l0.45-0.2 0.25-0.3q0.15 0 0.2-0.05l1.55-1.5q0.1 0 0.2-0.05 0 0 0.1-0.1t0.4-0.3q0 0.15-0.1 0.25-0.2 0.1-0.45 0.35t-0.5 0.6q-0.2 0.2-0.53 0.55-0.32 0.35-0.82 0.75l-2.25 1.5q-0.35 0.2-0.6 0.3t-0.4 0.15l-0.35 0.35q-0.75 0.2-1.13 0.42-0.37 0.23-0.57 0.23h-0.05q0-0.05-0.05-0.05 0 0-0.2 0.13-0.2 0.12-0.65 0.17-0.05 0-0.05 0.15-0.3-0.1-0.3-0.1-0.05 0-0.2 0.1t-0.2 0.1h-0.1q0-0.05-0.05-0.05-0.25 0-0.3 0.2z" fill="#fff"/>
</svg>
</g>
</svg>
</svg>
</svg>
</g>
<g transform="translate(36.672)">
<svg width="118.66" height="102.29" viewBox="0 0 118.656 102.2896551724138">
<svg class="icon-icon-0" width="118.66" height="102.29" data-fill-palette-color="accent" viewBox="3 7 58 50" xmlns="http://www.w3.org/2000/svg">
<path d="M12 35H6a1 1 0 0 1-1-1V20H48v5a1 1 0 0 0 2 0V10a3 3 0 0 0-3-3H6a3 3 0 0 0-3 3V34a3 3 0 0 0 3 3h6a1 1 0 0 0 0-2ZM5 18V14H48v4Zm0-8A1 1 0 0 1 6 9H47a1 1 0 0 1 1 1v2H5Z"/>
<path d="M58 27H17a3 3 0 0 0-3 3V54a3 3 0 0 0 3 3H58a3 3 0 0 0 3-3V30A3 3 0 0 0 58 27Zm1 27a1 1 0 0 1-1 1H17a1 1 0 0 1-1-1V30a1 1 0 0 1 1-1H58a1 1 0 0 1 1 1Z"/>
<path d="m8 23a1 1 0 0 0 0 2h7a1 1 0 0 0 0-2z"/>
<path d="m18 23a1 1 0 0 0 0 2h7a1 1 0 0 0 0-2z"/>
<path d="m28 23a1 1 0 0 0 0 2h7a1 1 0 0 0 0-2z"/>
<path d="m38 23a1 1 0 0 0 0 2h7a1 1 0 0 0 0-2z"/>
<path d="m26 47h-7a1 1 0 0 0 0 2h7a1 1 0 0 0 0-2z"/>
<path d="m36 47h-7a1 1 0 0 0 0 2h7a1 1 0 0 0 0-2z"/>
<path d="m46 47h-7a1 1 0 0 0 0 2h7a1 1 0 0 0 0-2z"/>
<path d="m56 47h-7a1 1 0 0 0 0 2h7a1 1 0 0 0 0-2z"/>
<path d="m54 31h-4a3 3 0 0 0-3 3v5a3 3 0 0 0 3 3h4a3 3 0 0 0 3-3v-5a3 3 0 0 0-3-3zm1 8a1 1 0 0 1-1 1h-4a1 1 0 0 1-1-1v-5a1 1 0 0 1 1-1h4a1 1 0 0 1 1 1z"/>
</svg>
</svg>
</g>
</svg>
</svg>
</svg>
</g>
</svg>
</svg>
<rect width="320" height="360" visibility="hidden"/>
</mask>
<linearGradient id="a" y1=".578" y2=".595">
<stop stop-color="#6ee2f5" offset="0"/>
<stop stop-color="#6454f0" offset="1"/>
</linearGradient>
<rect width="320" height="360" fill="url(#a)" mask="url(#c)" data-fill-palette-color="primary"/>
<mask id="d">
<svg width="320" height="360" viewBox="0 0 320 360">
<svg/>
<svg width="320" height="360" viewBox="0 0 320 360">
<path transform="translate(-74.993 -51.79) scale(4.6579)" d="m20.6 59.9 0.8 1-0.4-1.3c-0.1-0.6-0.8 0.1-0.4 0.3m0.9-0.6c0.3 0.5 0.6 1 0.6 1.5 0 0.7 0.6 1 1.1 1.2-0.7-0.8-1.1-3-1.7-2.7m38.4-42.4c1.7 0 3.3-0.2 5.1 0.2 4.4 1.1 8.1 3.3 10.6 6.4l7 11.2c0.3 2.8 0.9 5.9 0.8 9.3 0.7 0 0.6-1 1.4-1.2-0.8 2-1.2 4.5-1.4 7.4-0.5-1.6 0-4 0.1-5.3-0.7 1.1-1.1 0.3-1.1-0.2 0.1-0.8-0.3-0.7-0.6-1-1.1-1-1.8-2.1-2.6-3.8 0.5-1.3 0.6-3.2-1-4.2-0.5-0.3-1.1-0.8-1.4-1.6-0.4-1.1-1.1-2.4-0.9-4.1 0.1-0.5-1.5 1.1-2.4 0.4-3.9-2.7-7.8-5.8-12.5-8.4-2.5 0-4.3-0.9-5.2-2-0.8-1-0.2-2.3 1-2.4 0.7 0 1.5-0.2 2.1 0.2 0.1-0.4 0.5-0.9 1-0.9m-9.9-2.3 0.2 0.1c1 0.2 1.5 1.6 2.6 1.1 0 0.7 0.1 1.4-0.1 1.9-0.3 0.8-1.2 0.8-1.9 0.8-6.7-0.4-10.6 2.4-14.7 4.8-1.1 0.7-2.3 1.2-3.2 2.1-4.3 4-9 7.7-10.1 15.1l-0.9 8.2c-0.1 0.9-1.1 1.8-0.9 2.9l0.7 4.9c-0.7-0.7-1.1 0.2-0.9 0.6 0.1 0.3 0.5 1.3 1.1 0.4 0.8 1.5 1.6 4.4 2.7 5.7 3.4 4 7.8 7.6 11.4 11.2 0.9-0.2 1.6-0.2 1.8-0.8 0.3 0.6-0.3 1.2-0.8 1.3 1.6 1 3.4 1.9 5.8 2.1 3.1 0.2 6 0.7 8.7 1.4 1.4-0.4 2.8-0.6 4.3-0.7 0.5 0 0.8-0.8 1.4-1l0.1-1c0.6 0.9 0.5-0.3 0.1-0.9 0.7 0.6 0.9 1.1 1.2 1.5 0-0.3 0.8-1.4 0.8-0.1l0.2-1.3c0.3-0.2 0.4 1.1 0.7 0.2s0.9-0.2 1.5-0.5c-0.2 0.4-0.1 1.2 0.6 0.7l0.8-0.7c0.5 1.2 1.3 0.7 1.7 0.5 4.4-2.8 8.8-6.1 13-9.4l-0.1 1.3 0.5-1.6c0.5 0.5 0.9 0.1 1.1-0.2 0.6-1 1.4-2 2.7-2.9-1.6 4.3-3.5 7.7-5.9 10.5l-1 1.2c0 0.7-0.2 1.6-1 1.7-0.4 0.1-1.2-0.2-1.8 0.4-0.3 0.4 0.7 1.2-0.1 0.6-0.7-0.5-1.4 0-2.2 0.2-0.6 0.2 0.4 0.8 0.6 1.2s0.4 0.8 0.3 1.3l-1.1-1.2c-1.3 0.7-2.1 2-3.2 3-0.5 0.4-0.3 1.1-0.3 1.7-0.7 0-1.5-0.2-1.9 0.2-0.3 0.4-0.2 1-0.2 1.6-1-0.1-1.1-1.6-2-1.3-0.9 0.2-1.9 0.3-2.7 0.8 0.6 1.2-1 0.5-0.8 0.7-1.5-0.9-2.8-1.6-4.4-1-3.4-1.1-7.6-0.6-10.7-0.2 0-0.5 0.1-1-0.1-1.1-0.2 0.5-0.8 0.3-0.7 0.3-1.9-1.3-3.8-2.1-5.8-3.2-1.8 0.2-3.5-0.7-4-1.2-1.4-1.3-3-0.6-4.3-0.9-2.8-0.7-3.8-3.6-4.1-5.6-0.2-1-1-1.4-1.3-1.3-1.3-4.2-3.3-8-4.9-11.9-0.4-1-0.3-2-0.3-3.1 0.5 0.2 1 0.1 0.9-0.6-0.5-3.3-1.7-5.8-3-8.2 0.7-3.4 0.8-7.4 2.4-10.4 1.4-2.7 4-4.1 5.8-6.4 0.6-0.8 0.6-1.9 1.2-2.6 2-2 4-4.1 6.2-5.9 1-0.8 2.2 0 3.7-0.3 0.5-1.8 2.5-3.4 4.4-2.9 0.8 0.2 2.4-1.9 2.9-2.1 0.8-0.3 0.4 0.8 0.4 1.5 1.9-1.5 4.5-2.3 6.9-3.2" font-family="none" font-size="none" font-weight="none" stroke-dasharray="" stroke-miterlimit="10" text-anchor="none" style="mix-blend-mode:normal"/>
<g transform="translate(71.189 90)">
<svg width="177.62" height="180" viewBox="0 0 177.62273822255418 180">
<svg width="177.62" height="180" viewBox="0 0 177.62273822255418 180">
<svg width="177.62" height="180" viewBox="0 0 192 194.56968373439727">
<g transform="translate(0 114.04)">
<svg width="192" height="80.529" viewBox="0 0 192 80.52892561983471">
<svg width="192" height="80.529" viewBox="0 0 192 80.52892561983471">
<svg width="192" height="80.529" viewBox="0 0 192 80.52892561983471">
<g>
<svg width="192" height="80.529" data-palette-color="url(#68e7994d-8da3-44fc-89d4-040cafa93f07)" viewBox="0.15 -9.35 24.200000000000003 10.15"/>
</g>
</svg>
</svg>
</svg>
</g>
<g transform="translate(36.672)">
<svg width="118.66" height="102.29" viewBox="0 0 118.656 102.2896551724138">
<svg class="icon-icon-0" width="118.66" height="102.29" data-fill-palette-color="accent" viewBox="3 7 58 50" xmlns="http://www.w3.org/2000/svg">
<path d="M12 35H6a1 1 0 0 1-1-1V20H48v5a1 1 0 0 0 2 0V10a3 3 0 0 0-3-3H6a3 3 0 0 0-3 3V34a3 3 0 0 0 3 3h6a1 1 0 0 0 0-2ZM5 18V14H48v4Zm0-8A1 1 0 0 1 6 9H47a1 1 0 0 1 1 1v2H5Z" fill="#fff"/>
<path d="M58 27H17a3 3 0 0 0-3 3V54a3 3 0 0 0 3 3H58a3 3 0 0 0 3-3V30A3 3 0 0 0 58 27Zm1 27a1 1 0 0 1-1 1H17a1 1 0 0 1-1-1V30a1 1 0 0 1 1-1H58a1 1 0 0 1 1 1Z" fill="#fff"/>
<path d="m8 23a1 1 0 0 0 0 2h7a1 1 0 0 0 0-2z" fill="#fff"/>
<path d="m18 23a1 1 0 0 0 0 2h7a1 1 0 0 0 0-2z" fill="#fff"/>
<path d="m28 23a1 1 0 0 0 0 2h7a1 1 0 0 0 0-2z" fill="#fff"/>
<path d="m38 23a1 1 0 0 0 0 2h7a1 1 0 0 0 0-2z" fill="#fff"/>
<path d="m26 47h-7a1 1 0 0 0 0 2h7a1 1 0 0 0 0-2z" fill="#fff"/>
<path d="m36 47h-7a1 1 0 0 0 0 2h7a1 1 0 0 0 0-2z" fill="#fff"/>
<path d="m46 47h-7a1 1 0 0 0 0 2h7a1 1 0 0 0 0-2z" fill="#fff"/>
<path d="m56 47h-7a1 1 0 0 0 0 2h7a1 1 0 0 0 0-2z" fill="#fff"/>
<path d="m54 31h-4a3 3 0 0 0-3 3v5a3 3 0 0 0 3 3h4a3 3 0 0 0 3-3v-5a3 3 0 0 0-3-3zm1 8a1 1 0 0 1-1 1h-4a1 1 0 0 1-1-1v-5a1 1 0 0 1 1-1h4a1 1 0 0 1 1 1z" fill="#fff"/>
</svg>
</svg>
</g>
</svg>
</svg>
</svg>
</g>
</svg>
<mask>
<svg width="320" height="360" viewBox="0 0 320 360">
<svg/>
<svg width="320" height="360" viewBox="0 0 320 360">
<path transform="translate(-74.993 -51.79) scale(4.6579)" d="m20.6 59.9 0.8 1-0.4-1.3c-0.1-0.6-0.8 0.1-0.4 0.3m0.9-0.6c0.3 0.5 0.6 1 0.6 1.5 0 0.7 0.6 1 1.1 1.2-0.7-0.8-1.1-3-1.7-2.7m38.4-42.4c1.7 0 3.3-0.2 5.1 0.2 4.4 1.1 8.1 3.3 10.6 6.4l7 11.2c0.3 2.8 0.9 5.9 0.8 9.3 0.7 0 0.6-1 1.4-1.2-0.8 2-1.2 4.5-1.4 7.4-0.5-1.6 0-4 0.1-5.3-0.7 1.1-1.1 0.3-1.1-0.2 0.1-0.8-0.3-0.7-0.6-1-1.1-1-1.8-2.1-2.6-3.8 0.5-1.3 0.6-3.2-1-4.2-0.5-0.3-1.1-0.8-1.4-1.6-0.4-1.1-1.1-2.4-0.9-4.1 0.1-0.5-1.5 1.1-2.4 0.4-3.9-2.7-7.8-5.8-12.5-8.4-2.5 0-4.3-0.9-5.2-2-0.8-1-0.2-2.3 1-2.4 0.7 0 1.5-0.2 2.1 0.2 0.1-0.4 0.5-0.9 1-0.9m-9.9-2.3 0.2 0.1c1 0.2 1.5 1.6 2.6 1.1 0 0.7 0.1 1.4-0.1 1.9-0.3 0.8-1.2 0.8-1.9 0.8-6.7-0.4-10.6 2.4-14.7 4.8-1.1 0.7-2.3 1.2-3.2 2.1-4.3 4-9 7.7-10.1 15.1l-0.9 8.2c-0.1 0.9-1.1 1.8-0.9 2.9l0.7 4.9c-0.7-0.7-1.1 0.2-0.9 0.6 0.1 0.3 0.5 1.3 1.1 0.4 0.8 1.5 1.6 4.4 2.7 5.7 3.4 4 7.8 7.6 11.4 11.2 0.9-0.2 1.6-0.2 1.8-0.8 0.3 0.6-0.3 1.2-0.8 1.3 1.6 1 3.4 1.9 5.8 2.1 3.1 0.2 6 0.7 8.7 1.4 1.4-0.4 2.8-0.6 4.3-0.7 0.5 0 0.8-0.8 1.4-1l0.1-1c0.6 0.9 0.5-0.3 0.1-0.9 0.7 0.6 0.9 1.1 1.2 1.5 0-0.3 0.8-1.4 0.8-0.1l0.2-1.3c0.3-0.2 0.4 1.1 0.7 0.2s0.9-0.2 1.5-0.5c-0.2 0.4-0.1 1.2 0.6 0.7l0.8-0.7c0.5 1.2 1.3 0.7 1.7 0.5 4.4-2.8 8.8-6.1 13-9.4l-0.1 1.3 0.5-1.6c0.5 0.5 0.9 0.1 1.1-0.2 0.6-1 1.4-2 2.7-2.9-1.6 4.3-3.5 7.7-5.9 10.5l-1 1.2c0 0.7-0.2 1.6-1 1.7-0.4 0.1-1.2-0.2-1.8 0.4-0.3 0.4 0.7 1.2-0.1 0.6-0.7-0.5-1.4 0-2.2 0.2-0.6 0.2 0.4 0.8 0.6 1.2s0.4 0.8 0.3 1.3l-1.1-1.2c-1.3 0.7-2.1 2-3.2 3-0.5 0.4-0.3 1.1-0.3 1.7-0.7 0-1.5-0.2-1.9 0.2-0.3 0.4-0.2 1-0.2 1.6-1-0.1-1.1-1.6-2-1.3-0.9 0.2-1.9 0.3-2.7 0.8 0.6 1.2-1 0.5-0.8 0.7-1.5-0.9-2.8-1.6-4.4-1-3.4-1.1-7.6-0.6-10.7-0.2 0-0.5 0.1-1-0.1-1.1-0.2 0.5-0.8 0.3-0.7 0.3-1.9-1.3-3.8-2.1-5.8-3.2-1.8 0.2-3.5-0.7-4-1.2-1.4-1.3-3-0.6-4.3-0.9-2.8-0.7-3.8-3.6-4.1-5.6-0.2-1-1-1.4-1.3-1.3-1.3-4.2-3.3-8-4.9-11.9-0.4-1-0.3-2-0.3-3.1 0.5 0.2 1 0.1 0.9-0.6-0.5-3.3-1.7-5.8-3-8.2 0.7-3.4 0.8-7.4 2.4-10.4 1.4-2.7 4-4.1 5.8-6.4 0.6-0.8 0.6-1.9 1.2-2.6 2-2 4-4.1 6.2-5.9 1-0.8 2.2 0 3.7-0.3 0.5-1.8 2.5-3.4 4.4-2.9 0.8 0.2 2.4-1.9 2.9-2.1 0.8-0.3 0.4 0.8 0.4 1.5 1.9-1.5 4.5-2.3 6.9-3.2" font-family="none" font-size="none" font-weight="none" stroke-dasharray="" stroke-miterlimit="10" text-anchor="none" style="mix-blend-mode:normal"/>
<g transform="translate(71.189 90)">
<svg width="177.62" height="180" viewBox="0 0 177.62273822255418 180">
<svg width="177.62" height="180" viewBox="0 0 177.62273822255418 180">
<svg width="177.62" height="180" viewBox="0 0 192 194.56968373439727">
<g transform="translate(0 114.04)">
<svg width="192" height="80.529" viewBox="0 0 192 80.52892561983471">
<svg width="192" height="80.529" viewBox="0 0 192 80.52892561983471">
<svg width="192" height="80.529" viewBox="0 0 192 80.52892561983471">
<g>
<svg width="192" height="80.529" data-palette-color="url(#68e7994d-8da3-44fc-89d4-040cafa93f07)" viewBox="0.15 -9.35 24.200000000000003 10.15">
<path class="wordmark-text-0" d="m3.25 0.8q-0.4-0.25-0.4-0.25-0.05 0-0.07 0.05-0.03 0.05-0.08 0.05t-0.15-0.05-0.15-0.05h-0.45v-0.15q-0.5-0.2-0.75-0.37-0.25-0.18-0.6-0.53l-0.45-1.25q0.2-0.15 0.2-0.35 0-0.05-0.1-0.25t-0.1-0.25q0-0.1 0.05-0.58 0.05-0.47 0.5-1.27l0.65-1.2q0.2-0.2 0.4-0.48 0.2-0.27 0.55-0.52 0.15-0.05 0.9-0.85l0.75-0.6q0.2-0.05 0.5-0.5 0.65-0.25 0.7-0.3 0-0.05 0-0.05h-0.05t0.05 0q0 0 0 0.05 0.05 0 0.1 0.1l0.45-0.35h0.45q0.1 0 0.4-0.1t0.35-0.1q0.15 0 0.35 0.2h0.5v0.2l0.5 0.25q0.4 0.55 0.5 0.55 0 0.45 0.15 1.15-0.25 0.15-0.45 0.5h-0.15q-0.1 0-0.22-0.1-0.13-0.1-0.18-0.1 0.05 0.05-0.15 0.1-0.05-0.05-0.15-0.13-0.1-0.07-0.1-0.12l-0.25 0.1q-0.05 0-0.32-0.13-0.28-0.12-0.33-0.12t-0.07 0.07q-0.03 0.08-0.08 0.08-0.1 0-0.05-0.05h-0.05t-0.1 0.1l-0.7 0.2q-0.1 0.05-0.25 0.17-0.15 0.13-0.4 0.23h-0.15v-0.3q0.1-0.05 0.25-0.15t0.35-0.2v-0.1q-0.25-0.25-0.4-0.25-0.5 0-1.2 0.7-0.05 0-0.2 0.1t-0.5 0.5q-0.1 0-0.15 0.05-1 1.15-0.95 1.35-0.05 0.05-0.15 0.35l-0.2 0.1q0.1 0.15 0 0.45l-0.5 1.05q0 0.35-0.3 0.8 0.05 0.05 0.08 0.12 0.02 0.08 0.17 0.13 0.15 0.25 0.4 0.75t0.4 0.5q0-0.05 0.15-0.1 0 0.15 0.05 0.25l0.25 0.15q0.05 0 0.08-0.05 0.02-0.05 0.07-0.05 0 0 0.2 0.1h0.75q0 0.1 0.1 0.1 0.05 0 0.08-0.05 0.02-0.05 0.07-0.05t0.13 0.05q0.07 0.05 0.12 0.05 0.1 0 0.33-0.15 0.22-0.15 0.27-0.15h0.1q0 0.05 0.05 0.05l0.7-0.15q0.15-0.05 0.38-0.18 0.22-0.12 0.27-0.12 0.1 0 0.08 0.05-0.03 0.05 0.07 0.05-0.15-0.05 0.5-0.4l0.95-0.35q0.3-0.2 0.6-0.5l0.75-0.35q0.15-0.05 1-0.75l0.45-0.2 0.25-0.3q0.15 0 0.2-0.05l1.55-1.5q0.1 0 0.2-0.05 0 0 0.1-0.1t0.4-0.3q0 0.15-0.1 0.25-0.2 0.1-0.45 0.35t-0.5 0.6q-0.2 0.2-0.52 0.55-0.33 0.35-0.83 0.75l-2.25 1.5q-0.35 0.2-0.6 0.3t-0.4 0.15l-0.35 0.35q-0.75 0.2-1.12 0.42-0.38 0.23-0.58 0.23h-0.05q0-0.05-0.05-0.05 0 0-0.2 0.13-0.2 0.12-0.65 0.17-0.05 0-0.05 0.15-0.3-0.1-0.3-0.1-0.05 0-0.2 0.1t-0.2 0.1h-0.1q0-0.05-0.05-0.05-0.25 0-0.3 0.2zm11.25 0q-0.4-0.25-0.4-0.25-0.05 0-0.08 0.05-0.02 0.05-0.07 0.05t-0.15-0.05-0.15-0.05h-0.45v-0.15q-0.5-0.2-0.75-0.37-0.25-0.18-0.6-0.53l-0.45-1.25q0.2-0.15 0.2-0.35 0-0.05-0.1-0.25t-0.1-0.25q0-0.1 0.05-0.58 0.05-0.47 0.5-1.27l0.65-1.2q0.2-0.2 0.4-0.48 0.2-0.27 0.55-0.52 0.15-0.05 0.9-0.85l0.75-0.6q0.2-0.05 0.5-0.5 0.65-0.25 0.7-0.3 0-0.05 0-0.05h-0.05t0.05 0q0 0 0 0.05 0.05 0 0.1 0.1l0.45-0.35h0.45q0.1 0 0.4-0.1t0.35-0.1q0.15 0 0.35 0.2h0.5v0.2l0.5 0.25q0.4 0.55 0.5 0.55 0 0.45 0.15 1.15-0.25 0.15-0.45 0.5h-0.15q-0.1 0-0.23-0.1-0.12-0.1-0.17-0.1 0.05 0.05-0.15 0.1-0.05-0.05-0.15-0.13-0.1-0.07-0.1-0.12l-0.25 0.1q-0.05 0-0.33-0.13-0.27-0.12-0.32-0.12t-0.08 0.07q-0.02 0.08-0.07 0.08-0.1 0-0.05-0.05h-0.05t-0.1 0.1l-0.7 0.2q-0.1 0.05-0.25 0.17-0.15 0.13-0.4 0.23h-0.15v-0.3q0.1-0.05 0.25-0.15t0.35-0.2v-0.1q-0.25-0.25-0.4-0.25-0.5 0-1.2 0.7-0.05 0-0.2 0.1t-0.5 0.5q-0.1 0-0.15 0.05-1 1.15-0.95 1.35-0.05 0.05-0.15 0.35l-0.2 0.1q0.1 0.15 0 0.45l-0.5 1.05q0 0.35-0.3 0.8 0.05 0.05 0.07 0.12 0.03 0.08 0.18 0.13 0.15 0.25 0.4 0.75t0.4 0.5q0-0.05 0.15-0.1 0 0.15 0.05 0.25l0.25 0.15q0.05 0 0.07-0.05 0.03-0.05 0.08-0.05 0 0 0.2 0.1h0.75q0 0.1 0.1 0.1 0.05 0 0.07-0.05 0.03-0.05 0.08-0.05t0.12 0.05q0.08 0.05 0.13 0.05 0.1 0 0.32-0.15 0.23-0.15 0.28-0.15h0.1q0 0.05 0.05 0.05l0.7-0.15q0.15-0.05 0.37-0.18 0.23-0.12 0.28-0.12 0.1 0 0.07 0.05-0.02 0.05 0.08 0.05-0.15-0.05 0.5-0.4l0.95-0.35q0.3-0.2 0.6-0.5l0.75-0.35q0.15-0.05 1-0.75l0.45-0.2 0.25-0.3q0.15 0 0.2-0.05l1.55-1.5q0.1 0 0.2-0.05 0 0 0.1-0.1t0.4-0.3q0 0.15-0.1 0.25-0.2 0.1-0.45 0.35t-0.5 0.6q-0.2 0.2-0.53 0.55-0.32 0.35-0.82 0.75l-2.25 1.5q-0.35 0.2-0.6 0.3t-0.4 0.15l-0.35 0.35q-0.75 0.2-1.13 0.42-0.37 0.23-0.57 0.23h-0.05q0-0.05-0.05-0.05 0 0-0.2 0.13-0.2 0.12-0.65 0.17-0.05 0-0.05 0.15-0.3-0.1-0.3-0.1-0.05 0-0.2 0.1t-0.2 0.1h-0.1q0-0.05-0.05-0.05-0.25 0-0.3 0.2z"/>
</svg>
</g>
</svg>
</svg>
</svg>
</g>
<g transform="translate(36.672)">
<svg width="118.66" height="102.29" viewBox="0 0 118.656 102.2896551724138">
<svg class="icon-icon-0" width="118.66" height="102.29" data-fill-palette-color="accent" viewBox="3 7 58 50" xmlns="http://www.w3.org/2000/svg">
<path d="M12 35H6a1 1 0 0 1-1-1V20H48v5a1 1 0 0 0 2 0V10a3 3 0 0 0-3-3H6a3 3 0 0 0-3 3V34a3 3 0 0 0 3 3h6a1 1 0 0 0 0-2ZM5 18V14H48v4Zm0-8A1 1 0 0 1 6 9H47a1 1 0 0 1 1 1v2H5Z"/>
<path d="M58 27H17a3 3 0 0 0-3 3V54a3 3 0 0 0 3 3H58a3 3 0 0 0 3-3V30A3 3 0 0 0 58 27Zm1 27a1 1 0 0 1-1 1H17a1 1 0 0 1-1-1V30a1 1 0 0 1 1-1H58a1 1 0 0 1 1 1Z"/>
<path d="m8 23a1 1 0 0 0 0 2h7a1 1 0 0 0 0-2z"/>
<path d="m18 23a1 1 0 0 0 0 2h7a1 1 0 0 0 0-2z"/>
<path d="m28 23a1 1 0 0 0 0 2h7a1 1 0 0 0 0-2z"/>
<path d="m38 23a1 1 0 0 0 0 2h7a1 1 0 0 0 0-2z"/>
<path d="m26 47h-7a1 1 0 0 0 0 2h7a1 1 0 0 0 0-2z"/>
<path d="m36 47h-7a1 1 0 0 0 0 2h7a1 1 0 0 0 0-2z"/>
<path d="m46 47h-7a1 1 0 0 0 0 2h7a1 1 0 0 0 0-2z"/>
<path d="m56 47h-7a1 1 0 0 0 0 2h7a1 1 0 0 0 0-2z"/>
<path d="m54 31h-4a3 3 0 0 0-3 3v5a3 3 0 0 0 3 3h4a3 3 0 0 0 3-3v-5a3 3 0 0 0-3-3zm1 8a1 1 0 0 1-1 1h-4a1 1 0 0 1-1-1v-5a1 1 0 0 1 1-1h4a1 1 0 0 1 1 1z"/>
</svg>
</svg>
</g>
</svg>
</svg>
</svg>
</g>
</svg>
</svg>
<rect width="320" height="360" visibility="hidden"/>
</mask>
</svg>
<rect width="320" height="360" visibility="hidden"/>
</mask>
<rect width="320" height="360" fill="url(#a)" mask="url(#d)" data-fill-palette-color="accent"/>
<mask id="b">
<svg width="320" height="360" viewBox="0 0 320 360">
<svg/>
<svg width="320" height="360" viewBox="0 0 320 360">
<path transform="translate(-74.993 -51.79) scale(4.6579)" d="m20.6 59.9 0.8 1-0.4-1.3c-0.1-0.6-0.8 0.1-0.4 0.3m0.9-0.6c0.3 0.5 0.6 1 0.6 1.5 0 0.7 0.6 1 1.1 1.2-0.7-0.8-1.1-3-1.7-2.7m38.4-42.4c1.7 0 3.3-0.2 5.1 0.2 4.4 1.1 8.1 3.3 10.6 6.4l7 11.2c0.3 2.8 0.9 5.9 0.8 9.3 0.7 0 0.6-1 1.4-1.2-0.8 2-1.2 4.5-1.4 7.4-0.5-1.6 0-4 0.1-5.3-0.7 1.1-1.1 0.3-1.1-0.2 0.1-0.8-0.3-0.7-0.6-1-1.1-1-1.8-2.1-2.6-3.8 0.5-1.3 0.6-3.2-1-4.2-0.5-0.3-1.1-0.8-1.4-1.6-0.4-1.1-1.1-2.4-0.9-4.1 0.1-0.5-1.5 1.1-2.4 0.4-3.9-2.7-7.8-5.8-12.5-8.4-2.5 0-4.3-0.9-5.2-2-0.8-1-0.2-2.3 1-2.4 0.7 0 1.5-0.2 2.1 0.2 0.1-0.4 0.5-0.9 1-0.9m-9.9-2.3 0.2 0.1c1 0.2 1.5 1.6 2.6 1.1 0 0.7 0.1 1.4-0.1 1.9-0.3 0.8-1.2 0.8-1.9 0.8-6.7-0.4-10.6 2.4-14.7 4.8-1.1 0.7-2.3 1.2-3.2 2.1-4.3 4-9 7.7-10.1 15.1l-0.9 8.2c-0.1 0.9-1.1 1.8-0.9 2.9l0.7 4.9c-0.7-0.7-1.1 0.2-0.9 0.6 0.1 0.3 0.5 1.3 1.1 0.4 0.8 1.5 1.6 4.4 2.7 5.7 3.4 4 7.8 7.6 11.4 11.2 0.9-0.2 1.6-0.2 1.8-0.8 0.3 0.6-0.3 1.2-0.8 1.3 1.6 1 3.4 1.9 5.8 2.1 3.1 0.2 6 0.7 8.7 1.4 1.4-0.4 2.8-0.6 4.3-0.7 0.5 0 0.8-0.8 1.4-1l0.1-1c0.6 0.9 0.5-0.3 0.1-0.9 0.7 0.6 0.9 1.1 1.2 1.5 0-0.3 0.8-1.4 0.8-0.1l0.2-1.3c0.3-0.2 0.4 1.1 0.7 0.2s0.9-0.2 1.5-0.5c-0.2 0.4-0.1 1.2 0.6 0.7l0.8-0.7c0.5 1.2 1.3 0.7 1.7 0.5 4.4-2.8 8.8-6.1 13-9.4l-0.1 1.3 0.5-1.6c0.5 0.5 0.9 0.1 1.1-0.2 0.6-1 1.4-2 2.7-2.9-1.6 4.3-3.5 7.7-5.9 10.5l-1 1.2c0 0.7-0.2 1.6-1 1.7-0.4 0.1-1.2-0.2-1.8 0.4-0.3 0.4 0.7 1.2-0.1 0.6-0.7-0.5-1.4 0-2.2 0.2-0.6 0.2 0.4 0.8 0.6 1.2s0.4 0.8 0.3 1.3l-1.1-1.2c-1.3 0.7-2.1 2-3.2 3-0.5 0.4-0.3 1.1-0.3 1.7-0.7 0-1.5-0.2-1.9 0.2-0.3 0.4-0.2 1-0.2 1.6-1-0.1-1.1-1.6-2-1.3-0.9 0.2-1.9 0.3-2.7 0.8 0.6 1.2-1 0.5-0.8 0.7-1.5-0.9-2.8-1.6-4.4-1-3.4-1.1-7.6-0.6-10.7-0.2 0-0.5 0.1-1-0.1-1.1-0.2 0.5-0.8 0.3-0.7 0.3-1.9-1.3-3.8-2.1-5.8-3.2-1.8 0.2-3.5-0.7-4-1.2-1.4-1.3-3-0.6-4.3-0.9-2.8-0.7-3.8-3.6-4.1-5.6-0.2-1-1-1.4-1.3-1.3-1.3-4.2-3.3-8-4.9-11.9-0.4-1-0.3-2-0.3-3.1 0.5 0.2 1 0.1 0.9-0.6-0.5-3.3-1.7-5.8-3-8.2 0.7-3.4 0.8-7.4 2.4-10.4 1.4-2.7 4-4.1 5.8-6.4 0.6-0.8 0.6-1.9 1.2-2.6 2-2 4-4.1 6.2-5.9 1-0.8 2.2 0 3.7-0.3 0.5-1.8 2.5-3.4 4.4-2.9 0.8 0.2 2.4-1.9 2.9-2.1 0.8-0.3 0.4 0.8 0.4 1.5 1.9-1.5 4.5-2.3 6.9-3.2" fill="#fff" font-family="none" font-size="none" font-weight="none" stroke-dasharray="" stroke-miterlimit="10" text-anchor="none" style="mix-blend-mode:normal"/>
<g transform="translate(71.189 90)">
<svg width="177.62" height="180" viewBox="0 0 177.62273822255418 180">
<svg width="177.62" height="180" viewBox="0 0 177.62273822255418 180">
<svg width="177.62" height="180" viewBox="0 0 192 194.56968373439727">
<g transform="translate(0 114.04)">
<svg width="192" height="80.529" viewBox="0 0 192 80.52892561983471">
<svg width="192" height="80.529" viewBox="0 0 192 80.52892561983471">
<svg width="192" height="80.529" viewBox="0 0 192 80.52892561983471">
<g>
<svg width="192" height="80.529" data-palette-color="url(#68e7994d-8da3-44fc-89d4-040cafa93f07)" viewBox="0.15 -9.35 24.200000000000003 10.15"/>
</g>
</svg>
</svg>
</svg>
</g>
<g transform="translate(36.672)">
<svg width="118.66" height="102.29" viewBox="0 0 118.656 102.2896551724138">
<svg class="icon-icon-0" width="118.66" height="102.29" data-fill-palette-color="accent" viewBox="3 7 58 50" xmlns="http://www.w3.org/2000/svg"/>
</svg>
</g>
</svg>
</svg>
</svg>
</g>
</svg>
<mask>
<svg width="320" height="360" viewBox="0 0 320 360">
<svg/>
<svg width="320" height="360" viewBox="0 0 320 360">
<path transform="translate(-74.993 -51.79) scale(4.6579)" d="m20.6 59.9 0.8 1-0.4-1.3c-0.1-0.6-0.8 0.1-0.4 0.3m0.9-0.6c0.3 0.5 0.6 1 0.6 1.5 0 0.7 0.6 1 1.1 1.2-0.7-0.8-1.1-3-1.7-2.7m38.4-42.4c1.7 0 3.3-0.2 5.1 0.2 4.4 1.1 8.1 3.3 10.6 6.4l7 11.2c0.3 2.8 0.9 5.9 0.8 9.3 0.7 0 0.6-1 1.4-1.2-0.8 2-1.2 4.5-1.4 7.4-0.5-1.6 0-4 0.1-5.3-0.7 1.1-1.1 0.3-1.1-0.2 0.1-0.8-0.3-0.7-0.6-1-1.1-1-1.8-2.1-2.6-3.8 0.5-1.3 0.6-3.2-1-4.2-0.5-0.3-1.1-0.8-1.4-1.6-0.4-1.1-1.1-2.4-0.9-4.1 0.1-0.5-1.5 1.1-2.4 0.4-3.9-2.7-7.8-5.8-12.5-8.4-2.5 0-4.3-0.9-5.2-2-0.8-1-0.2-2.3 1-2.4 0.7 0 1.5-0.2 2.1 0.2 0.1-0.4 0.5-0.9 1-0.9m-9.9-2.3 0.2 0.1c1 0.2 1.5 1.6 2.6 1.1 0 0.7 0.1 1.4-0.1 1.9-0.3 0.8-1.2 0.8-1.9 0.8-6.7-0.4-10.6 2.4-14.7 4.8-1.1 0.7-2.3 1.2-3.2 2.1-4.3 4-9 7.7-10.1 15.1l-0.9 8.2c-0.1 0.9-1.1 1.8-0.9 2.9l0.7 4.9c-0.7-0.7-1.1 0.2-0.9 0.6 0.1 0.3 0.5 1.3 1.1 0.4 0.8 1.5 1.6 4.4 2.7 5.7 3.4 4 7.8 7.6 11.4 11.2 0.9-0.2 1.6-0.2 1.8-0.8 0.3 0.6-0.3 1.2-0.8 1.3 1.6 1 3.4 1.9 5.8 2.1 3.1 0.2 6 0.7 8.7 1.4 1.4-0.4 2.8-0.6 4.3-0.7 0.5 0 0.8-0.8 1.4-1l0.1-1c0.6 0.9 0.5-0.3 0.1-0.9 0.7 0.6 0.9 1.1 1.2 1.5 0-0.3 0.8-1.4 0.8-0.1l0.2-1.3c0.3-0.2 0.4 1.1 0.7 0.2s0.9-0.2 1.5-0.5c-0.2 0.4-0.1 1.2 0.6 0.7l0.8-0.7c0.5 1.2 1.3 0.7 1.7 0.5 4.4-2.8 8.8-6.1 13-9.4l-0.1 1.3 0.5-1.6c0.5 0.5 0.9 0.1 1.1-0.2 0.6-1 1.4-2 2.7-2.9-1.6 4.3-3.5 7.7-5.9 10.5l-1 1.2c0 0.7-0.2 1.6-1 1.7-0.4 0.1-1.2-0.2-1.8 0.4-0.3 0.4 0.7 1.2-0.1 0.6-0.7-0.5-1.4 0-2.2 0.2-0.6 0.2 0.4 0.8 0.6 1.2s0.4 0.8 0.3 1.3l-1.1-1.2c-1.3 0.7-2.1 2-3.2 3-0.5 0.4-0.3 1.1-0.3 1.7-0.7 0-1.5-0.2-1.9 0.2-0.3 0.4-0.2 1-0.2 1.6-1-0.1-1.1-1.6-2-1.3-0.9 0.2-1.9 0.3-2.7 0.8 0.6 1.2-1 0.5-0.8 0.7-1.5-0.9-2.8-1.6-4.4-1-3.4-1.1-7.6-0.6-10.7-0.2 0-0.5 0.1-1-0.1-1.1-0.2 0.5-0.8 0.3-0.7 0.3-1.9-1.3-3.8-2.1-5.8-3.2-1.8 0.2-3.5-0.7-4-1.2-1.4-1.3-3-0.6-4.3-0.9-2.8-0.7-3.8-3.6-4.1-5.6-0.2-1-1-1.4-1.3-1.3-1.3-4.2-3.3-8-4.9-11.9-0.4-1-0.3-2-0.3-3.1 0.5 0.2 1 0.1 0.9-0.6-0.5-3.3-1.7-5.8-3-8.2 0.7-3.4 0.8-7.4 2.4-10.4 1.4-2.7 4-4.1 5.8-6.4 0.6-0.8 0.6-1.9 1.2-2.6 2-2 4-4.1 6.2-5.9 1-0.8 2.2 0 3.7-0.3 0.5-1.8 2.5-3.4 4.4-2.9 0.8 0.2 2.4-1.9 2.9-2.1 0.8-0.3 0.4 0.8 0.4 1.5 1.9-1.5 4.5-2.3 6.9-3.2" font-family="none" font-size="none" font-weight="none" stroke-dasharray="" stroke-miterlimit="10" text-anchor="none" style="mix-blend-mode:normal"/>
<g transform="translate(71.189 90)">
<svg width="177.62" height="180" viewBox="0 0 177.62273822255418 180">
<svg width="177.62" height="180" viewBox="0 0 177.62273822255418 180">
<svg width="177.62" height="180" viewBox="0 0 192 194.56968373439727">
<g transform="translate(0 114.04)">
<svg width="192" height="80.529" viewBox="0 0 192 80.52892561983471">
<svg width="192" height="80.529" viewBox="0 0 192 80.52892561983471">
<svg width="192" height="80.529" viewBox="0 0 192 80.52892561983471">
<g>
<svg width="192" height="80.529" data-palette-color="url(#68e7994d-8da3-44fc-89d4-040cafa93f07)" viewBox="0.15 -9.35 24.200000000000003 10.15">
<path class="wordmark-text-0" d="m3.25 0.8q-0.4-0.25-0.4-0.25-0.05 0-0.07 0.05-0.03 0.05-0.08 0.05t-0.15-0.05-0.15-0.05h-0.45v-0.15q-0.5-0.2-0.75-0.37-0.25-0.18-0.6-0.53l-0.45-1.25q0.2-0.15 0.2-0.35 0-0.05-0.1-0.25t-0.1-0.25q0-0.1 0.05-0.58 0.05-0.47 0.5-1.27l0.65-1.2q0.2-0.2 0.4-0.48 0.2-0.27 0.55-0.52 0.15-0.05 0.9-0.85l0.75-0.6q0.2-0.05 0.5-0.5 0.65-0.25 0.7-0.3 0-0.05 0-0.05h-0.05t0.05 0q0 0 0 0.05 0.05 0 0.1 0.1l0.45-0.35h0.45q0.1 0 0.4-0.1t0.35-0.1q0.15 0 0.35 0.2h0.5v0.2l0.5 0.25q0.4 0.55 0.5 0.55 0 0.45 0.15 1.15-0.25 0.15-0.45 0.5h-0.15q-0.1 0-0.22-0.1-0.13-0.1-0.18-0.1 0.05 0.05-0.15 0.1-0.05-0.05-0.15-0.13-0.1-0.07-0.1-0.12l-0.25 0.1q-0.05 0-0.32-0.13-0.28-0.12-0.33-0.12t-0.07 0.07q-0.03 0.08-0.08 0.08-0.1 0-0.05-0.05h-0.05t-0.1 0.1l-0.7 0.2q-0.1 0.05-0.25 0.17-0.15 0.13-0.4 0.23h-0.15v-0.3q0.1-0.05 0.25-0.15t0.35-0.2v-0.1q-0.25-0.25-0.4-0.25-0.5 0-1.2 0.7-0.05 0-0.2 0.1t-0.5 0.5q-0.1 0-0.15 0.05-1 1.15-0.95 1.35-0.05 0.05-0.15 0.35l-0.2 0.1q0.1 0.15 0 0.45l-0.5 1.05q0 0.35-0.3 0.8 0.05 0.05 0.08 0.12 0.02 0.08 0.17 0.13 0.15 0.25 0.4 0.75t0.4 0.5q0-0.05 0.15-0.1 0 0.15 0.05 0.25l0.25 0.15q0.05 0 0.08-0.05 0.02-0.05 0.07-0.05 0 0 0.2 0.1h0.75q0 0.1 0.1 0.1 0.05 0 0.08-0.05 0.02-0.05 0.07-0.05t0.13 0.05q0.07 0.05 0.12 0.05 0.1 0 0.33-0.15 0.22-0.15 0.27-0.15h0.1q0 0.05 0.05 0.05l0.7-0.15q0.15-0.05 0.38-0.18 0.22-0.12 0.27-0.12 0.1 0 0.08 0.05-0.03 0.05 0.07 0.05-0.15-0.05 0.5-0.4l0.95-0.35q0.3-0.2 0.6-0.5l0.75-0.35q0.15-0.05 1-0.75l0.45-0.2 0.25-0.3q0.15 0 0.2-0.05l1.55-1.5q0.1 0 0.2-0.05 0 0 0.1-0.1t0.4-0.3q0 0.15-0.1 0.25-0.2 0.1-0.45 0.35t-0.5 0.6q-0.2 0.2-0.52 0.55-0.33 0.35-0.83 0.75l-2.25 1.5q-0.35 0.2-0.6 0.3t-0.4 0.15l-0.35 0.35q-0.75 0.2-1.12 0.42-0.38 0.23-0.58 0.23h-0.05q0-0.05-0.05-0.05 0 0-0.2 0.13-0.2 0.12-0.65 0.17-0.05 0-0.05 0.15-0.3-0.1-0.3-0.1-0.05 0-0.2 0.1t-0.2 0.1h-0.1q0-0.05-0.05-0.05-0.25 0-0.3 0.2zm11.25 0q-0.4-0.25-0.4-0.25-0.05 0-0.08 0.05-0.02 0.05-0.07 0.05t-0.15-0.05-0.15-0.05h-0.45v-0.15q-0.5-0.2-0.75-0.37-0.25-0.18-0.6-0.53l-0.45-1.25q0.2-0.15 0.2-0.35 0-0.05-0.1-0.25t-0.1-0.25q0-0.1 0.05-0.58 0.05-0.47 0.5-1.27l0.65-1.2q0.2-0.2 0.4-0.48 0.2-0.27 0.55-0.52 0.15-0.05 0.9-0.85l0.75-0.6q0.2-0.05 0.5-0.5 0.65-0.25 0.7-0.3 0-0.05 0-0.05h-0.05t0.05 0q0 0 0 0.05 0.05 0 0.1 0.1l0.45-0.35h0.45q0.1 0 0.4-0.1t0.35-0.1q0.15 0 0.35 0.2h0.5v0.2l0.5 0.25q0.4 0.55 0.5 0.55 0 0.45 0.15 1.15-0.25 0.15-0.45 0.5h-0.15q-0.1 0-0.23-0.1-0.12-0.1-0.17-0.1 0.05 0.05-0.15 0.1-0.05-0.05-0.15-0.13-0.1-0.07-0.1-0.12l-0.25 0.1q-0.05 0-0.33-0.13-0.27-0.12-0.32-0.12t-0.08 0.07q-0.02 0.08-0.07 0.08-0.1 0-0.05-0.05h-0.05t-0.1 0.1l-0.7 0.2q-0.1 0.05-0.25 0.17-0.15 0.13-0.4 0.23h-0.15v-0.3q0.1-0.05 0.25-0.15t0.35-0.2v-0.1q-0.25-0.25-0.4-0.25-0.5 0-1.2 0.7-0.05 0-0.2 0.1t-0.5 0.5q-0.1 0-0.15 0.05-1 1.15-0.95 1.35-0.05 0.05-0.15 0.35l-0.2 0.1q0.1 0.15 0 0.45l-0.5 1.05q0 0.35-0.3 0.8 0.05 0.05 0.07 0.12 0.03 0.08 0.18 0.13 0.15 0.25 0.4 0.75t0.4 0.5q0-0.05 0.15-0.1 0 0.15 0.05 0.25l0.25 0.15q0.05 0 0.07-0.05 0.03-0.05 0.08-0.05 0 0 0.2 0.1h0.75q0 0.1 0.1 0.1 0.05 0 0.07-0.05 0.03-0.05 0.08-0.05t0.12 0.05q0.08 0.05 0.13 0.05 0.1 0 0.32-0.15 0.23-0.15 0.28-0.15h0.1q0 0.05 0.05 0.05l0.7-0.15q0.15-0.05 0.37-0.18 0.23-0.12 0.28-0.12 0.1 0 0.07 0.05-0.02 0.05 0.08 0.05-0.15-0.05 0.5-0.4l0.95-0.35q0.3-0.2 0.6-0.5l0.75-0.35q0.15-0.05 1-0.75l0.45-0.2 0.25-0.3q0.15 0 0.2-0.05l1.55-1.5q0.1 0 0.2-0.05 0 0 0.1-0.1t0.4-0.3q0 0.15-0.1 0.25-0.2 0.1-0.45 0.35t-0.5 0.6q-0.2 0.2-0.53 0.55-0.32 0.35-0.82 0.75l-2.25 1.5q-0.35 0.2-0.6 0.3t-0.4 0.15l-0.35 0.35q-0.75 0.2-1.13 0.42-0.37 0.23-0.57 0.23h-0.05q0-0.05-0.05-0.05 0 0-0.2 0.13-0.2 0.12-0.65 0.17-0.05 0-0.05 0.15-0.3-0.1-0.3-0.1-0.05 0-0.2 0.1t-0.2 0.1h-0.1q0-0.05-0.05-0.05-0.25 0-0.3 0.2z"/>
</svg>
</g>
</svg>
</svg>
</svg>
</g>
<g transform="translate(36.672)">
<svg width="118.66" height="102.29" viewBox="0 0 118.656 102.2896551724138">
<svg class="icon-icon-0" width="118.66" height="102.29" data-fill-palette-color="accent" viewBox="3 7 58 50" xmlns="http://www.w3.org/2000/svg">
<path d="M12 35H6a1 1 0 0 1-1-1V20H48v5a1 1 0 0 0 2 0V10a3 3 0 0 0-3-3H6a3 3 0 0 0-3 3V34a3 3 0 0 0 3 3h6a1 1 0 0 0 0-2ZM5 18V14H48v4Zm0-8A1 1 0 0 1 6 9H47a1 1 0 0 1 1 1v2H5Z"/>
<path d="M58 27H17a3 3 0 0 0-3 3V54a3 3 0 0 0 3 3H58a3 3 0 0 0 3-3V30A3 3 0 0 0 58 27Zm1 27a1 1 0 0 1-1 1H17a1 1 0 0 1-1-1V30a1 1 0 0 1 1-1H58a1 1 0 0 1 1 1Z"/>
<path d="m8 23a1 1 0 0 0 0 2h7a1 1 0 0 0 0-2z"/>
<path d="m18 23a1 1 0 0 0 0 2h7a1 1 0 0 0 0-2z"/>
<path d="m28 23a1 1 0 0 0 0 2h7a1 1 0 0 0 0-2z"/>
<path d="m38 23a1 1 0 0 0 0 2h7a1 1 0 0 0 0-2z"/>
<path d="m26 47h-7a1 1 0 0 0 0 2h7a1 1 0 0 0 0-2z"/>
<path d="m36 47h-7a1 1 0 0 0 0 2h7a1 1 0 0 0 0-2z"/>
<path d="m46 47h-7a1 1 0 0 0 0 2h7a1 1 0 0 0 0-2z"/>
<path d="m56 47h-7a1 1 0 0 0 0 2h7a1 1 0 0 0 0-2z"/>
<path d="m54 31h-4a3 3 0 0 0-3 3v5a3 3 0 0 0 3 3h4a3 3 0 0 0 3-3v-5a3 3 0 0 0-3-3zm1 8a1 1 0 0 1-1 1h-4a1 1 0 0 1-1-1v-5a1 1 0 0 1 1-1h4a1 1 0 0 1 1 1z"/>
</svg>
</svg>
</g>
</svg>
</svg>
</svg>
</g>
</svg>
</svg>
<rect width="320" height="360" visibility="hidden"/>
</mask>
<mask>
<svg width="320" height="360" viewBox="0 0 320 360">
<svg/>
<svg width="320" height="360" viewBox="0 0 320 360">
<path transform="translate(-74.993 -51.79) scale(4.6579)" d="m20.6 59.9 0.8 1-0.4-1.3c-0.1-0.6-0.8 0.1-0.4 0.3m0.9-0.6c0.3 0.5 0.6 1 0.6 1.5 0 0.7 0.6 1 1.1 1.2-0.7-0.8-1.1-3-1.7-2.7m38.4-42.4c1.7 0 3.3-0.2 5.1 0.2 4.4 1.1 8.1 3.3 10.6 6.4l7 11.2c0.3 2.8 0.9 5.9 0.8 9.3 0.7 0 0.6-1 1.4-1.2-0.8 2-1.2 4.5-1.4 7.4-0.5-1.6 0-4 0.1-5.3-0.7 1.1-1.1 0.3-1.1-0.2 0.1-0.8-0.3-0.7-0.6-1-1.1-1-1.8-2.1-2.6-3.8 0.5-1.3 0.6-3.2-1-4.2-0.5-0.3-1.1-0.8-1.4-1.6-0.4-1.1-1.1-2.4-0.9-4.1 0.1-0.5-1.5 1.1-2.4 0.4-3.9-2.7-7.8-5.8-12.5-8.4-2.5 0-4.3-0.9-5.2-2-0.8-1-0.2-2.3 1-2.4 0.7 0 1.5-0.2 2.1 0.2 0.1-0.4 0.5-0.9 1-0.9m-9.9-2.3 0.2 0.1c1 0.2 1.5 1.6 2.6 1.1 0 0.7 0.1 1.4-0.1 1.9-0.3 0.8-1.2 0.8-1.9 0.8-6.7-0.4-10.6 2.4-14.7 4.8-1.1 0.7-2.3 1.2-3.2 2.1-4.3 4-9 7.7-10.1 15.1l-0.9 8.2c-0.1 0.9-1.1 1.8-0.9 2.9l0.7 4.9c-0.7-0.7-1.1 0.2-0.9 0.6 0.1 0.3 0.5 1.3 1.1 0.4 0.8 1.5 1.6 4.4 2.7 5.7 3.4 4 7.8 7.6 11.4 11.2 0.9-0.2 1.6-0.2 1.8-0.8 0.3 0.6-0.3 1.2-0.8 1.3 1.6 1 3.4 1.9 5.8 2.1 3.1 0.2 6 0.7 8.7 1.4 1.4-0.4 2.8-0.6 4.3-0.7 0.5 0 0.8-0.8 1.4-1l0.1-1c0.6 0.9 0.5-0.3 0.1-0.9 0.7 0.6 0.9 1.1 1.2 1.5 0-0.3 0.8-1.4 0.8-0.1l0.2-1.3c0.3-0.2 0.4 1.1 0.7 0.2s0.9-0.2 1.5-0.5c-0.2 0.4-0.1 1.2 0.6 0.7l0.8-0.7c0.5 1.2 1.3 0.7 1.7 0.5 4.4-2.8 8.8-6.1 13-9.4l-0.1 1.3 0.5-1.6c0.5 0.5 0.9 0.1 1.1-0.2 0.6-1 1.4-2 2.7-2.9-1.6 4.3-3.5 7.7-5.9 10.5l-1 1.2c0 0.7-0.2 1.6-1 1.7-0.4 0.1-1.2-0.2-1.8 0.4-0.3 0.4 0.7 1.2-0.1 0.6-0.7-0.5-1.4 0-2.2 0.2-0.6 0.2 0.4 0.8 0.6 1.2s0.4 0.8 0.3 1.3l-1.1-1.2c-1.3 0.7-2.1 2-3.2 3-0.5 0.4-0.3 1.1-0.3 1.7-0.7 0-1.5-0.2-1.9 0.2-0.3 0.4-0.2 1-0.2 1.6-1-0.1-1.1-1.6-2-1.3-0.9 0.2-1.9 0.3-2.7 0.8 0.6 1.2-1 0.5-0.8 0.7-1.5-0.9-2.8-1.6-4.4-1-3.4-1.1-7.6-0.6-10.7-0.2 0-0.5 0.1-1-0.1-1.1-0.2 0.5-0.8 0.3-0.7 0.3-1.9-1.3-3.8-2.1-5.8-3.2-1.8 0.2-3.5-0.7-4-1.2-1.4-1.3-3-0.6-4.3-0.9-2.8-0.7-3.8-3.6-4.1-5.6-0.2-1-1-1.4-1.3-1.3-1.3-4.2-3.3-8-4.9-11.9-0.4-1-0.3-2-0.3-3.1 0.5 0.2 1 0.1 0.9-0.6-0.5-3.3-1.7-5.8-3-8.2 0.7-3.4 0.8-7.4 2.4-10.4 1.4-2.7 4-4.1 5.8-6.4 0.6-0.8 0.6-1.9 1.2-2.6 2-2 4-4.1 6.2-5.9 1-0.8 2.2 0 3.7-0.3 0.5-1.8 2.5-3.4 4.4-2.9 0.8 0.2 2.4-1.9 2.9-2.1 0.8-0.3 0.4 0.8 0.4 1.5 1.9-1.5 4.5-2.3 6.9-3.2" font-family="none" font-size="none" font-weight="none" stroke-dasharray="" stroke-miterlimit="10" text-anchor="none" style="mix-blend-mode:normal"/>
<g transform="translate(71.189 90)">
<svg width="177.62" height="180" viewBox="0 0 177.62273822255418 180">
<svg width="177.62" height="180" viewBox="0 0 177.62273822255418 180">
<svg width="177.62" height="180" viewBox="0 0 192 194.56968373439727">
<g transform="translate(0 114.04)">
<svg width="192" height="80.529" viewBox="0 0 192 80.52892561983471">
<svg width="192" height="80.529" viewBox="0 0 192 80.52892561983471">
<svg width="192" height="80.529" viewBox="0 0 192 80.52892561983471">
<g>
<svg width="192" height="80.529" data-palette-color="url(#68e7994d-8da3-44fc-89d4-040cafa93f07)" viewBox="0.15 -9.35 24.200000000000003 10.15"/>
</g>
</svg>
</svg>
</svg>
</g>
<g transform="translate(36.672)">
<svg width="118.66" height="102.29" viewBox="0 0 118.656 102.2896551724138">
<svg class="icon-icon-0" width="118.66" height="102.29" data-fill-palette-color="accent" viewBox="3 7 58 50" xmlns="http://www.w3.org/2000/svg">
<path d="M12 35H6a1 1 0 0 1-1-1V20H48v5a1 1 0 0 0 2 0V10a3 3 0 0 0-3-3H6a3 3 0 0 0-3 3V34a3 3 0 0 0 3 3h6a1 1 0 0 0 0-2ZM5 18V14H48v4Zm0-8A1 1 0 0 1 6 9H47a1 1 0 0 1 1 1v2H5Z"/>
<path d="M58 27H17a3 3 0 0 0-3 3V54a3 3 0 0 0 3 3H58a3 3 0 0 0 3-3V30A3 3 0 0 0 58 27Zm1 27a1 1 0 0 1-1 1H17a1 1 0 0 1-1-1V30a1 1 0 0 1 1-1H58a1 1 0 0 1 1 1Z"/>
<path d="m8 23a1 1 0 0 0 0 2h7a1 1 0 0 0 0-2z"/>
<path d="m18 23a1 1 0 0 0 0 2h7a1 1 0 0 0 0-2z"/>
<path d="m28 23a1 1 0 0 0 0 2h7a1 1 0 0 0 0-2z"/>
<path d="m38 23a1 1 0 0 0 0 2h7a1 1 0 0 0 0-2z"/>
<path d="m26 47h-7a1 1 0 0 0 0 2h7a1 1 0 0 0 0-2z"/>
<path d="m36 47h-7a1 1 0 0 0 0 2h7a1 1 0 0 0 0-2z"/>
<path d="m46 47h-7a1 1 0 0 0 0 2h7a1 1 0 0 0 0-2z"/>
<path d="m56 47h-7a1 1 0 0 0 0 2h7a1 1 0 0 0 0-2z"/>
<path d="m54 31h-4a3 3 0 0 0-3 3v5a3 3 0 0 0 3 3h4a3 3 0 0 0 3-3v-5a3 3 0 0 0-3-3zm1 8a1 1 0 0 1-1 1h-4a1 1 0 0 1-1-1v-5a1 1 0 0 1 1-1h4a1 1 0 0 1 1 1z"/>
</svg>
</svg>
</g>
</svg>
</svg>
</svg>
</g>
</svg>
<mask>
<svg width="320" height="360" viewBox="0 0 320 360">
<svg/>
<svg width="320" height="360" viewBox="0 0 320 360">
<path transform="translate(-74.993 -51.79) scale(4.6579)" d="m20.6 59.9 0.8 1-0.4-1.3c-0.1-0.6-0.8 0.1-0.4 0.3m0.9-0.6c0.3 0.5 0.6 1 0.6 1.5 0 0.7 0.6 1 1.1 1.2-0.7-0.8-1.1-3-1.7-2.7m38.4-42.4c1.7 0 3.3-0.2 5.1 0.2 4.4 1.1 8.1 3.3 10.6 6.4l7 11.2c0.3 2.8 0.9 5.9 0.8 9.3 0.7 0 0.6-1 1.4-1.2-0.8 2-1.2 4.5-1.4 7.4-0.5-1.6 0-4 0.1-5.3-0.7 1.1-1.1 0.3-1.1-0.2 0.1-0.8-0.3-0.7-0.6-1-1.1-1-1.8-2.1-2.6-3.8 0.5-1.3 0.6-3.2-1-4.2-0.5-0.3-1.1-0.8-1.4-1.6-0.4-1.1-1.1-2.4-0.9-4.1 0.1-0.5-1.5 1.1-2.4 0.4-3.9-2.7-7.8-5.8-12.5-8.4-2.5 0-4.3-0.9-5.2-2-0.8-1-0.2-2.3 1-2.4 0.7 0 1.5-0.2 2.1 0.2 0.1-0.4 0.5-0.9 1-0.9m-9.9-2.3 0.2 0.1c1 0.2 1.5 1.6 2.6 1.1 0 0.7 0.1 1.4-0.1 1.9-0.3 0.8-1.2 0.8-1.9 0.8-6.7-0.4-10.6 2.4-14.7 4.8-1.1 0.7-2.3 1.2-3.2 2.1-4.3 4-9 7.7-10.1 15.1l-0.9 8.2c-0.1 0.9-1.1 1.8-0.9 2.9l0.7 4.9c-0.7-0.7-1.1 0.2-0.9 0.6 0.1 0.3 0.5 1.3 1.1 0.4 0.8 1.5 1.6 4.4 2.7 5.7 3.4 4 7.8 7.6 11.4 11.2 0.9-0.2 1.6-0.2 1.8-0.8 0.3 0.6-0.3 1.2-0.8 1.3 1.6 1 3.4 1.9 5.8 2.1 3.1 0.2 6 0.7 8.7 1.4 1.4-0.4 2.8-0.6 4.3-0.7 0.5 0 0.8-0.8 1.4-1l0.1-1c0.6 0.9 0.5-0.3 0.1-0.9 0.7 0.6 0.9 1.1 1.2 1.5 0-0.3 0.8-1.4 0.8-0.1l0.2-1.3c0.3-0.2 0.4 1.1 0.7 0.2s0.9-0.2 1.5-0.5c-0.2 0.4-0.1 1.2 0.6 0.7l0.8-0.7c0.5 1.2 1.3 0.7 1.7 0.5 4.4-2.8 8.8-6.1 13-9.4l-0.1 1.3 0.5-1.6c0.5 0.5 0.9 0.1 1.1-0.2 0.6-1 1.4-2 2.7-2.9-1.6 4.3-3.5 7.7-5.9 10.5l-1 1.2c0 0.7-0.2 1.6-1 1.7-0.4 0.1-1.2-0.2-1.8 0.4-0.3 0.4 0.7 1.2-0.1 0.6-0.7-0.5-1.4 0-2.2 0.2-0.6 0.2 0.4 0.8 0.6 1.2s0.4 0.8 0.3 1.3l-1.1-1.2c-1.3 0.7-2.1 2-3.2 3-0.5 0.4-0.3 1.1-0.3 1.7-0.7 0-1.5-0.2-1.9 0.2-0.3 0.4-0.2 1-0.2 1.6-1-0.1-1.1-1.6-2-1.3-0.9 0.2-1.9 0.3-2.7 0.8 0.6 1.2-1 0.5-0.8 0.7-1.5-0.9-2.8-1.6-4.4-1-3.4-1.1-7.6-0.6-10.7-0.2 0-0.5 0.1-1-0.1-1.1-0.2 0.5-0.8 0.3-0.7 0.3-1.9-1.3-3.8-2.1-5.8-3.2-1.8 0.2-3.5-0.7-4-1.2-1.4-1.3-3-0.6-4.3-0.9-2.8-0.7-3.8-3.6-4.1-5.6-0.2-1-1-1.4-1.3-1.3-1.3-4.2-3.3-8-4.9-11.9-0.4-1-0.3-2-0.3-3.1 0.5 0.2 1 0.1 0.9-0.6-0.5-3.3-1.7-5.8-3-8.2 0.7-3.4 0.8-7.4 2.4-10.4 1.4-2.7 4-4.1 5.8-6.4 0.6-0.8 0.6-1.9 1.2-2.6 2-2 4-4.1 6.2-5.9 1-0.8 2.2 0 3.7-0.3 0.5-1.8 2.5-3.4 4.4-2.9 0.8 0.2 2.4-1.9 2.9-2.1 0.8-0.3 0.4 0.8 0.4 1.5 1.9-1.5 4.5-2.3 6.9-3.2" font-family="none" font-size="none" font-weight="none" stroke-dasharray="" stroke-miterlimit="10" text-anchor="none" style="mix-blend-mode:normal"/>
<g transform="translate(71.189 90)">
<svg width="177.62" height="180" viewBox="0 0 177.62273822255418 180">
<svg width="177.62" height="180" viewBox="0 0 177.62273822255418 180">
<svg width="177.62" height="180" viewBox="0 0 192 194.56968373439727">
<g transform="translate(0 114.04)">
<svg width="192" height="80.529" viewBox="0 0 192 80.52892561983471">
<svg width="192" height="80.529" viewBox="0 0 192 80.52892561983471">
<svg width="192" height="80.529" viewBox="0 0 192 80.52892561983471">
<g>
<svg width="192" height="80.529" data-palette-color="url(#68e7994d-8da3-44fc-89d4-040cafa93f07)" viewBox="0.15 -9.35 24.200000000000003 10.15">
<path class="wordmark-text-0" d="m3.25 0.8q-0.4-0.25-0.4-0.25-0.05 0-0.07 0.05-0.03 0.05-0.08 0.05t-0.15-0.05-0.15-0.05h-0.45v-0.15q-0.5-0.2-0.75-0.37-0.25-0.18-0.6-0.53l-0.45-1.25q0.2-0.15 0.2-0.35 0-0.05-0.1-0.25t-0.1-0.25q0-0.1 0.05-0.58 0.05-0.47 0.5-1.27l0.65-1.2q0.2-0.2 0.4-0.48 0.2-0.27 0.55-0.52 0.15-0.05 0.9-0.85l0.75-0.6q0.2-0.05 0.5-0.5 0.65-0.25 0.7-0.3 0-0.05 0-0.05h-0.05t0.05 0q0 0 0 0.05 0.05 0 0.1 0.1l0.45-0.35h0.45q0.1 0 0.4-0.1t0.35-0.1q0.15 0 0.35 0.2h0.5v0.2l0.5 0.25q0.4 0.55 0.5 0.55 0 0.45 0.15 1.15-0.25 0.15-0.45 0.5h-0.15q-0.1 0-0.22-0.1-0.13-0.1-0.18-0.1 0.05 0.05-0.15 0.1-0.05-0.05-0.15-0.13-0.1-0.07-0.1-0.12l-0.25 0.1q-0.05 0-0.32-0.13-0.28-0.12-0.33-0.12t-0.07 0.07q-0.03 0.08-0.08 0.08-0.1 0-0.05-0.05h-0.05t-0.1 0.1l-0.7 0.2q-0.1 0.05-0.25 0.17-0.15 0.13-0.4 0.23h-0.15v-0.3q0.1-0.05 0.25-0.15t0.35-0.2v-0.1q-0.25-0.25-0.4-0.25-0.5 0-1.2 0.7-0.05 0-0.2 0.1t-0.5 0.5q-0.1 0-0.15 0.05-1 1.15-0.95 1.35-0.05 0.05-0.15 0.35l-0.2 0.1q0.1 0.15 0 0.45l-0.5 1.05q0 0.35-0.3 0.8 0.05 0.05 0.08 0.12 0.02 0.08 0.17 0.13 0.15 0.25 0.4 0.75t0.4 0.5q0-0.05 0.15-0.1 0 0.15 0.05 0.25l0.25 0.15q0.05 0 0.08-0.05 0.02-0.05 0.07-0.05 0 0 0.2 0.1h0.75q0 0.1 0.1 0.1 0.05 0 0.08-0.05 0.02-0.05 0.07-0.05t0.13 0.05q0.07 0.05 0.12 0.05 0.1 0 0.33-0.15 0.22-0.15 0.27-0.15h0.1q0 0.05 0.05 0.05l0.7-0.15q0.15-0.05 0.38-0.18 0.22-0.12 0.27-0.12 0.1 0 0.08 0.05-0.03 0.05 0.07 0.05-0.15-0.05 0.5-0.4l0.95-0.35q0.3-0.2 0.6-0.5l0.75-0.35q0.15-0.05 1-0.75l0.45-0.2 0.25-0.3q0.15 0 0.2-0.05l1.55-1.5q0.1 0 0.2-0.05 0 0 0.1-0.1t0.4-0.3q0 0.15-0.1 0.25-0.2 0.1-0.45 0.35t-0.5 0.6q-0.2 0.2-0.52 0.55-0.33 0.35-0.83 0.75l-2.25 1.5q-0.35 0.2-0.6 0.3t-0.4 0.15l-0.35 0.35q-0.75 0.2-1.12 0.42-0.38 0.23-0.58 0.23h-0.05q0-0.05-0.05-0.05 0 0-0.2 0.13-0.2 0.12-0.65 0.17-0.05 0-0.05 0.15-0.3-0.1-0.3-0.1-0.05 0-0.2 0.1t-0.2 0.1h-0.1q0-0.05-0.05-0.05-0.25 0-0.3 0.2zm11.25 0q-0.4-0.25-0.4-0.25-0.05 0-0.08 0.05-0.02 0.05-0.07 0.05t-0.15-0.05-0.15-0.05h-0.45v-0.15q-0.5-0.2-0.75-0.37-0.25-0.18-0.6-0.53l-0.45-1.25q0.2-0.15 0.2-0.35 0-0.05-0.1-0.25t-0.1-0.25q0-0.1 0.05-0.58 0.05-0.47 0.5-1.27l0.65-1.2q0.2-0.2 0.4-0.48 0.2-0.27 0.55-0.52 0.15-0.05 0.9-0.85l0.75-0.6q0.2-0.05 0.5-0.5 0.65-0.25 0.7-0.3 0-0.05 0-0.05h-0.05t0.05 0q0 0 0 0.05 0.05 0 0.1 0.1l0.45-0.35h0.45q0.1 0 0.4-0.1t0.35-0.1q0.15 0 0.35 0.2h0.5v0.2l0.5 0.25q0.4 0.55 0.5 0.55 0 0.45 0.15 1.15-0.25 0.15-0.45 0.5h-0.15q-0.1 0-0.23-0.1-0.12-0.1-0.17-0.1 0.05 0.05-0.15 0.1-0.05-0.05-0.15-0.13-0.1-0.07-0.1-0.12l-0.25 0.1q-0.05 0-0.33-0.13-0.27-0.12-0.32-0.12t-0.08 0.07q-0.02 0.08-0.07 0.08-0.1 0-0.05-0.05h-0.05t-0.1 0.1l-0.7 0.2q-0.1 0.05-0.25 0.17-0.15 0.13-0.4 0.23h-0.15v-0.3q0.1-0.05 0.25-0.15t0.35-0.2v-0.1q-0.25-0.25-0.4-0.25-0.5 0-1.2 0.7-0.05 0-0.2 0.1t-0.5 0.5q-0.1 0-0.15 0.05-1 1.15-0.95 1.35-0.05 0.05-0.15 0.35l-0.2 0.1q0.1 0.15 0 0.45l-0.5 1.05q0 0.35-0.3 0.8 0.05 0.05 0.07 0.12 0.03 0.08 0.18 0.13 0.15 0.25 0.4 0.75t0.4 0.5q0-0.05 0.15-0.1 0 0.15 0.05 0.25l0.25 0.15q0.05 0 0.07-0.05 0.03-0.05 0.08-0.05 0 0 0.2 0.1h0.75q0 0.1 0.1 0.1 0.05 0 0.07-0.05 0.03-0.05 0.08-0.05t0.12 0.05q0.08 0.05 0.13 0.05 0.1 0 0.32-0.15 0.23-0.15 0.28-0.15h0.1q0 0.05 0.05 0.05l0.7-0.15q0.15-0.05 0.37-0.18 0.23-0.12 0.28-0.12 0.1 0 0.07 0.05-0.02 0.05 0.08 0.05-0.15-0.05 0.5-0.4l0.95-0.35q0.3-0.2 0.6-0.5l0.75-0.35q0.15-0.05 1-0.75l0.45-0.2 0.25-0.3q0.15 0 0.2-0.05l1.55-1.5q0.1 0 0.2-0.05 0 0 0.1-0.1t0.4-0.3q0 0.15-0.1 0.25-0.2 0.1-0.45 0.35t-0.5 0.6q-0.2 0.2-0.53 0.55-0.32 0.35-0.82 0.75l-2.25 1.5q-0.35 0.2-0.6 0.3t-0.4 0.15l-0.35 0.35q-0.75 0.2-1.13 0.42-0.37 0.23-0.57 0.23h-0.05q0-0.05-0.05-0.05 0 0-0.2 0.13-0.2 0.12-0.65 0.17-0.05 0-0.05 0.15-0.3-0.1-0.3-0.1-0.05 0-0.2 0.1t-0.2 0.1h-0.1q0-0.05-0.05-0.05-0.25 0-0.3 0.2z"/>
</svg>
</g>
</svg>
</svg>
</svg>
</g>
<g transform="translate(36.672)">
<svg width="118.66" height="102.29" viewBox="0 0 118.656 102.2896551724138">
<svg class="icon-icon-0" width="118.66" height="102.29" data-fill-palette-color="accent" viewBox="3 7 58 50" xmlns="http://www.w3.org/2000/svg">
<path d="M12 35H6a1 1 0 0 1-1-1V20H48v5a1 1 0 0 0 2 0V10a3 3 0 0 0-3-3H6a3 3 0 0 0-3 3V34a3 3 0 0 0 3 3h6a1 1 0 0 0 0-2ZM5 18V14H48v4Zm0-8A1 1 0 0 1 6 9H47a1 1 0 0 1 1 1v2H5Z"/>
<path d="M58 27H17a3 3 0 0 0-3 3V54a3 3 0 0 0 3 3H58a3 3 0 0 0 3-3V30A3 3 0 0 0 58 27Zm1 27a1 1 0 0 1-1 1H17a1 1 0 0 1-1-1V30a1 1 0 0 1 1-1H58a1 1 0 0 1 1 1Z"/>
<path d="m8 23a1 1 0 0 0 0 2h7a1 1 0 0 0 0-2z"/>
<path d="m18 23a1 1 0 0 0 0 2h7a1 1 0 0 0 0-2z"/>
<path d="m28 23a1 1 0 0 0 0 2h7a1 1 0 0 0 0-2z"/>
<path d="m38 23a1 1 0 0 0 0 2h7a1 1 0 0 0 0-2z"/>
<path d="m26 47h-7a1 1 0 0 0 0 2h7a1 1 0 0 0 0-2z"/>
<path d="m36 47h-7a1 1 0 0 0 0 2h7a1 1 0 0 0 0-2z"/>
<path d="m46 47h-7a1 1 0 0 0 0 2h7a1 1 0 0 0 0-2z"/>
<path d="m56 47h-7a1 1 0 0 0 0 2h7a1 1 0 0 0 0-2z"/>
<path d="m54 31h-4a3 3 0 0 0-3 3v5a3 3 0 0 0 3 3h4a3 3 0 0 0 3-3v-5a3 3 0 0 0-3-3zm1 8a1 1 0 0 1-1 1h-4a1 1 0 0 1-1-1v-5a1 1 0 0 1 1-1h4a1 1 0 0 1 1 1z"/>
</svg>
</svg>
</g>
</svg>
</svg>
</svg>
</g>
</svg>
</svg>
<rect width="320" height="360" visibility="hidden"/>
</mask>
</svg>
<rect width="320" height="360" visibility="hidden"/>
</mask>
</svg>
<rect width="320" height="360" visibility="hidden"/>
</mask>
</svg>
<rect width="320" height="360" fill="none" visibility="hidden"/>
</g>
</svg>
</g>
</svg>
